<?xml version="1.0" encoding="UTF-8" standalone="no"?>
<!-- Created with Inkscape (http://www.inkscape.org/) -->

<svg
   xmlns:dc="http://purl.org/dc/elements/1.1/"
   xmlns:cc="http://creativecommons.org/ns#"
   xmlns:rdf="http://www.w3.org/1999/02/22-rdf-syntax-ns#"
   xmlns:svg="http://www.w3.org/2000/svg"
   xmlns="http://www.w3.org/2000/svg"
   xmlns:sodipodi="http://sodipodi.sourceforge.net/DTD/sodipodi-0.dtd"
   xmlns:inkscape="http://www.inkscape.org/namespaces/inkscape"
   id="svg2"
   version="1.1"
   inkscape:version="0.48.3.1 r9886"
   width="568.8375"
   height="109.9"
   xml:space="preserve"
   sodipodi:docname="Uni Goettingen - Logo 4c CMYK.eps"><metadata
     id="metadata8"><rdf:RDF><cc:Work
         rdf:about=""><dc:format>image/svg+xml</dc:format><dc:type
           rdf:resource="http://purl.org/dc/dcmitype/StillImage" /><dc:title></dc:title></cc:Work></rdf:RDF></metadata><defs
     id="defs6" /><sodipodi:namedview
     pagecolor="#ffffff"
     bordercolor="#666666"
     borderopacity="1"
     objecttolerance="10"
     gridtolerance="10"
     guidetolerance="10"
     inkscape:pageopacity="0"
     inkscape:pageshadow="2"
     inkscape:window-width="1920"
     inkscape:window-height="1145"
     id="namedview4"
     showgrid="false"
     inkscape:zoom="2.9112003"
     inkscape:cx="222.10119"
     inkscape:cy="14.750392"
     inkscape:window-x="-3"
     inkscape:window-y="-3"
     inkscape:window-maximized="1"
     inkscape:current-layer="g10" /><g
     id="g10"
     inkscape:groupmode="layer"
     inkscape:label="ink_ext_XXXXXX"
     transform="matrix(1.25,0,0,-1.25,0,109.9)"><g
       id="g12"
       transform="scale(0.1,0.1)"><path
         d="m 245.117,31.5234 c -1.758,-4.2382 -2.07,-6.1914 -2.129,-10.4101 l -8.996,3.5742 c 4.699,5 5.285,6.4531 7.348,11.4922 l 12.027,29.4453 -10.719,-3.4492 -1.867,2.1015 c 1.961,0.6641 18.762,7.2266 21.067,7.7735 L 245.117,31.5234"
         style="fill:#231f20;fill-opacity:1;fill-rule:nonzero;stroke:none"
         id="path14" /><path
         d="m 493.809,50.3125 -8.477,-0.7813 c -9.141,-0.8398 -12.129,-2.8515 -14.949,-5.039 l 0.324,5.9375 c 0.09,1.2891 0.047,1.7969 -0.176,2.7148 l 31.11,2.8321 -10.879,-25.0977 C 504.199,29.5312 505.129,19.3281 505.273,17.6758 505.645,13.6133 503.457,1.47266 487.266,0 c -7.93,-0.734375 -11.348,0.46875 -13.653,1.32812 l 3.75,9.43358 c 0.918,-2.24608 3.106,-7.29686 10.742,-6.60154 7.696,0.70312 11.543,7.46094 11.028,13.10544 -0.352,3.8477 -3.067,6.7696 -5.805,7.6758 -3.953,1.3672 -7.859,0.9375 -10.992,0.5664 l 11.473,24.8047"
         style="fill:#231f20;fill-opacity:1;fill-rule:nonzero;stroke:none"
         id="path16" /><path
         d="m 378.434,28.5547 -0.219,-0.0391 -8.043,0.8203 13.617,24.8829 -27.871,2.8124 c -1.856,0.1758 -2.852,0.293 -3.633,0.4376 -0.703,0.1484 -1.187,0.2656 -1.898,0.4023 l -1.422,-9.082 c 3.777,2.5195 5.336,3.5859 17.805,2.3242 l 8.621,-0.8672 -10.961,-20.3438 -8.098,0.8204 c -1.488,0.1562 -2.273,0.2343 -2.898,0.3515 -0.571,0.1172 -0.957,0.2149 -1.52,0.332 l -0.73,-3.3281 -0.215,-0.0508 0.207,-0.0117 -0.016,-0.0468 0.227,0.0312 11.398,-1.1562 -4.922,-9.1094 C 354.758,11.9219 351.676,7.12891 348.031,3.81641 l 11.199,-1.1211 c -0.027,0.50781 -0.031,1.94141 0.063,2.8711 0.332,3.28125 1.812,7.15629 6.312,15.42969 l 2.895,5.2734 4.762,-0.4765 c 1.476,-0.1485 2.273,-0.2266 2.89,-0.3438 0.571,-0.1172 0.965,-0.2344 1.536,-0.332 l 0.73,3.332 0.215,0.0274 -0.211,0.0195 0.012,0.0586"
         style="fill:#231f20;fill-opacity:1;fill-rule:nonzero;stroke:none"
         id="path18" /><path
         d="m 618.75,44.5977 -0.184,-0.1172 -8.078,-1.7344 5.332,27.8867 -27.382,-5.8984 c -1.836,-0.3906 -2.813,-0.5938 -3.594,-0.6914 -0.723,-0.0703 -1.211,-0.1094 -1.934,-0.2071 l 1.426,-9.0625 c 2.832,3.5586 3.984,5.0391 16.23,7.6563 l 8.477,1.8359 -4.199,-22.7304 -7.793,-1.6602 c -1.446,-0.3164 -2.227,-0.4922 -2.86,-0.5469 -0.578,-0.0781 -0.976,-0.1015 -1.554,-0.1601 l 0.332,-3.3985 -0.196,-0.1054 0.207,0.0468 0.008,-0.0468 0.196,0.0898 11.035,2.3711 -1.875,-10.1758 C 601.16,21.457 599.707,15.9648 597.246,11.6875 l 10.996,2.3555 c -0.168,0.4765 -0.613,1.8437 -0.801,2.7617 -0.703,3.2148 -0.488,7.3633 1.27,16.6055 l 1.133,5.9179 4.844,1.0508 c 1.445,0.3047 2.226,0.4688 2.871,0.5586 0.566,0.0469 0.968,0.0781 1.543,0.1484 l -0.332,3.3868 0.207,0.1093 -0.207,-0.0625 -0.02,0.0782"
         style="fill:#231f20;fill-opacity:1;fill-rule:nonzero;stroke:none"
         id="path20" /><path
         d="m 171.91,512.477 -59.531,0 c 0,-102.262 64.598,-210.575 203.59,-253.481 8.293,16.902 16.633,34.949 25.047,54.274 C 210.328,349.492 171.91,448.73 171.91,512.477"
         style="fill:#bac5dc;fill-opacity:1;fill-rule:nonzero;stroke:none"
         id="path22" /><path
         d="m 452.523,299.414 c -30.32,0 -57.5,2.59 -82,7.121 -9.726,-23.371 -18.105,-43.226 -24.019,-55.558 31.914,-7.11 67.168,-11.094 106.019,-11.094 18.387,0 36.129,1.758 53.375,4.777 -9.336,18.395 -17.683,37.301 -24.89,56.531 -9.344,-1.054 -18.789,-1.777 -28.485,-1.777"
         style="fill:#bac5dc;fill-opacity:1;fill-rule:nonzero;stroke:none"
         id="path24" /><path
         d="m 525.242,209.766 c -21.844,-4.719 -44.48,-7.52 -67.84,-7.95 -43.652,-0.8 -87.265,4.414 -128.656,14.719 -11.43,-21.183 -22.926,-40.422 -34.473,-57.992 52.536,-15.094 108.493,-22.926 164.332,-21.902 37.235,0.683 72.793,6.218 106.454,15.574 -3.973,5.109 -7.989,10.351 -12.098,15.871 -9.863,13.25 -19.063,27.238 -27.719,41.68"
         style="fill:#113e74;fill-opacity:1;fill-rule:nonzero;stroke:none"
         id="path26" /><path
         d="M 143.984,313.75 C 92.2891,364.082 65.7812,425.508 65.1953,496.312 63.5703,692.969 253.586,812.27 438.223,813.996 619.336,815.688 768.801,701.504 770.293,700.348 l 16.582,-14.071 15.793,78.114 C 761.379,793.449 613.301,880.832 437.617,879.188 220.961,877.164 -1.96484,733.191 0,495.777 0.722656,408.172 34.7852,329.074 98.5,267.031 c 43.738,-42.59 101.434,-76.386 165.711,-98.945 11.391,16.766 22.805,35.769 34.289,57.043 -60.41,19.254 -114.508,49.656 -154.516,88.621"
         style="fill:#113e74;fill-opacity:1;fill-rule:nonzero;stroke:none"
         id="path28" /><path
         d="m 883.652,466.805 12.215,41.754 -352.058,0 0,-65.2 c 0,0 194.25,0 261.679,0 -41.789,-94.718 -130.136,-186.816 -245.066,-224.171 10.828,-18.661 23.828,-37.567 38.426,-56.063 144.699,53.477 248.527,179.734 284.804,303.68"
         style="fill:#113e74;fill-opacity:1;fill-rule:nonzero;stroke:none"
         id="path30" /><path
         d="m 908.965,759.508 -79.403,0 -4.613,-24.196 C 795.02,578.191 689.973,352.492 515.52,307.52 c 7.8,-17.735 16.679,-36.133 26.238,-54.426 185.176,55.871 298.203,278.82 336.367,446.883 0.527,0 0.547,0 1.074,0 0,-52.215 0,-439.461 0,-439.461 l 59.531,0 0,498.992 -29.765,0"
         style="fill:#bac5dc;fill-opacity:1;fill-rule:nonzero;stroke:none"
         id="path32" /><path
         d="m 798.137,103.398 c -9.16,1.668 -13.188,-16.3394 0.84,-18.3316 5.828,-2.5 4.168,-12.5 -7.5,-22.5 -11.672,-10 -70,-27.5 -115,10 -45,37.4996 -91.68,89.1606 -123.34,144.1606 -24.055,41.777 -51.914,98.441 -67.59,146.652 65,-1.563 57.59,27.519 57.59,27.519 -11.282,-19.336 -35.782,-23.039 -59.516,-21.386 -3.992,12.988 -7.078,25.3 -8.816,36.386 -8.336,53.336 -6.66,105.829 -4.164,116.664 0,0 -1.395,-0.902 -3.707,-2.683 l 0.371,1.855 c 0,0 -71.664,-45.832 -154.164,5 -82.5,50.828 -63.336,235.832 80,235 27.5,0.828 70.836,-7.5 88.336,-35 0,0 4.988,9.168 16.66,12.5 0,0 -11.672,-0.839 -20,3.328 -8.332,4.172 -19.996,25.836 -89.996,25.836 -70,0 -145,-49.164 -145,-141.664 0,-89.621 97.777,-160.464 211.484,-117.804 -17.5,-17.27 -46.684,-53.313 -74.219,-119.762 -15.164,0.539 -28.07,-2.418 -28.449,-14.102 -0.441,-13.796 7.766,-17.574 15.52,-18.132 C 326.113,253.965 285.312,176.777 242.305,126.727 203.129,81.1328 163.141,40.0664 83.9688,50.0664 c -28.3321,4.1602 -69.1641,44.1602 -35,88.3316 4.1132,5.313 6.6718,-10.832 21.6718,-2.5 15,8.329 -10,29.161 -27.5,8.329 C 25.6406,123.398 7.30078,45.8867 118.969,39.2266 230.641,32.5664 315.641,205.898 338.141,250.898 c 10.941,21.887 32.918,77.461 55.867,131.184 22.242,-3.617 50.847,-12.863 67.461,-17.016 2.593,-0.281 5.086,-0.523 7.515,-0.73 14.18,-58.77 42.598,-128.094 89.993,-191.77 111.66,-149.9996 170,-139.1558 225.828,-124.9996 18.332,8.332 46.66,49.1602 13.332,55.8316 z M 362.305,374.227 c 0,6.738 6.285,9.238 15.785,9.308 -0.813,-2.031 -1.641,-3.887 -2.449,-5.969 -2.125,-5.457 -4.25,-10.777 -6.371,-16.101 -5.696,2.656 -6.965,6.543 -6.965,12.762 z m 65,6.671 c -4.907,1.309 -17.461,4.649 -30.938,6.688 23.516,54.75 47.688,106.293 61.774,116.648 0,0 -6.953,-49.175 5.961,-117.476 0.937,-4.969 2.183,-10.207 3.343,-15.363 -18.929,3.027 -35.082,8.156 -40.14,9.503"
         style="fill:#231f20;fill-opacity:1;fill-rule:nonzero;stroke:none"
         id="path34" /><path
         d="m 1233.01,730.238 c -13.24,15.121 -33.15,22.926 -53.3,22.926 -40.3,0 -68.26,-26.476 -68.26,-74.219 0,-46.793 24.17,-75.863 70.85,-75.863 12.81,0 26.09,2.356 36.98,8.035 l 0,60.742 c 3.32,-0.238 6.86,-0.593 10.41,-0.593 3.32,0 6.63,0.355 10.42,0.593 l 0,-66.89 c -20.59,-7.145 -42.4,-10.961 -64.43,-10.961 -59.97,0 -87.56,35.777 -87.56,83.762 0,55.296 39.91,84.472 92.54,84.472 35.31,0 55.19,-10.492 60.41,-13.801 -2.14,-5.914 -3.8,-12.058 -5.45,-18.203 l -2.61,0"
         style="fill:#231f20;fill-opacity:1;fill-rule:nonzero;stroke:none"
         id="path36" /><path
         d="m 1303.33,688.336 36.77,0 c 7.12,0 14.01,0.953 21.12,1.18 -0.22,-1.895 -0.56,-4.028 -0.56,-6.161 0,-1.898 0.34,-4.039 0.56,-6.652 -7.11,0.238 -14,1.192 -21.12,1.192 l -36.77,0 0,-69.372 c 14.46,-0.472 28.71,0.477 42.95,0.954 7.35,0.238 14.47,0.949 21.83,2.14 -0.24,-2.617 -0.65,-4.746 -0.65,-7.113 0,-2.367 0.41,-4.734 0.65,-7.102 l -85.61,0 0,161.442 84.19,0 c -0.24,-2.61 -0.65,-4.739 -0.65,-7.102 0,-2.367 0.41,-4.738 0.65,-7.097 -7.12,1.417 -14.23,2.128 -21.37,2.597 l -23.73,0.473 -18.26,0 0,-59.379"
         style="fill:#231f20;fill-opacity:1;fill-rule:nonzero;stroke:none"
         id="path38" /><path
         d="m 1548.16,679.422 c 1.68,-26.067 -16.32,-77.742 -66.31,-77.742 -35.29,0 -64.66,25.121 -64.66,73.242 0,48.121 25.11,79.637 66.79,79.637 18.95,0 37.43,-8.055 49.27,-22.985 12.32,-15.886 14.91,-32.476 14.91,-52.152 z m -67.01,-85.442 c 52.8,0 90.35,34.481 90.35,87.336 0,56.887 -45.36,80.95 -89.9,80.95 -49.02,0 -87.73,-32.594 -87.73,-84.496 0,-50.727 34.93,-83.79 87.28,-83.79"
         style="fill:#231f20;fill-opacity:1;fill-rule:nonzero;stroke:none"
         id="path40" /><path
         d="m 1627.54,750.102 c 9.98,0.464 26.12,1.175 34.92,-0.239 17.83,-2.855 26.13,-13.527 26.13,-29.894 0,-18.5 -13.07,-30.36 -30.41,-33.918 -12.11,-2.371 -27.31,-1.422 -30.64,-1.184 l 0,65.235 z m -20.83,-153.27 c 3.32,0.234 6.88,0.57 10.42,0.57 3.32,0 6.63,-0.336 10.41,-0.57 l 0,79.012 9.03,0 19,-22.254 28.02,-36.215 c 5,-6.633 9.73,-13.254 14.96,-20.543 4.25,0.234 9.01,0.57 13.51,0.57 4.5,0 8.79,-0.336 13.76,-0.57 l -4.5,5.879 -11.4,13.23 -48.88,61.805 c 23.98,4.27 48.65,17.555 48.65,45.07 0,23.961 -16.14,36.028 -52.7,36.028 l -50.28,0 0,-162.012"
         style="fill:#231f20;fill-opacity:1;fill-rule:nonzero;stroke:none"
         id="path42" /><path
         d="m 1894.17,730.238 c -13.24,15.121 -33.16,22.926 -53.31,22.926 -40.29,0 -68.25,-26.476 -68.25,-74.219 0,-46.793 24.17,-75.863 70.87,-75.863 12.8,0 26.06,2.356 36.97,8.035 l 0,60.742 c 3.31,-0.238 6.85,-0.593 10.41,-0.593 3.31,0 6.62,0.355 10.41,0.593 l 0,-66.89 c -20.57,-7.145 -42.38,-10.961 -64.43,-10.961 -59.96,0 -87.57,35.777 -87.57,83.762 0,55.296 39.93,84.472 92.55,84.472 35.31,0 55.2,-10.492 60.41,-13.801 -2.14,-5.914 -3.79,-12.058 -5.45,-18.203 l -2.61,0"
         style="fill:#231f20;fill-opacity:1;fill-rule:nonzero;stroke:none"
         id="path44" /><path
         d="m 1932.26,642.496 59.3242,0 0,14.7773 -59.3242,0 0,-14.7773 z"
         style="fill:#231f20;fill-opacity:1;fill-rule:nonzero;stroke:none"
         id="path46" /><path
         d="m 2106.5,670.699 -52.12,0 25.83,60.606 26.29,-60.606 z m -17.77,91.567 -5.45,0 -73.98,-165.434 c 2.61,0.234 5.21,0.57 8.31,0.57 2.84,0 5.45,-0.336 8.78,-0.57 6.64,22.207 15.18,43.051 23.49,63.895 l 60.18,0 c 9.49,-21.559 18.03,-44.301 24.91,-63.895 4.03,0.234 8.09,0.57 12.58,0.57 4.03,0 7.83,-0.336 12.35,-0.57 l -71.17,165.434"
         style="fill:#231f20;fill-opacity:1;fill-rule:nonzero;stroke:none"
         id="path48" /><path
         d="m 2210.54,668.117 c 0,-41.73 11.87,-63.297 52.52,-63.297 37.78,0 51.33,27.262 51.33,65.664 l 0,88.36 c 2.13,-0.231 4.29,-0.567 6.66,-0.567 2.16,0 4.3,0.336 6.68,0.567 l 0,-94.289 c 0,-46.938 -27.6,-70.575 -69.43,-70.575 -23.52,0 -39.22,5.418 -51.56,16.528 -14.89,13.504 -16.79,34.609 -17.03,53.578 l 0,94.758 c 3.31,-0.231 6.85,-0.567 10.41,-0.567 3.31,0 6.62,0.336 10.42,0.567 l 0,-90.727"
         style="fill:#231f20;fill-opacity:1;fill-rule:nonzero;stroke:none"
         id="path50" /><path
         d="m 2515.95,730.238 c -13.27,15.121 -33.16,22.926 -53.32,22.926 -40.29,0 -68.25,-26.476 -68.25,-74.219 0,-46.793 24.17,-75.863 70.87,-75.863 12.79,0 26.07,2.356 36.98,8.035 l 0,60.742 c 3.31,-0.238 6.85,-0.593 10.4,-0.593 3.32,0 6.62,0.355 10.42,0.593 l 0,-66.89 c -20.6,-7.145 -42.41,-10.961 -64.44,-10.961 -59.98,0 -87.56,35.777 -87.56,83.762 0,55.296 39.92,84.472 92.54,84.472 35.32,0 55.19,-10.492 60.41,-13.801 -2.14,-5.914 -3.8,-12.058 -5.45,-18.203 l -2.6,0"
         style="fill:#231f20;fill-opacity:1;fill-rule:nonzero;stroke:none"
         id="path52" /><path
         d="m 2587.4,668.117 c 0,-41.73 11.88,-63.297 52.52,-63.297 37.78,0 51.32,27.262 51.32,65.664 l 0,88.36 c 2.14,-0.231 4.3,-0.567 6.68,-0.567 2.15,0 4.28,0.336 6.67,0.567 l 0,-94.289 c 0,-46.938 -27.61,-70.575 -69.43,-70.575 -23.54,0 -39.21,5.418 -51.55,16.528 -14.92,13.504 -16.8,34.609 -17.04,53.578 l 0,94.758 c 3.31,-0.231 6.87,-0.567 10.41,-0.567 3.31,0 6.63,0.336 10.42,0.567 l 0,-90.727"
         style="fill:#231f20;fill-opacity:1;fill-rule:nonzero;stroke:none"
         id="path54" /><path
         d="m 2750.44,628.812 c 9.26,-15.132 19.93,-24.589 38.41,-24.589 19.18,0 32.93,15.839 32.93,34.523 0,43.984 -74.19,24.59 -74.19,78.043 0,30.504 24.21,45.453 52.64,45.453 11.35,0 25.11,-3.566 33.93,-11.402 -2.87,-6.152 -4.52,-12.77 -6.43,-19.391 l -2.39,0 c -4.99,12.77 -15.41,20.571 -29.39,20.571 -16.33,0 -29.84,-10.883 -29.84,-27.665 0,-43.511 74.72,-26.015 74.72,-76.386 0,-33.813 -26.4,-53.961 -58.61,-53.961 -11.61,0 -30.59,4.988 -38.67,13.754 2.39,6.859 3.56,13.957 4.52,21.05 l 2.37,0"
         style="fill:#231f20;fill-opacity:1;fill-rule:nonzero;stroke:none"
         id="path56" /><path
         d="m 2932.79,596.352 c -3.79,0.238 -7.09,0.382 -10.41,0.382 -3.55,0 -7.11,-0.144 -10.42,-0.382 l 0,151.093 c -23.96,0 -38.43,-1.429 -51.96,-2.847 0.23,2.363 0.7,4.738 0.7,7.121 0,2.367 -0.47,4.5 -0.7,7.113 l 122.39,0 c -0.23,-2.613 -0.51,-4.746 -0.51,-7.113 0,-2.383 0.28,-4.758 0.51,-7.121 -11.87,1.418 -28.48,2.847 -49.6,2.847 l 0,-151.093"
         style="fill:#231f20;fill-opacity:1;fill-rule:nonzero;stroke:none"
         id="path58" /><path
         d="m 2980.35,642.5 59.3359,0 0,14.7734 -59.3359,0 0,-14.7734 z"
         style="fill:#231f20;fill-opacity:1;fill-rule:nonzero;stroke:none"
         id="path60" /><path
         d="m 3096.55,668.117 c 0,-41.73 11.88,-63.297 52.52,-63.297 37.79,0 51.34,27.262 51.34,65.664 l 0,88.36 c 2.13,-0.231 4.3,-0.567 6.68,-0.567 2.14,0 4.28,0.336 6.67,0.567 l 0,-94.289 c 0,-46.938 -27.62,-70.575 -69.44,-70.575 -23.53,0 -39.21,5.418 -51.55,16.528 -14.9,13.504 -16.8,34.613 -17.05,53.578 l 0,94.758 c 3.32,-0.231 6.87,-0.567 10.42,-0.567 3.31,0 6.63,0.336 10.41,0.567 l 0,-90.727"
         style="fill:#231f20;fill-opacity:1;fill-rule:nonzero;stroke:none"
         id="path62" /><path
         d="m 3403.33,596.832 -7.16,0 c -2.62,3.297 -7.39,8.938 -12.35,14.387 l -102.49,113.312 -2.35,0 0,-127.699 c -2.4,0.238 -4.53,0.57 -6.69,0.57 -2.39,0 -4.54,-0.332 -6.67,-0.57 l 0,162.012 9.29,0 112.69,-122.016 2.38,0 0,122.016 c 2.13,-0.231 4.28,-0.567 6.67,-0.567 2.15,0 4.29,0.336 6.68,0.567 l 0,-162.012"
         style="fill:#231f20;fill-opacity:1;fill-rule:nonzero;stroke:none"
         id="path64" /><path
         d="m 3452.87,758.844 c 3.32,-0.231 6.87,-0.567 10.42,-0.567 3.31,0 6.62,0.336 10.41,0.567 l 0,-162.012 c -3.79,0.238 -7.1,0.57 -10.41,0.57 -3.55,0 -7.1,-0.332 -10.42,-0.57 l 0,162.012"
         style="fill:#231f20;fill-opacity:1;fill-rule:nonzero;stroke:none"
         id="path66" /><path
         d="m 3622.97,715.531 14.23,39.547 1.67,3.766 c 2.85,-0.231 5.69,-0.567 8.79,-0.567 2.59,0 5.45,0.336 8.53,0.567 -7.58,-14.395 -60.05,-135.774 -68.58,-162.012 -1.67,0.238 -3.34,0.57 -4.77,0.57 -1.67,0 -3.34,-0.332 -5.01,-0.57 -27.07,55.637 -61.72,141.926 -72.17,162.012 3.56,-0.231 7.6,-0.567 11.4,-0.567 3.8,0 7.35,0.336 11.63,0.567 3.09,-7.297 5.92,-15.102 8.77,-22.926 l 15.9,-41.488 29.25,-71.832 2.14,0 c 4.53,9.722 9.51,18.968 13.3,28.687 l 24.92,64.246"
         style="fill:#231f20;fill-opacity:1;fill-rule:nonzero;stroke:none"
         id="path68" /><path
         d="m 3704.13,688.336 36.79,0 c 7.12,0 13.99,0.953 21.11,1.18 -0.24,-1.895 -0.58,-4.028 -0.58,-6.161 0,-1.898 0.34,-4.039 0.58,-6.652 -7.12,0.238 -13.99,1.192 -21.11,1.192 l -36.79,0 0,-69.372 c 14.48,-0.472 28.71,0.477 42.95,0.954 7.37,0.238 14.47,0.949 21.83,2.14 -0.23,-2.617 -0.65,-4.746 -0.65,-7.113 0,-2.367 0.42,-4.734 0.65,-7.102 l -85.6,0 0,161.442 84.18,0 c -0.24,-2.61 -0.64,-4.739 -0.64,-7.094 0,-2.375 0.4,-4.746 0.64,-7.105 -7.12,1.417 -14.24,2.128 -21.37,2.597 l -23.73,0.477 -18.26,0 0,-59.383"
         style="fill:#231f20;fill-opacity:1;fill-rule:nonzero;stroke:none"
         id="path70" /><path
         d="m 3826.87,750.102 c 9.99,0.468 26.12,1.175 34.92,-0.239 17.81,-2.855 26.12,-13.527 26.12,-29.894 0,-18.5 -13.05,-30.36 -30.4,-33.918 -12.12,-2.371 -27.31,-1.422 -30.64,-1.184 l 0,65.235 z m -20.83,-153.27 c 3.32,0.238 6.86,0.57 10.41,0.57 3.32,0 6.62,-0.332 10.42,-0.57 l 0,79.012 9.02,0 19,-22.254 28.02,-36.215 c 5,-6.633 9.75,-13.25 14.96,-20.543 4.26,0.238 9.01,0.57 13.53,0.57 4.49,0 8.78,-0.332 13.75,-0.57 l -4.49,5.883 -11.41,13.234 -48.9,61.797 c 24,4.27 48.67,17.563 48.67,45.07 0,23.961 -16.13,36.028 -52.69,36.028 l -50.29,0 0,-162.012"
         style="fill:#231f20;fill-opacity:1;fill-rule:nonzero;stroke:none"
         id="path72" /><path
         d="m 3951.14,628.812 c 9.26,-15.132 19.93,-24.589 38.41,-24.589 19.18,0 32.92,15.839 32.92,34.523 0,43.984 -74.18,24.59 -74.18,78.043 0,30.504 24.21,45.453 52.63,45.453 11.37,0 25.12,-3.566 33.94,-11.402 -2.87,-6.152 -4.54,-12.77 -6.44,-19.391 l -2.38,0 c -5,12.77 -15.42,20.578 -29.38,20.578 -16.35,0 -29.85,-10.89 -29.85,-27.672 0,-43.511 74.71,-26.015 74.71,-76.386 0,-33.813 -26.4,-53.961 -58.61,-53.961 -11.6,0 -30.58,4.988 -38.65,13.762 2.36,6.851 3.56,13.949 4.52,21.042 l 2.36,0"
         style="fill:#231f20;fill-opacity:1;fill-rule:nonzero;stroke:none"
         id="path74" /><path
         d="m 4078.43,758.844 c 3.32,-0.231 6.87,-0.567 10.43,-0.567 3.31,0 6.62,0.336 10.41,0.567 l 0,-162.012 c -3.79,0.238 -7.1,0.57 -10.41,0.57 -3.56,0 -7.11,-0.332 -10.43,-0.57 l 0,162.012"
         style="fill:#231f20;fill-opacity:1;fill-rule:nonzero;stroke:none"
         id="path76" /><path
         d="m 4203.26,596.352 c -3.78,0.238 -7.1,0.382 -10.41,0.382 -3.54,0 -7.1,-0.144 -10.42,-0.382 l 0,151.093 c -23.95,0 -38.43,-1.429 -51.97,-2.847 0.24,2.371 0.7,4.742 0.7,7.121 0,2.367 -0.46,4.5 -0.7,7.113 l 122.4,0 c -0.24,-2.613 -0.5,-4.746 -0.5,-7.113 0,-2.379 0.26,-4.75 0.5,-7.121 -11.86,1.418 -28.48,2.847 -49.6,2.847 l 0,-151.093"
         style="fill:#231f20;fill-opacity:1;fill-rule:nonzero;stroke:none"
         id="path78" /><path
         d="m 4362.55,670.699 -52.12,0 25.82,60.606 26.3,-60.606 z m 1.12,106.254 c 5.7,0 10.96,5.238 10.96,10.953 0,5.719 -5.01,10.957 -10.96,10.957 -5.96,0 -10.96,-5.238 -10.96,-10.957 0,-5.715 5.25,-10.953 10.96,-10.953 z m -46.5,0 c 5.71,0 10.97,5 10.97,10.953 0,5.957 -5,10.957 -10.97,10.957 -5.94,0 -10.95,-5.238 -10.95,-10.957 0,-5.715 5.24,-10.953 10.95,-10.953 z m 27.61,-14.687 -5.45,0 -73.99,-165.434 c 2.6,0.238 5.23,0.57 8.3,0.57 2.86,0 5.47,-0.332 8.8,-0.57 6.63,22.207 15.18,43.051 23.48,63.895 l 60.19,0 c 9.49,-21.559 18.02,-44.301 24.92,-63.895 4.03,0.238 8.07,0.57 12.56,0.57 4.04,0 7.85,-0.332 12.37,-0.57 l -71.18,165.434"
         style="fill:#231f20;fill-opacity:1;fill-rule:nonzero;stroke:none"
         id="path80" /><path
         d="m 4501.09,596.352 c -3.77,0.238 -7.09,0.382 -10.41,0.382 -3.55,0 -7.09,-0.144 -10.39,-0.382 l 0,151.093 c -23.99,0 -38.46,-1.429 -51.99,-2.847 0.25,2.371 0.7,4.742 0.7,7.121 0,2.367 -0.45,4.5 -0.7,7.113 l 122.4,0 c -0.24,-2.613 -0.52,-4.746 -0.52,-7.113 0,-2.379 0.28,-4.75 0.52,-7.121 -11.86,1.418 -28.48,2.847 -49.61,2.847 l 0,-151.093"
         style="fill:#231f20;fill-opacity:1;fill-rule:nonzero;stroke:none"
         id="path82" /><path
         d="m 1233.01,406.211 c -13.24,15.117 -33.15,22.937 -53.3,22.937 -40.3,0 -68.26,-26.492 -68.26,-74.226 0,-46.777 24.17,-75.86 70.85,-75.86 12.81,0 26.09,2.344 36.98,8.028 l 0,60.734 c 3.32,-0.238 6.86,-0.59 10.41,-0.59 3.32,0 6.63,0.352 10.42,0.59 l 0,-66.886 c -20.59,-7.129 -42.4,-10.958 -64.43,-10.958 -59.97,0 -87.56,35.782 -87.56,83.75 0,55.321 39.91,84.481 92.54,84.481 35.31,0 55.19,-10.488 60.41,-13.816 -2.14,-5.891 -3.8,-12.032 -5.45,-18.184 l -2.61,0"
         style="fill:#231f20;fill-opacity:1;fill-rule:nonzero;stroke:none"
         id="path84" /><path
         d="m 1428.55,355.379 c 1.68,-26.043 -16.34,-77.734 -66.31,-77.734 -35.28,0 -64.65,25.14 -64.65,73.253 0,48.106 25.1,79.641 66.79,79.641 18.93,0 37.42,-8.059 49.25,-22.992 12.33,-15.887 14.92,-32.469 14.92,-52.168 z m -42.37,97.551 c 5.71,0 10.95,5.234 10.95,10.949 0,5.715 -4.99,10.957 -10.95,10.957 -5.95,0 -10.95,-5.242 -10.95,-10.957 0,-5.715 5.23,-10.949 10.95,-10.949 z m -46.49,0 c 5.71,0 10.95,4.988 10.95,10.949 0,5.949 -4.98,10.957 -10.95,10.957 -5.95,0 -10.96,-5.242 -10.96,-10.957 0,-5.715 5.23,-10.949 10.96,-10.949 z m 21.83,-182.989 c 52.83,0 90.37,34.493 90.37,87.344 0,56.895 -45.35,80.945 -89.88,80.945 -49.03,0 -87.77,-32.578 -87.77,-84.5 0,-50.714 34.95,-83.789 87.28,-83.789"
         style="fill:#231f20;fill-opacity:1;fill-rule:nonzero;stroke:none"
         id="path86" /><path
         d="m 1546.14,272.324 c -3.78,0.235 -7.1,0.391 -10.41,0.391 -3.54,0 -7.1,-0.156 -10.41,-0.391 l 0,151.102 c -23.96,0 -38.43,-1.422 -51.96,-2.848 0.23,2.36 0.69,4.723 0.69,7.106 0,2.375 -0.46,4.515 -0.69,7.109 l 122.39,0 c -0.24,-2.594 -0.51,-4.734 -0.51,-7.109 0,-2.383 0.27,-4.746 0.51,-7.106 -11.87,1.426 -28.47,2.848 -49.61,2.848 l 0,-151.102"
         style="fill:#231f20;fill-opacity:1;fill-rule:nonzero;stroke:none"
         id="path88" /><path
         d="m 1684.75,272.324 c -3.8,0.235 -7.11,0.391 -10.43,0.391 -3.55,0 -7.09,-0.156 -10.4,-0.391 l 0,151.102 c -23.97,0 -38.44,-1.422 -51.97,-2.848 0.24,2.36 0.69,4.723 0.69,7.106 0,2.375 -0.45,4.515 -0.69,7.109 l 122.39,0 c -0.25,-2.594 -0.51,-4.734 -0.51,-7.109 0,-2.383 0.26,-4.746 0.52,-7.106 -11.88,1.426 -28.48,2.848 -49.6,2.848 l 0,-151.102"
         style="fill:#231f20;fill-opacity:1;fill-rule:nonzero;stroke:none"
         id="path90" /><path
         d="m 1768.3,434.812 c 3.29,-0.242 6.85,-0.562 10.4,-0.562 3.31,0 6.62,0.32 10.4,0.562 l 0,-162 c -3.78,0.215 -7.09,0.567 -10.4,0.567 -3.55,0 -7.11,-0.352 -10.4,-0.567 l 0,162"
         style="fill:#231f20;fill-opacity:1;fill-rule:nonzero;stroke:none"
         id="path92" /><path
         d="m 1979.78,272.812 -7.15,0 c -2.63,3.282 -7.38,8.946 -12.38,14.395 l -102.46,113.301 -2.37,0 0,-127.696 c -2.38,0.215 -4.54,0.567 -6.68,0.567 -2.38,0 -4.53,-0.352 -6.68,-0.567 l 0,162 9.3,0 112.69,-122.019 2.39,0 0,122.019 c 2.15,-0.242 4.27,-0.562 6.67,-0.562 2.14,0 4.29,0.32 6.67,0.562 l 0,-162"
         style="fill:#231f20;fill-opacity:1;fill-rule:nonzero;stroke:none"
         id="path94" /><path
         d="m 2169.7,406.211 c -13.26,15.117 -33.18,22.937 -53.32,22.937 -40.29,0 -68.26,-26.492 -68.26,-74.226 0,-46.777 24.17,-75.86 70.88,-75.86 12.79,0 26.07,2.344 36.97,8.028 l 0,60.734 c 3.31,-0.238 6.85,-0.59 10.41,-0.59 3.32,0 6.62,0.352 10.41,0.59 l 0,-66.886 c -20.59,-7.129 -42.38,-10.958 -64.43,-10.958 -59.97,0 -87.57,35.782 -87.57,83.75 0,55.321 39.93,84.481 92.55,84.481 35.31,0 55.2,-10.488 60.41,-13.816 -2.15,-5.891 -3.81,-12.032 -5.45,-18.184 l -2.6,0"
         style="fill:#231f20;fill-opacity:1;fill-rule:nonzero;stroke:none"
         id="path96" /><path
         d="m 2242.84,364.305 36.79,0 c 7.13,0 14.01,0.949 21.12,1.183 -0.23,-1.894 -0.57,-4.023 -0.57,-6.16 0,-1.898 0.34,-4.035 0.57,-6.652 -7.11,0.234 -13.99,1.191 -21.12,1.191 l -36.79,0 0,-69.375 c 14.48,-0.469 28.72,0.477 42.96,0.969 7.36,0.23 14.49,0.945 21.83,2.125 -0.23,-2.617 -0.65,-4.746 -0.65,-7.109 0,-2.36 0.42,-4.735 0.65,-7.098 l -85.61,0 0,161.433 84.18,0 c -0.22,-2.597 -0.63,-4.734 -0.63,-7.089 0,-2.383 0.41,-4.746 0.63,-7.106 -7.11,1.414 -14.23,2.129 -21.36,2.613 l -23.72,0.461 -18.28,0 0,-59.386"
         style="fill:#231f20;fill-opacity:1;fill-rule:nonzero;stroke:none"
         id="path98" /><path
         d="m 2487.64,272.812 -7.15,0 c -2.63,3.282 -7.4,8.946 -12.37,14.395 l -102.48,113.301 -2.38,0 0,-127.696 c -2.36,0.215 -4.52,0.567 -6.66,0.567 -2.38,0 -4.53,-0.352 -6.69,-0.567 l 0,162 9.31,0 112.69,-122.019 2.39,0 0,122.019 c 2.13,-0.242 4.27,-0.562 6.66,-0.562 2.16,0 4.29,0.32 6.68,0.562 l 0,-162"
         style="fill:#231f20;fill-opacity:1;fill-rule:nonzero;stroke:none"
         id="path100" /></g></g></svg>