<?xml version="1.0" encoding="UTF-8" standalone="no"?>
<!-- Created with Inkscape (http://www.inkscape.org/) -->

<svg
   xmlns:dc="http://purl.org/dc/elements/1.1/"
   xmlns:cc="http://creativecommons.org/ns#"
   xmlns:rdf="http://www.w3.org/1999/02/22-rdf-syntax-ns#"
   xmlns:svg="http://www.w3.org/2000/svg"
   xmlns="http://www.w3.org/2000/svg"
   xmlns:sodipodi="http://sodipodi.sourceforge.net/DTD/sodipodi-0.dtd"
   xmlns:inkscape="http://www.inkscape.org/namespaces/inkscape"
   width="316.1684"
   height="258.33023"
   viewBox="0 0 316.1684 258.33024"
   id="svg2"
   version="1.1"
   inkscape:version="0.48.3.1 r9886"
   sodipodi:docname="tcsystem.svg">
  <defs
     id="defs4">
    <marker
       inkscape:stockid="Arrow2Mstart"
       orient="auto"
       refY="0.0"
       refX="0.0"
       id="Arrow2Mstart"
       style="overflow:visible">
      <path
         id="path4652"
         style="fill-rule:evenodd;stroke-width:0.62500000;stroke-linejoin:round"
         d="M 8.7185878,4.0337352 L -2.2072895,0.016013256 L 8.7185884,-4.0017078 C 6.9730900,-1.6296469 6.9831476,1.6157441 8.7185878,4.0337352 z "
         transform="scale(0.6) translate(0,0)" />
    </marker>
    <marker
       inkscape:stockid="Arrow2Mend"
       orient="auto"
       refY="0.0"
       refX="0.0"
       id="Arrow2Mend"
       style="overflow:visible;">
      <path
         id="path4655"
         style="fill-rule:evenodd;stroke-width:0.62500000;stroke-linejoin:round;"
         d="M 8.7185878,4.0337352 L -2.2072895,0.016013256 L 8.7185884,-4.0017078 C 6.9730900,-1.6296469 6.9831476,1.6157441 8.7185878,4.0337352 z "
         transform="scale(0.6) rotate(180) translate(0,0)" />
    </marker>
    <marker
       inkscape:stockid="Arrow1Mstart"
       orient="auto"
       refY="0"
       refX="0"
       id="Arrow1Mstart"
       style="overflow:visible">
      <path
         id="path3843"
         d="M 0,0 5,-5 -12.5,0 5,5 0,0 z"
         style="fill-rule:evenodd;stroke:#000000;stroke-width:1pt"
         transform="matrix(0.4,0,0,0.4,4,0)"
         inkscape:connector-curvature="0" />
    </marker>
    <marker
       inkscape:stockid="Arrow1Mend"
       orient="auto"
       refY="0"
       refX="0"
       id="Arrow1Mend"
       style="overflow:visible">
      <path
         id="path3846"
         d="M 0,0 5,-5 -12.5,0 5,5 0,0 z"
         style="fill-rule:evenodd;stroke:#000000;stroke-width:1pt"
         transform="matrix(-0.4,0,0,-0.4,-4,0)"
         inkscape:connector-curvature="0" />
    </marker>
    <marker
       inkscape:stockid="Arrow1Lstart"
       orient="auto"
       refY="0"
       refX="0"
       id="marker5401"
       style="overflow:visible"
       inkscape:isstock="true">
      <path
         id="path5403"
         d="M 0,0 5,-5 -12.5,0 5,5 0,0 z"
         style="fill:#000000;fill-opacity:1;fill-rule:evenodd;stroke:#000000;stroke-width:1pt;stroke-opacity:1"
         transform="matrix(0.8,0,0,0.8,10,0)"
         inkscape:connector-curvature="0" />
    </marker>
    <marker
       inkscape:stockid="Arrow2Lstart"
       orient="auto"
       refY="0"
       refX="0"
       id="Arrow2Lstart"
       style="overflow:visible"
       inkscape:isstock="true">
      <path
         id="path4387"
         style="fill:#000000;fill-opacity:1;fill-rule:evenodd;stroke:#000000;stroke-width:0.625;stroke-linejoin:round;stroke-opacity:1"
         d="M 8.7185878,4.0337352 -2.2072895,0.01601326 8.7185884,-4.0017078 c -1.7454984,2.3720609 -1.7354408,5.6174519 -6e-7,8.035443 z"
         transform="matrix(1.1,0,0,1.1,1.1,0)"
         inkscape:connector-curvature="0" />
    </marker>
    <marker
       inkscape:stockid="Arrow1Sstart"
       orient="auto"
       refY="0"
       refX="0"
       id="Arrow1Sstart"
       style="overflow:visible"
       inkscape:isstock="true">
      <path
         id="path4381"
         d="M 0,0 5,-5 -12.5,0 5,5 0,0 z"
         style="fill:#000000;fill-opacity:1;fill-rule:evenodd;stroke:#000000;stroke-width:1pt;stroke-opacity:1"
         transform="matrix(0.2,0,0,0.2,1.2,0)"
         inkscape:connector-curvature="0" />
    </marker>
    <marker
       inkscape:stockid="Arrow1Lstart"
       orient="auto"
       refY="0"
       refX="0"
       id="Arrow1Lstart"
       style="overflow:visible"
       inkscape:isstock="true">
      <path
         id="path4369"
         d="M 0,0 5,-5 -12.5,0 5,5 0,0 z"
         style="fill:#000000;fill-opacity:1;fill-rule:evenodd;stroke:#000000;stroke-width:1pt;stroke-opacity:1"
         transform="matrix(0.8,0,0,0.8,10,0)"
         inkscape:connector-curvature="0" />
    </marker>
    <marker
       inkscape:stockid="Arrow2Lend"
       orient="auto"
       refY="0"
       refX="0"
       id="Arrow2Lend"
       style="overflow:visible"
       inkscape:isstock="true">
      <path
         id="path4390"
         style="fill:#000000;fill-opacity:1;fill-rule:evenodd;stroke:#000000;stroke-width:0.625;stroke-linejoin:round;stroke-opacity:1"
         d="M 8.7185878,4.0337352 -2.2072895,0.01601326 8.7185884,-4.0017078 c -1.7454984,2.3720609 -1.7354408,5.6174519 -6e-7,8.035443 z"
         transform="matrix(-1.1,0,0,-1.1,-1.1,0)"
         inkscape:connector-curvature="0" />
    </marker>
  </defs>
  <sodipodi:namedview
     id="base"
     pagecolor="#ffffff"
     bordercolor="#666666"
     borderopacity="1.0"
     inkscape:pageopacity="0.0"
     inkscape:pageshadow="2"
     inkscape:zoom="1.979899"
     inkscape:cx="56.672201"
     inkscape:cy="136.55549"
     inkscape:document-units="px"
     inkscape:current-layer="layer4"
     showgrid="false"
     inkscape:window-width="1920"
     inkscape:window-height="1145"
     inkscape:window-x="-3"
     inkscape:window-y="-3"
     inkscape:window-maximized="1"
     showguides="true"
     inkscape:guide-bbox="true"
     fit-margin-top="0"
     fit-margin-left="0"
     fit-margin-right="0"
     fit-margin-bottom="0">
    <inkscape:grid
       type="xygrid"
       id="grid4136"
       empspacing="4"
       visible="true"
       enabled="true"
       snapvisiblegridlinesonly="true"
       originx="-196.60799px"
       originy="-405.62009px" />
  </sodipodi:namedview>
  <metadata
     id="metadata7">
    <rdf:RDF>
      <cc:Work
         rdf:about="">
        <dc:format>image/svg+xml</dc:format>
        <dc:type
           rdf:resource="http://purl.org/dc/dcmitype/StillImage" />
        <dc:title></dc:title>
      </cc:Work>
    </rdf:RDF>
  </metadata>
  <g
     inkscape:groupmode="layer"
     id="layer5"
     inkscape:label="collow"
     style="display:inline">
    <path
       inkscape:connector-curvature="0"
       id="ellipse3050"
       d="m 315.20738,49.723268 c 0,27.032051 -65.74143,48.945857 -146.83758,48.945857 -81.096154,0 -146.83758,-21.913806 -146.83758,-48.945857 0,-27.032051 65.741426,-48.94585746 146.83758,-48.94585746 81.09615,0 146.83758,21.91380646 146.83758,48.94585746 z"
       style="opacity:0.98000004;fill:#aedbaa;fill-opacity:1;stroke:none" />
  </g>
  <g
     inkscape:groupmode="layer"
     id="layer2"
     inkscape:label="colors"
     style="display:inline"
     transform="translate(-196.60799,-388.41187)">
    <path
       inkscape:connector-curvature="0"
       id="path4331"
       d="m 356.33516,621.66293 c -28.95286,-1.17792 -53.22831,-7.85057 -61.81818,-16.99211 -2.62978,-2.79867 -3.13464,-3.98476 -3.37816,-7.93651 -0.2551,-4.13983 -0.25341,-132.90022 0.002,-149.37113 l 0.19336,-12.47095 0.81814,-1.49142 c 5.07223,-9.24633 25.76137,-16.63284 53.9539,-19.26281 6.61345,-0.61694 24.38859,-0.85745 31.45445,-0.42561 20.94284,1.27998 38.04263,5.02244 49.64505,10.86532 4.46767,2.24989 8.96678,5.88464 10.48896,8.47385 l 0.75261,1.28018 0.0723,83.18211 0.0723,83.18209 -0.98129,1.47839 c -2.71283,4.08704 -7.97976,7.68965 -15.75955,10.77962 -12.57198,4.99333 -29.08597,7.88302 -49.8222,8.7181 -7.33206,0.29526 -8.22478,0.29475 -15.69378,-0.009 l 0,-10e-6 z"
       style="fill:#d57b50;fill-opacity:1;fill-rule:nonzero;stroke:none" />
    <path
       sodipodi:nodetypes="cc"
       inkscape:connector-curvature="0"
       id="path4333-2"
       d="M 292.4109,438.2676 366,437.87603"
       style="fill:none;stroke:#000000;stroke-width:0.77292937px;stroke-linecap:butt;stroke-linejoin:miter;stroke-opacity:1;marker-start:url(#Arrow2Lstart);display:inline" />
    <path
       sodipodi:nodetypes="cc"
       inkscape:connector-curvature="0"
       id="path4333-2-7"
       d="m 457.72933,402.24498 -92.03657,35.60905"
       style="fill:none;stroke:#000000;stroke-width:0.77292936999999984;stroke-linecap:butt;stroke-linejoin:miter;stroke-miterlimit:4;stroke-opacity:1;stroke-dasharray:none;marker-start:url(#Arrow2Lstart);display:inline" />
  </g>
  <g
     inkscape:groupmode="layer"
     id="layer4"
     inkscape:label="dummy"
     style="opacity:0.97000002;display:inline">
    <g
       id="g4246"
       transform="matrix(0.77292938,0,0,0.77292938,-116.0682,-270.88484)" />
    <path
       style="fill:#58b44f;fill-opacity:0.60344827;stroke:none"
       d="M 150.493,256.13813 C 101.3815,253.97474 59.494374,244.08434 37.740442,229.51499 29.592193,224.05783 25.262394,219.15482 23.471716,213.35728 c -0.998237,-3.23192 -1.015549,-4.58053 -1.015549,-79.11345 l 0,-75.825483 1.328273,2.011282 c 6.264244,9.485371 20.210474,18.048736 40.29455,24.741951 20.316509,6.770677 42.81974,10.896183 73.53457,13.481058 12.20612,1.027234 51.60091,0.863677 64.64976,-0.268409 44.82735,-3.88911 79.35774,-13.177074 98.99673,-26.628079 4.81838,-3.300175 10.44626,-8.868237 12.08808,-11.959605 l 1.00978,-1.901321 -0.11009,77.050556 -0.11011,77.05055 -1.91583,3.8762 c -9.86608,19.96149 -56.47704,35.89049 -116.27201,39.73524 -11.43214,0.73507 -34.65798,1.00606 -45.45687,0.53036 z"
       id="path4176"
       inkscape:connector-curvature="0" />
  </g>
  <g
     inkscape:label="Layer 1"
     inkscape:groupmode="layer"
     id="layer1"
     style="display:inline"
     transform="translate(-196.60799,-388.41187)">
    <g
       transform="matrix(0.77292938,0,0,0.77292938,80.539781,117.52702)"
       id="g3932"
       style="stroke-width:2;stroke-miterlimit:4;stroke-dasharray:none;display:inline">
      <path
         style="fill:none;stroke:#000000;stroke-opacity:1;stroke-dashoffset:0"
         d="m 463.21875,565.55344 c 56.65635,10.96013 94.75668,31.4013 94.75668,54.80874 0,34.97351 -85.0549,63.32514 -189.97543,63.32514 -104.92053,0 -189.97543,-28.35163 -189.97543,-63.32514 0,-23.28899 37.7157,-43.64165 93.898,-54.64163"
         id="path3934"
         inkscape:connector-curvature="0"
         sodipodi:nodetypes="csssc" />
    </g>
    <g
       transform="matrix(0.77292938,0,0,0.77292938,80.539781,-41.361019)"
       id="g3936"
       style="stroke-width:2;stroke-miterlimit:4;stroke-dasharray:none;display:inline">
      <ellipse
         sodipodi:ry="63.325142"
         sodipodi:rx="189.97543"
         sodipodi:cy="620.36218"
         sodipodi:cx="368"
         d="m 557.97543,620.36218 c 0,34.97351 -85.0549,63.32514 -189.97543,63.32514 -104.92053,0 -189.97543,-28.35163 -189.97543,-63.32514 0,-34.97351 85.0549,-63.32514 189.97543,-63.32514 104.92053,0 189.97543,28.35163 189.97543,63.32514 z"
         style="fill:none;stroke:#000000;stroke-width:2;stroke-miterlimit:4;stroke-opacity:1;stroke-dasharray:none;stroke-dashoffset:0"
         id="ellipse3938"
         cx="368"
         cy="620.36218"
         rx="189.97543"
         ry="63.325142" />
    </g>
    <path
       sodipodi:nodetypes="cc"
       inkscape:connector-curvature="0"
       id="path3940"
       d="m 218.23163,439.73205 0,156.73903"
       style="fill:none;stroke:#000000;stroke-width:1.54585874;stroke-linecap:butt;stroke-linejoin:miter;stroke-miterlimit:4;stroke-opacity:1;stroke-dasharray:none;display:inline" />
    <path
       sodipodi:nodetypes="cc"
       inkscape:connector-curvature="0"
       id="path3942"
       d="m 512.00001,439.73205 0,157.84323"
       style="fill:none;stroke:#000000;stroke-width:1.54585874;stroke-linecap:butt;stroke-linejoin:miter;stroke-miterlimit:4;stroke-opacity:1;stroke-dasharray:none;display:inline" />
    <text
       sodipodi:linespacing="125%"
       id="text3944"
       y="446.70935"
       x="323.95676"
       style="font-size:6.18343496px;font-style:normal;font-weight:normal;line-height:125%;letter-spacing:0px;word-spacing:0px;fill:#000000;fill-opacity:1;stroke:none;display:inline;font-family:Sans"
       xml:space="preserve"><tspan
         y="446.70935"
         x="323.95676"
         id="tspan3946"
         sodipodi:role="line">$r_i$</tspan></text>
    <text
       sodipodi:linespacing="125%"
       id="text3948"
       y="436.71915"
       x="394.41196"
       style="font-size:6.18343496px;font-style:normal;font-weight:normal;line-height:125%;letter-spacing:0px;word-spacing:0px;fill:#000000;fill-opacity:1;stroke:none;display:inline;font-family:Sans"
       xml:space="preserve"><tspan
         y="436.71915"
         x="394.41196"
         id="tspan3950"
         sodipodi:role="line">$r_o$</tspan></text>
    <path
       inkscape:connector-curvature="0"
       id="path3952"
       d="m 441.52134,523.99311 68.01778,0"
       style="fill:none;stroke:#000000;stroke-width:1.54585873999999990;stroke-linecap:butt;stroke-linejoin:miter;stroke-miterlimit:4;stroke-opacity:1;stroke-dasharray:none;marker-end:url(#Arrow2Mend);display:inline;marker-start:url(#Arrow2Mstart)" />
    <text
       sodipodi:linespacing="125%"
       id="text3954"
       y="518.22174"
       x="470.69534"
       style="font-size:6.18343496px;font-style:normal;font-weight:normal;line-height:125%;letter-spacing:0px;word-spacing:0px;fill:#000000;fill-opacity:1;stroke:none;display:inline;font-family:Sans"
       xml:space="preserve"><tspan
         y="518.22174"
         x="470.69534"
         id="tspan3956"
         sodipodi:role="line">$d$</tspan></text>
    <path
       inkscape:connector-curvature="0"
       id="path3958"
       d="m 210.39192,436.25385 0,160.76931"
       style="fill:none;stroke:#000000;stroke-width:1.54585873999999990;stroke-linecap:butt;stroke-linejoin:miter;stroke-miterlimit:4;stroke-opacity:1;stroke-dasharray:none;marker-start:url(#Arrow2Mstart);marker-end:url(#Arrow2Mend);display:inline" />
    <text
       sodipodi:linespacing="125%"
       id="text3960"
       y="519.06903"
       x="196.09471"
       style="font-size:6.18343496px;font-style:normal;font-weight:normal;line-height:125%;letter-spacing:0px;word-spacing:0px;fill:#000000;fill-opacity:1;stroke:none;display:inline;font-family:Sans"
       xml:space="preserve"><tspan
         y="519.06903"
         x="196.09471"
         id="tspan3962"
         sodipodi:role="line">$h$</tspan></text>
    <path
       inkscape:connector-curvature="0"
       id="path3964"
       d="m 364.97779,590.83973 0,-37.10061"
       style="fill:none;stroke:#000000;stroke-width:0.77292937px;stroke-linecap:butt;stroke-linejoin:miter;stroke-opacity:1;marker-end:url(#Arrow1Mend);display:inline" />
    <path
       sodipodi:nodetypes="cc"
       inkscape:connector-curvature="0"
       id="path3966"
       d="m 364.97779,590.83973 -12.36686,12.36689"
       style="fill:none;stroke:#000000;stroke-width:0.77292937px;stroke-linecap:butt;stroke-linejoin:miter;stroke-opacity:1;marker-end:url(#Arrow1Mend);display:inline" />
    <path
       inkscape:connector-curvature="0"
       id="path3968"
       d="m 364.97779,590.83973 30.91718,0"
       style="fill:none;stroke:#000000;stroke-width:0.77292937px;stroke-linecap:butt;stroke-linejoin:miter;stroke-opacity:1;marker-end:url(#Arrow1Mend);display:inline" />
    <text
       sodipodi:linespacing="125%"
       id="text3970"
       y="596.36218"
       x="344"
       style="font-size:6.18343496px;font-style:normal;font-weight:normal;line-height:125%;letter-spacing:0px;word-spacing:0px;fill:#000000;fill-opacity:1;stroke:none;display:inline;font-family:Sans"
       xml:space="preserve"><tspan
         y="596.36218"
         x="344"
         id="tspan3972"
         sodipodi:role="line">$x$</tspan></text>
    <text
       sodipodi:linespacing="125%"
       id="text3974"
       y="601.0506"
       x="383.87149"
       style="font-size:6.18343496px;font-style:normal;font-weight:normal;line-height:125%;letter-spacing:0px;word-spacing:0px;fill:#000000;fill-opacity:1;stroke:none;display:inline;font-family:Sans"
       xml:space="preserve"><tspan
         y="601.0506"
         x="383.87149"
         id="tspan3976"
         sodipodi:role="line">$y$</tspan></text>
    <text
       sodipodi:linespacing="125%"
       id="text3978"
       y="560.36218"
       x="352"
       style="font-size:6.18343496px;font-style:normal;font-weight:normal;line-height:125%;letter-spacing:0px;word-spacing:0px;fill:#000000;fill-opacity:1;stroke:none;display:inline;font-family:Sans"
       xml:space="preserve"><tspan
         y="560.36218"
         x="352"
         id="tspan3980"
         sodipodi:role="line">$z$</tspan></text>
    <g
       style="stroke-width:2;stroke-miterlimit:4;stroke-dasharray:none;display:inline"
       id="g3982"
       transform="matrix(0.77292938,0,0,0.77292938,80.539781,-41.361019)">
      <ellipse
         ry="63.325142"
         rx="189.97543"
         cy="620.36218"
         cx="368"
         id="ellipse3984"
         style="fill:none;stroke:#000000;stroke-width:2;stroke-miterlimit:4;stroke-opacity:1;stroke-dasharray:none;stroke-dashoffset:0"
         d="m 557.97543,620.36218 c 0,34.97351 -85.0549,63.32514 -189.97543,63.32514 -104.92053,0 -189.97543,-28.35163 -189.97543,-63.32514 0,-34.97351 85.0549,-63.32514 189.97543,-63.32514 104.92053,0 189.97543,28.35163 189.97543,63.32514 z"
         sodipodi:cx="368"
         sodipodi:cy="620.36218"
         sodipodi:rx="189.97543"
         sodipodi:ry="63.325142" />
    </g>
    <g
       transform="matrix(0.77292938,0,0,0.77292938,80.539783,117.52702)"
       id="g3986">
      <g
         id="g3988">
        <g
           id="g3990">
          <g
             id="g3992">
            <path
               d="m 464,620.36218 c 0,17.67311 -42.98066,32 -96,32 -53.01934,0 -96,-14.32689 -96,-32 0,0 0,0 0,0"
               sodipodi:open="true"
               sodipodi:end="3.1415927"
               sodipodi:start="0"
               sodipodi:ry="32"
               sodipodi:rx="96"
               sodipodi:cy="620.36218"
               sodipodi:cx="368"
               sodipodi:type="arc"
               style="fill:none;stroke:#000000;stroke-width:2;stroke-miterlimit:4;stroke-opacity:1;stroke-dasharray:none;stroke-dashoffset:0"
               id="path3994" />
            <ellipse
               d="m 464,620.36218 c 0,17.67311 -42.98066,32 -96,32 -53.01934,0 -96,-14.32689 -96,-32 0,-17.67311 42.98066,-32 96,-32 53.01934,0 96,14.32689 96,32 z"
               sodipodi:ry="32"
               sodipodi:rx="96"
               sodipodi:cy="620.36218"
               sodipodi:cx="368"
               ry="32"
               rx="96"
               cy="620.36218"
               cx="368"
               id="ellipse3996"
               style="fill:none;stroke:#000000;stroke-width:2;stroke-miterlimit:4;stroke-opacity:1;stroke-dasharray:none;stroke-dashoffset:0"
               transform="translate(0,-205.56605)" />
            <path
               sodipodi:nodetypes="cc"
               inkscape:connector-curvature="0"
               id="path3998"
               d="m 271.78571,415.21935 0,204.99999"
               style="fill:none;stroke:#000000;stroke-width:2;stroke-linecap:butt;stroke-linejoin:miter;stroke-miterlimit:4;stroke-opacity:1;stroke-dasharray:none" />
            <path
               sodipodi:nodetypes="ccc"
               inkscape:connector-curvature="0"
               id="path4000"
               d="m 463.92857,416.29077 0,34.64286 0,170.35714"
               style="fill:none;stroke:#000000;stroke-width:2;stroke-linecap:butt;stroke-linejoin:miter;stroke-miterlimit:4;stroke-opacity:1;stroke-dasharray:none" />
          </g>
        </g>
      </g>
    </g>
  </g>
  <g
     inkscape:groupmode="layer"
     id="layer3"
     inkscape:label="inner"
     style="display:none"
     transform="translate(-196.60799,-388.41187)" />
</svg>
