<?xml version="1.0" encoding="UTF-8" standalone="no"?>
<!-- Created with Inkscape (http://www.inkscape.org/) -->

<svg
   xmlns:dc="http://purl.org/dc/elements/1.1/"
   xmlns:cc="http://creativecommons.org/ns#"
   xmlns:rdf="http://www.w3.org/1999/02/22-rdf-syntax-ns#"
   xmlns:svg="http://www.w3.org/2000/svg"
   xmlns="http://www.w3.org/2000/svg"
   xmlns:sodipodi="http://sodipodi.sourceforge.net/DTD/sodipodi-0.dtd"
   xmlns:inkscape="http://www.inkscape.org/namespaces/inkscape"
   id="svg2"
   version="1.1"
   inkscape:version="0.48.3.1 r9886"
   width="502.32944"
   height="200.20604"
   xml:space="preserve"
   sodipodi:docname="reflection.svg"><metadata
     id="metadata8"><rdf:RDF><cc:Work
         rdf:about=""><dc:format>image/svg+xml</dc:format><dc:type
           rdf:resource="http://purl.org/dc/dcmitype/StillImage" /><dc:title /></cc:Work></rdf:RDF></metadata><defs
     id="defs6"><clipPath
       clipPathUnits="userSpaceOnUse"
       id="clipPath18"><path
         d="m 0,360 5950,0 0,7700 L 0,8060 0,360 z"
         id="path20"
         inkscape:connector-curvature="0" /></clipPath><clipPath
       clipPathUnits="userSpaceOnUse"
       id="clipPath34"><path
         d="m 1677.55,5521.36 2407.83,0 0,964.44 -2407.83,0 0,-964.44 z"
         id="path36"
         inkscape:connector-curvature="0" /></clipPath><clipPath
       clipPathUnits="userSpaceOnUse"
       id="clipPath58"><path
         d="m 1677.55,6485.8 0,-964.44 2407.83,0 0,964.44 -2407.83,0 z m 1475.99,-128.92 -10.74,6.41 -15.71,-27.07 17.98,18.18 -7.44,-24.38 15.91,26.86 z"
         clip-rule="evenodd"
         id="path60"
         inkscape:connector-curvature="0" /></clipPath><clipPath
       clipPathUnits="userSpaceOnUse"
       id="clipPath68"><path
         d="m 1677.55,5521.36 2407.83,0 0,964.44 -2407.83,0 0,-964.44 z"
         id="path70"
         inkscape:connector-curvature="0" /></clipPath><clipPath
       clipPathUnits="userSpaceOnUse"
       id="clipPath80"><path
         d="m 1677.55,6485.8 0,-964.44 2407.83,0 0,964.44 -2407.83,0 z m 1918.4,-543.84 7.64,-9.71 24.79,19.01 -23.34,-10.33 15.7,20.25 -24.79,-19.22 z"
         clip-rule="evenodd"
         id="path82"
         inkscape:connector-curvature="0" /></clipPath><clipPath
       clipPathUnits="userSpaceOnUse"
       id="clipPath90"><path
         d="m 1677.55,5521.36 2407.83,0 0,964.44 -2407.83,0 0,-964.44 z"
         id="path92"
         inkscape:connector-curvature="0" /></clipPath><clipPath
       clipPathUnits="userSpaceOnUse"
       id="clipPath102"><path
         d="m 1677.55,6485.8 0,-964.44 2407.83,0 0,964.44 -2407.83,0 z m 1974.39,-459.94 7.23,-10.13 25.21,18.8 -23.56,-9.92 16.13,19.85 -25.01,-18.6 z"
         clip-rule="evenodd"
         id="path104"
         inkscape:connector-curvature="0" /></clipPath><clipPath
       clipPathUnits="userSpaceOnUse"
       id="clipPath112"><path
         d="m 1677.55,5521.36 2407.83,0 0,964.44 -2407.83,0 0,-964.44 z"
         id="path114"
         inkscape:connector-curvature="0" /></clipPath><clipPath
       clipPathUnits="userSpaceOnUse"
       id="clipPath134"><path
         d="m 1677.55,6485.8 0,-964.44 2407.83,0 0,964.44 -2407.83,0 z m 1401.6,-194.01 -10.74,6.2 -15.71,-26.86 17.98,18.18 -7.23,-24.38 15.7,26.86 z"
         clip-rule="evenodd"
         id="path136"
         inkscape:connector-curvature="0" /></clipPath><clipPath
       clipPathUnits="userSpaceOnUse"
       id="clipPath144"><path
         d="m 1677.55,5521.36 2407.83,0 0,964.44 -2407.83,0 0,-964.44 z"
         id="path146"
         inkscape:connector-curvature="0" /></clipPath><clipPath
       clipPathUnits="userSpaceOnUse"
       id="clipPath184"><path
         d="m 0,360 5950,0 0,7700 L 0,8060 0,360 z"
         id="path186"
         inkscape:connector-curvature="0" /></clipPath><clipPath
       clipPathUnits="userSpaceOnUse"
       id="clipPath34-6"><path
         inkscape:connector-curvature="0"
         d="m 1677.55,5521.36 2407.83,0 0,964.44 -2407.83,0 0,-964.44 z"
         id="path36-1" /></clipPath><clipPath
       clipPathUnits="userSpaceOnUse"
       id="clipPath58-3"><path
         inkscape:connector-curvature="0"
         d="m 1677.55,6485.8 0,-964.44 2407.83,0 0,964.44 -2407.83,0 z m 1475.99,-128.92 -10.74,6.41 -15.71,-27.07 17.98,18.18 -7.44,-24.38 15.91,26.86 z"
         clip-rule="evenodd"
         id="path60-8" /></clipPath><clipPath
       clipPathUnits="userSpaceOnUse"
       id="clipPath68-2"><path
         inkscape:connector-curvature="0"
         d="m 1677.55,5521.36 2407.83,0 0,964.44 -2407.83,0 0,-964.44 z"
         id="path70-3" /></clipPath><clipPath
       clipPathUnits="userSpaceOnUse"
       id="clipPath80-6"><path
         inkscape:connector-curvature="0"
         d="m 1677.55,6485.8 0,-964.44 2407.83,0 0,964.44 -2407.83,0 z m 1918.4,-543.84 7.64,-9.71 24.79,19.01 -23.34,-10.33 15.7,20.25 -24.79,-19.22 z"
         clip-rule="evenodd"
         id="path82-3" /></clipPath><clipPath
       clipPathUnits="userSpaceOnUse"
       id="clipPath90-4"><path
         inkscape:connector-curvature="0"
         d="m 1677.55,5521.36 2407.83,0 0,964.44 -2407.83,0 0,-964.44 z"
         id="path92-5" /></clipPath><clipPath
       clipPathUnits="userSpaceOnUse"
       id="clipPath102-6"><path
         inkscape:connector-curvature="0"
         d="m 1677.55,6485.8 0,-964.44 2407.83,0 0,964.44 -2407.83,0 z m 1974.39,-459.94 7.23,-10.13 25.21,18.8 -23.56,-9.92 16.13,19.85 -25.01,-18.6 z"
         clip-rule="evenodd"
         id="path104-2" /></clipPath><clipPath
       clipPathUnits="userSpaceOnUse"
       id="clipPath112-4"><path
         inkscape:connector-curvature="0"
         d="m 1677.55,5521.36 2407.83,0 0,964.44 -2407.83,0 0,-964.44 z"
         id="path114-8" /></clipPath><clipPath
       clipPathUnits="userSpaceOnUse"
       id="clipPath134-0"><path
         inkscape:connector-curvature="0"
         d="m 1677.55,6485.8 0,-964.44 2407.83,0 0,964.44 -2407.83,0 z m 1401.6,-194.01 -10.74,6.2 -15.71,-26.86 17.98,18.18 -7.23,-24.38 15.7,26.86 z"
         clip-rule="evenodd"
         id="path136-6" /></clipPath><clipPath
       clipPathUnits="userSpaceOnUse"
       id="clipPath144-1"><path
         inkscape:connector-curvature="0"
         d="m 1677.55,5521.36 2407.83,0 0,964.44 -2407.83,0 0,-964.44 z"
         id="path146-9" /></clipPath></defs><sodipodi:namedview
     pagecolor="#ffffff"
     bordercolor="#666666"
     borderopacity="1"
     objecttolerance="10"
     gridtolerance="10"
     guidetolerance="10"
     inkscape:pageopacity="0"
     inkscape:pageshadow="2"
     inkscape:window-width="1920"
     inkscape:window-height="1145"
     id="namedview4"
     showgrid="false"
     fit-margin-top="0"
     fit-margin-left="0"
     fit-margin-right="0"
     fit-margin-bottom="0"
     inkscape:zoom="1.7938242"
     inkscape:cx="276.54052"
     inkscape:cy="201.2828"
     inkscape:window-x="-3"
     inkscape:window-y="-3"
     inkscape:window-maximized="1"
     inkscape:current-layer="g3546" /><g
     id="g10"
     inkscape:groupmode="layer"
     inkscape:label="attr"
     transform="matrix(1.25,0,0,-1.25,-29.729139,662.35233)"><g
       transform="translate(-63.253264,-150.94822)"
       id="g3546"><g
         transform="matrix(0.16757019,0,0,0.16757019,-194.61867,-405.75263)"
         id="g30"><g
           id="g32"
           clip-path="url(#clipPath34-6)"><path
             d="m 2654.01,5836.53 c 35.85,-13.98 65.5,-40.35 83.56,-74.32"
             style="fill:none;stroke:#000000;stroke-width:6.1990099;stroke-linecap:butt;stroke-linejoin:miter;stroke-miterlimit:10;stroke-opacity:1;stroke-dasharray:3.09951, 9.29853;stroke-dashoffset:9.29853"
             id="path38"
             inkscape:connector-curvature="0" /><path
             d="m 2830.51,6059.75 c 31.52,-0.55 60.17,-18.45 74.48,-46.54"
             style="fill:none;stroke:#000000;stroke-width:6.1990099;stroke-linecap:butt;stroke-linejoin:miter;stroke-miterlimit:10;stroke-opacity:1;stroke-dasharray:3.09951, 9.29853;stroke-dashoffset:9.29853"
             id="path40"
             inkscape:connector-curvature="0" /><path
             d="m 2765.48,6003.95 c 2.43,31.59 28.76,55.98 60.44,55.98 1.55,0 3.11,-0.06 4.65,-0.18"
             style="fill:none;stroke:#000000;stroke-width:6.1990099;stroke-linecap:butt;stroke-linejoin:miter;stroke-miterlimit:10;stroke-opacity:1;stroke-dasharray:3.09951, 9.29853;stroke-dashoffset:9.29853"
             id="path42"
             inkscape:connector-curvature="0" /><path
             d="m 3481.59,5827.23 c 35.84,-13.98 65.48,-40.34 83.55,-74.32"
             style="fill:none;stroke:#000000;stroke-width:6.1990099;stroke-linecap:butt;stroke-linejoin:miter;stroke-miterlimit:10;stroke-opacity:1;stroke-dasharray:3.09951, 9.29853;stroke-dashoffset:9.29853"
             id="path44"
             inkscape:connector-curvature="0" /><path
             d="m 3890.59,6301.44 c 5.46,37.42 30.18,69.22 65.09,83.76"
             style="fill:none;stroke:#000000;stroke-width:6.1990099;stroke-linecap:butt;stroke-linejoin:miter;stroke-miterlimit:10;stroke-opacity:1;stroke-dasharray:3.09951, 9.29853;stroke-dashoffset:9.29853"
             id="path46"
             inkscape:connector-curvature="0" /><path
             d="m 3955.7,6134.12 c -4.67,-1.36 -9.51,-2.06 -14.37,-2.06 -28.26,0 -51.18,22.92 -51.18,51.19 0,2.24 0.15,4.46 0.44,6.68"
             style="fill:none;stroke:#000000;stroke-width:6.1990099;stroke-linecap:butt;stroke-linejoin:miter;stroke-miterlimit:10;stroke-opacity:1;stroke-dasharray:3.09951, 9.29853;stroke-dashoffset:9.29853"
             id="path48"
             inkscape:connector-curvature="0" /><path
             d="m 1919.32,6478.17 232.46,-399.83 -232.46,-427.73 -232.46,427.73 232.46,399.83 z"
             style="fill:none;stroke:#000000;stroke-width:6.1990099;stroke-linecap:butt;stroke-linejoin:miter;stroke-miterlimit:10;stroke-opacity:1;stroke-dasharray:none"
             id="path50"
             inkscape:connector-curvature="0" /><path
             d="m 1965.81,6478.17 185.97,-325.44 -278.96,-502.12 -185.96,344.05 278.95,483.51 z"
             style="fill:none;stroke:#000000;stroke-width:6.1990099;stroke-linecap:butt;stroke-linejoin:miter;stroke-miterlimit:10;stroke-opacity:1;stroke-dasharray:18.5971;stroke-dashoffset:0"
             id="path52"
             inkscape:connector-curvature="0" /></g></g><g
         transform="matrix(0.16757019,0,0,0.16757019,-194.61867,-405.75263)"
         id="g54"><g
           id="g56"
           clip-path="url(#clipPath58-3)"><path
             d="m 2737.58,6394.5 195.27,-399.84 213.87,362.64"
             style="fill:none;stroke:#000000;stroke-width:6.1990099;stroke-linecap:butt;stroke-linejoin:miter;stroke-miterlimit:10;stroke-opacity:1;stroke-dasharray:18.5971;stroke-dashoffset:0"
             id="path62"
             inkscape:connector-curvature="0" /></g></g><g
         transform="matrix(0.16757019,0,0,0.16757019,-194.61867,-405.75263)"
         id="g64"><g
           id="g66"
           clip-path="url(#clipPath68-2)"><path
             d="m 3137.63,6330.02 7.44,24.38 -17.98,-18.18 10.54,-6.2"
             style="fill:#000000;fill-opacity:1;fill-rule:evenodd;stroke:none"
             id="path72"
             inkscape:connector-curvature="0" /><path
             d="m 3137.63,6330.02 7.44,24.38 -17.98,-18.18 10.54,-6.2 z"
             style="fill:none;stroke:#000000;stroke-width:1.54974997;stroke-linecap:butt;stroke-linejoin:miter;stroke-miterlimit:10;stroke-opacity:1;stroke-dasharray:none"
             id="path74"
             inkscape:connector-curvature="0" /></g></g><g
         transform="matrix(0.16757019,0,0,0.16757019,-194.61867,-405.75263)"
         id="g76"><g
           id="g78"
           clip-path="url(#clipPath80-6)"><path
             d="M 3602.34,6385.19 3890.6,6162.03 3602.34,5938.86"
             style="fill:none;stroke:#000000;stroke-width:6.1990099;stroke-linecap:butt;stroke-linejoin:miter;stroke-miterlimit:10;stroke-opacity:1;stroke-dasharray:none"
             id="path84"
             inkscape:connector-curvature="0" /></g></g><g
         transform="matrix(0.16757019,0,0,0.16757019,-194.61867,-405.75263)"
         id="g86"><g
           id="g88"
           clip-path="url(#clipPath90-4)"><path
             d="m 3620.74,5961.18 -15.7,-20.25 23.34,10.33 -7.64,9.92"
             style="fill:#000000;fill-opacity:1;fill-rule:evenodd;stroke:none"
             id="path94"
             inkscape:connector-curvature="0" /><path
             d="m 3620.74,5961.18 -15.7,-20.25 23.34,10.33 -7.64,9.92 z"
             style="fill:none;stroke:#000000;stroke-width:1.54974997;stroke-linecap:butt;stroke-linejoin:miter;stroke-miterlimit:10;stroke-opacity:1;stroke-dasharray:none"
             id="path96"
             inkscape:connector-curvature="0" /></g></g><g
         transform="matrix(0.16757019,0,0,0.16757019,-194.61867,-405.75263)"
         id="g98"><g
           id="g100"
           clip-path="url(#clipPath102-6)"><path
             d="m 3686.04,6450.28 269.65,-204.57 -297.55,-223.16"
             style="fill:none;stroke:#000000;stroke-width:6.1990099;stroke-linecap:butt;stroke-linejoin:miter;stroke-miterlimit:10;stroke-opacity:1;stroke-dasharray:18.5971;stroke-dashoffset:0"
             id="path106"
             inkscape:connector-curvature="0" /></g></g><g
         transform="matrix(0.16757019,0,0,0.16757019,-194.61867,-405.75263)"
         id="g108"><g
           id="g110"
           clip-path="url(#clipPath112-4)"><path
             d="m 3676.95,6044.46 -16.13,-19.85 23.56,9.92 -7.43,9.93"
             style="fill:#000000;fill-opacity:1;fill-rule:evenodd;stroke:none"
             id="path116"
             inkscape:connector-curvature="0" /><path
             d="m 3676.95,6044.46 -16.13,-19.85 23.56,9.92 -7.43,9.93 z"
             style="fill:none;stroke:#000000;stroke-width:1.54974997;stroke-linecap:butt;stroke-linejoin:miter;stroke-miterlimit:10;stroke-opacity:1;stroke-dasharray:none"
             id="path118"
             inkscape:connector-curvature="0" /><path
             d="m 1686.86,5650.61 464.926,0 0,827.566 -464.926,0 0,-827.566 z"
             style="fill:none;stroke:#000000;stroke-width:6.1990099;stroke-linecap:butt;stroke-linejoin:miter;stroke-miterlimit:10;stroke-opacity:1;stroke-dasharray:none"
             id="path120"
             inkscape:connector-curvature="0" /><path
             d="m 2653.9,5650.61 613.7,0"
             style="fill:none;stroke:#000000;stroke-width:6.1990099;stroke-linecap:butt;stroke-linejoin:miter;stroke-miterlimit:10;stroke-opacity:1;stroke-dasharray:none"
             id="path122"
             inkscape:connector-curvature="0" /><path
             d="m 2653.9,5650.61 595.11,743.89"
             style="fill:none;stroke:#000000;stroke-width:6.1990099;stroke-linecap:butt;stroke-linejoin:miter;stroke-miterlimit:10;stroke-opacity:1;stroke-dasharray:none"
             id="path124"
             inkscape:connector-curvature="0" /><path
             d="m 2830.57,5873.77 0,278.96"
             style="fill:none;stroke:#000000;stroke-width:6.1990099;stroke-linecap:butt;stroke-linejoin:miter;stroke-miterlimit:10;stroke-opacity:1;stroke-dasharray:3.09951, 9.29853;stroke-dashoffset:9.29853"
             id="path126"
             inkscape:connector-curvature="0" /><path
             d="m 2653.9,5650.61 0,260.36"
             style="fill:none;stroke:#000000;stroke-width:6.1990099;stroke-linecap:butt;stroke-linejoin:miter;stroke-miterlimit:10;stroke-opacity:1;stroke-dasharray:3.09951, 9.29853;stroke-dashoffset:9.29853"
             id="path128"
             inkscape:connector-curvature="0" /></g></g><g
         transform="matrix(0.16757019,0,0,0.16757019,-194.61867,-405.75263)"
         id="g130"><g
           id="g132"
           clip-path="url(#clipPath134-0)"><path
             d="m 2626,6292.21 204.57,-418.44 241.77,418.44"
             style="fill:none;stroke:#000000;stroke-width:6.1990099;stroke-linecap:butt;stroke-linejoin:miter;stroke-miterlimit:10;stroke-opacity:1;stroke-dasharray:none"
             id="path138"
             inkscape:connector-curvature="0" /></g></g><g
         transform="matrix(0.16757019,0,0,0.16757019,-194.61867,-405.75263)"
         id="g140"><g
           id="g142"
           clip-path="url(#clipPath144-1)"><path
             d="m 3063.45,6264.93 7.23,24.38 -17.98,-18.18 10.75,-6.2"
             style="fill:#000000;fill-opacity:1;fill-rule:evenodd;stroke:none"
             id="path148"
             inkscape:connector-curvature="0" /><path
             d="m 3063.45,6264.93 7.23,24.38 -17.98,-18.18 10.75,-6.2 z"
             style="fill:none;stroke:#000000;stroke-width:1.54974997;stroke-linecap:butt;stroke-linejoin:miter;stroke-miterlimit:10;stroke-opacity:1;stroke-dasharray:none"
             id="path150"
             inkscape:connector-curvature="0" /><path
             d="m 3481.47,5650.61 557.91,0"
             style="fill:none;stroke:#000000;stroke-width:6.1990099;stroke-linecap:butt;stroke-linejoin:miter;stroke-miterlimit:10;stroke-opacity:1;stroke-dasharray:none"
             id="path152"
             inkscape:connector-curvature="0" /><path
             d="m 3481.47,5650.61 0,269.66"
             style="fill:none;stroke:#000000;stroke-width:6.1990099;stroke-linecap:butt;stroke-linejoin:miter;stroke-miterlimit:10;stroke-opacity:1;stroke-dasharray:3.09951, 9.29853;stroke-dashoffset:9.29853"
             id="path154"
             inkscape:connector-curvature="0" /><path
             d="m 3481.47,5650.61 595.1,743.89"
             style="fill:none;stroke:#000000;stroke-width:6.1990099;stroke-linecap:butt;stroke-linejoin:miter;stroke-miterlimit:10;stroke-opacity:1;stroke-dasharray:none"
             id="path156"
             inkscape:connector-curvature="0" /><path
             d="m 3955.69,6413.08 0,-325.44"
             style="fill:none;stroke:#000000;stroke-width:6.1990099;stroke-linecap:butt;stroke-linejoin:miter;stroke-miterlimit:10;stroke-opacity:1;stroke-dasharray:3.09951, 9.29853;stroke-dashoffset:9.29853"
             id="path158"
             inkscape:connector-curvature="0" /><g
             id="g160"
             transform="scale(10,10)"><text
   transform="matrix(1,0,0,-1,389.99,639.45)"
   id="text162"><tspan
     style="font-size:9.29852009px;font-variant:normal;font-weight:normal;writing-mode:lr-tb;fill:#000000;fill-opacity:1;fill-rule:nonzero;stroke:none;font-family:Symbol;-inkscape-font-specification:Symbol"
     x="0"
     y="0"
     id="tspan164">θ</tspan><tspan
     style="font-size:9.29852009px;font-variant:normal;font-weight:normal;writing-mode:lr-tb;fill:#000000;fill-opacity:1;fill-rule:nonzero;stroke:none;font-family:Symbol;-inkscape-font-specification:Symbol"
     x="0"
     y="33.474998"
     id="tspan166">θ</tspan><tspan
     style="font-size:9.29852009px;font-variant:normal;font-weight:normal;writing-mode:lr-tb;fill:#000000;fill-opacity:1;fill-rule:nonzero;stroke:none;font-family:Symbol;-inkscape-font-specification:Symbol"
     x="-120.881"
     y="55.791401"
     id="tspan168">α</tspan><tspan
     style="font-size:9.29852009px;font-variant:normal;font-weight:normal;writing-mode:lr-tb;fill:#000000;fill-opacity:1;fill-rule:nonzero;stroke:none;font-family:Symbol;-inkscape-font-specification:Symbol"
     x="-38.124001"
     y="56.721088"
     id="tspan170">α</tspan><tspan
     style="font-size:9.29852009px;font-variant:normal;font-weight:normal;writing-mode:lr-tb;fill:#000000;fill-opacity:1;fill-rule:nonzero;stroke:none;font-family:Symbol;-inkscape-font-specification:Symbol"
     x="-105.0732"
     y="34.40469"
     id="tspan172">θ</tspan><tspan
     style="font-size:9.29852009px;font-variant:normal;font-weight:normal;writing-mode:lr-tb;fill:#000000;fill-opacity:1;fill-rule:nonzero;stroke:none;font-family:Symbol;-inkscape-font-specification:Symbol"
     x="-113.44195"
     y="34.487499"
     id="tspan174">θ</tspan></text>

<text
   transform="matrix(1,0,0,-1,167.75505,554.8332)"
   id="text176"><tspan
     style="font-size:9.29852009px;font-style:italic;font-variant:normal;writing-mode:lr-tb;fill:#000000;fill-opacity:1;fill-rule:nonzero;stroke:none;font-family:Times;-inkscape-font-specification:Times-Italic"
     x="0 3.0964072 7.745667 96.704605 99.801018 104.45027 180.39128 183.4877 187.61624"
     y="0"
     sodipodi:role="line"
     id="tspan178">(a)(b)(c)</tspan></text>

</g></g></g></g></g></svg>