<?xml version="1.0" encoding="UTF-8" standalone="no"?>
<!-- Created with Inkscape (http://www.inkscape.org/) -->

<svg
   xmlns:dc="http://purl.org/dc/elements/1.1/"
   xmlns:cc="http://creativecommons.org/ns#"
   xmlns:rdf="http://www.w3.org/1999/02/22-rdf-syntax-ns#"
   xmlns:svg="http://www.w3.org/2000/svg"
   xmlns="http://www.w3.org/2000/svg"
   xmlns:sodipodi="http://sodipodi.sourceforge.net/DTD/sodipodi-0.dtd"
   xmlns:inkscape="http://www.inkscape.org/namespaces/inkscape"
   id="svg2"
   version="1.1"
   inkscape:version="0.48.3.1 r9886"
   width="433.94531"
   height="141.93318"
   xml:space="preserve"
   sodipodi:docname="reflection.svg"><metadata
     id="metadata8"><rdf:RDF><cc:Work
         rdf:about=""><dc:format>image/svg+xml</dc:format><dc:type
           rdf:resource="http://purl.org/dc/dcmitype/StillImage" /><dc:title /></cc:Work></rdf:RDF></metadata><defs
     id="defs6"><marker
   inkscape:stockid="Arrow2Mstart"
   orient="auto"
   refY="0"
   refX="0"
   id="Arrow2Mstart"
   style="overflow:visible"><path
     id="path3947"
     style="fill-rule:evenodd;stroke-width:0.625;stroke-linejoin:round"
     d="M 8.7185878,4.0337352 -2.2072895,0.01601326 8.7185884,-4.0017078 c -1.7454984,2.3720609 -1.7354408,5.6174519 -6e-7,8.035443 z"
     transform="scale(0.6,0.6)"
     inkscape:connector-curvature="0" /></marker><marker
   inkscape:stockid="Arrow2Mend"
   orient="auto"
   refY="0"
   refX="0"
   id="Arrow2Mend"
   style="overflow:visible"><path
     id="path3950"
     style="fill-rule:evenodd;stroke-width:0.625;stroke-linejoin:round"
     d="M 8.7185878,4.0337352 -2.2072895,0.01601326 8.7185884,-4.0017078 c -1.7454984,2.3720609 -1.7354408,5.6174519 -6e-7,8.035443 z"
     transform="scale(-0.6,-0.6)"
     inkscape:connector-curvature="0" /></marker><marker
   inkscape:stockid="Arrow2Sstart"
   orient="auto"
   refY="0"
   refX="0"
   id="Arrow2Sstart"
   style="overflow:visible"><path
     id="path3953"
     style="fill-rule:evenodd;stroke-width:0.625;stroke-linejoin:round"
     d="M 8.7185878,4.0337352 -2.2072895,0.01601326 8.7185884,-4.0017078 c -1.7454984,2.3720609 -1.7354408,5.6174519 -6e-7,8.035443 z"
     transform="matrix(0.3,0,0,0.3,-0.69,0)"
     inkscape:connector-curvature="0" /></marker><marker
   inkscape:stockid="Arrow2Lend"
   orient="auto"
   refY="0"
   refX="0"
   id="Arrow2Lend"
   style="overflow:visible"><path
     id="path3944"
     style="fill-rule:evenodd;stroke-width:0.625;stroke-linejoin:round"
     d="M 8.7185878,4.0337352 -2.2072895,0.01601326 8.7185884,-4.0017078 c -1.7454984,2.3720609 -1.7354408,5.6174519 -6e-7,8.035443 z"
     transform="matrix(-1.1,0,0,-1.1,-1.1,0)"
     inkscape:connector-curvature="0" /></marker><marker
   inkscape:stockid="Arrow2Send"
   orient="auto"
   refY="0"
   refX="0"
   id="Arrow2Send"
   style="overflow:visible"><path
     id="path3956"
     style="fill-rule:evenodd;stroke-width:0.625;stroke-linejoin:round"
     d="M 8.7185878,4.0337352 -2.2072895,0.01601326 8.7185884,-4.0017078 c -1.7454984,2.3720609 -1.7354408,5.6174519 -6e-7,8.035443 z"
     transform="matrix(-0.3,0,0,-0.3,0.69,0)"
     inkscape:connector-curvature="0" /></marker><clipPath
   clipPathUnits="userSpaceOnUse"
   id="clipPath18"><path
     d="m 0,360 5950,0 0,7700 L 0,8060 0,360 z"
     id="path20"
     inkscape:connector-curvature="0" /></clipPath><clipPath
   clipPathUnits="userSpaceOnUse"
   id="clipPath34"><path
     d="m 1677.55,5521.36 2407.83,0 0,964.44 -2407.83,0 0,-964.44 z"
     id="path36"
     inkscape:connector-curvature="0" /></clipPath><clipPath
   clipPathUnits="userSpaceOnUse"
   id="clipPath58"><path
     d="m 1677.55,6485.8 0,-964.44 2407.83,0 0,964.44 -2407.83,0 z m 1475.99,-128.92 -10.74,6.41 -15.71,-27.07 17.98,18.18 -7.44,-24.38 15.91,26.86 z"
     clip-rule="evenodd"
     id="path60"
     inkscape:connector-curvature="0" /></clipPath><clipPath
   clipPathUnits="userSpaceOnUse"
   id="clipPath68"><path
     d="m 1677.55,5521.36 2407.83,0 0,964.44 -2407.83,0 0,-964.44 z"
     id="path70"
     inkscape:connector-curvature="0" /></clipPath><clipPath
   clipPathUnits="userSpaceOnUse"
   id="clipPath80"><path
     d="m 1677.55,6485.8 0,-964.44 2407.83,0 0,964.44 -2407.83,0 z m 1918.4,-543.84 7.64,-9.71 24.79,19.01 -23.34,-10.33 15.7,20.25 -24.79,-19.22 z"
     clip-rule="evenodd"
     id="path82"
     inkscape:connector-curvature="0" /></clipPath><clipPath
   clipPathUnits="userSpaceOnUse"
   id="clipPath90"><path
     d="m 1677.55,5521.36 2407.83,0 0,964.44 -2407.83,0 0,-964.44 z"
     id="path92"
     inkscape:connector-curvature="0" /></clipPath><clipPath
   clipPathUnits="userSpaceOnUse"
   id="clipPath102"><path
     d="m 1677.55,6485.8 0,-964.44 2407.83,0 0,964.44 -2407.83,0 z m 1974.39,-459.94 7.23,-10.13 25.21,18.8 -23.56,-9.92 16.13,19.85 -25.01,-18.6 z"
     clip-rule="evenodd"
     id="path104"
     inkscape:connector-curvature="0" /></clipPath><clipPath
   clipPathUnits="userSpaceOnUse"
   id="clipPath112"><path
     d="m 1677.55,5521.36 2407.83,0 0,964.44 -2407.83,0 0,-964.44 z"
     id="path114"
     inkscape:connector-curvature="0" /></clipPath><clipPath
   clipPathUnits="userSpaceOnUse"
   id="clipPath134"><path
     d="m 1677.55,6485.8 0,-964.44 2407.83,0 0,964.44 -2407.83,0 z m 1401.6,-194.01 -10.74,6.2 -15.71,-26.86 17.98,18.18 -7.23,-24.38 15.7,26.86 z"
     clip-rule="evenodd"
     id="path136"
     inkscape:connector-curvature="0" /></clipPath><clipPath
   clipPathUnits="userSpaceOnUse"
   id="clipPath144"><path
     d="m 1677.55,5521.36 2407.83,0 0,964.44 -2407.83,0 0,-964.44 z"
     id="path146"
     inkscape:connector-curvature="0" /></clipPath><clipPath
   clipPathUnits="userSpaceOnUse"
   id="clipPath184"><path
     d="m 0,360 5950,0 0,7700 L 0,8060 0,360 z"
     id="path186"
     inkscape:connector-curvature="0" /></clipPath><clipPath
   clipPathUnits="userSpaceOnUse"
   id="clipPath34-6"><path
     inkscape:connector-curvature="0"
     d="m 1677.55,5521.36 2407.83,0 0,964.44 -2407.83,0 0,-964.44 z"
     id="path36-1" /></clipPath><clipPath
   clipPathUnits="userSpaceOnUse"
   id="clipPath58-3"><path
     inkscape:connector-curvature="0"
     d="m 1677.55,6485.8 0,-964.44 2407.83,0 0,964.44 -2407.83,0 z m 1475.99,-128.92 -10.74,6.41 -15.71,-27.07 17.98,18.18 -7.44,-24.38 15.91,26.86 z"
     clip-rule="evenodd"
     id="path60-8" /></clipPath><clipPath
   clipPathUnits="userSpaceOnUse"
   id="clipPath68-2"><path
     inkscape:connector-curvature="0"
     d="m 1677.55,5521.36 2407.83,0 0,964.44 -2407.83,0 0,-964.44 z"
     id="path70-3" /></clipPath><clipPath
   clipPathUnits="userSpaceOnUse"
   id="clipPath80-6"><path
     inkscape:connector-curvature="0"
     d="m 1677.55,6485.8 0,-964.44 2407.83,0 0,964.44 -2407.83,0 z m 1918.4,-543.84 7.64,-9.71 24.79,19.01 -23.34,-10.33 15.7,20.25 -24.79,-19.22 z"
     clip-rule="evenodd"
     id="path82-3" /></clipPath><clipPath
   clipPathUnits="userSpaceOnUse"
   id="clipPath90-4"><path
     inkscape:connector-curvature="0"
     d="m 1677.55,5521.36 2407.83,0 0,964.44 -2407.83,0 0,-964.44 z"
     id="path92-5" /></clipPath><clipPath
   clipPathUnits="userSpaceOnUse"
   id="clipPath102-6"><path
     inkscape:connector-curvature="0"
     d="m 1677.55,6485.8 0,-964.44 2407.83,0 0,964.44 -2407.83,0 z m 1974.39,-459.94 7.23,-10.13 25.21,18.8 -23.56,-9.92 16.13,19.85 -25.01,-18.6 z"
     clip-rule="evenodd"
     id="path104-2" /></clipPath><clipPath
   clipPathUnits="userSpaceOnUse"
   id="clipPath112-4"><path
     inkscape:connector-curvature="0"
     d="m 1677.55,5521.36 2407.83,0 0,964.44 -2407.83,0 0,-964.44 z"
     id="path114-8" /></clipPath><clipPath
   clipPathUnits="userSpaceOnUse"
   id="clipPath134-0"><path
     inkscape:connector-curvature="0"
     d="m 1677.55,6485.8 0,-964.44 2407.83,0 0,964.44 -2407.83,0 z m 1401.6,-194.01 -10.74,6.2 -15.71,-26.86 17.98,18.18 -7.23,-24.38 15.7,26.86 z"
     clip-rule="evenodd"
     id="path136-6" /></clipPath><clipPath
   clipPathUnits="userSpaceOnUse"
   id="clipPath144-1"><path
     inkscape:connector-curvature="0"
     d="m 1677.55,5521.36 2407.83,0 0,964.44 -2407.83,0 0,-964.44 z"
     id="path146-9" /></clipPath>


</defs><sodipodi:namedview
     pagecolor="#ffffff"
     bordercolor="#666666"
     borderopacity="1"
     objecttolerance="10"
     gridtolerance="10"
     guidetolerance="10"
     inkscape:pageopacity="0"
     inkscape:pageshadow="2"
     inkscape:window-width="1920"
     inkscape:window-height="1145"
     id="namedview4"
     showgrid="false"
     fit-margin-top="0"
     fit-margin-left="0"
     fit-margin-right="0"
     fit-margin-bottom="0"
     inkscape:zoom="2.5368505"
     inkscape:cx="238.42973"
     inkscape:cy="54.668136"
     inkscape:window-x="-3"
     inkscape:window-y="-3"
     inkscape:window-maximized="1"
     inkscape:current-layer="g3546"
     showguides="true"
     inkscape:guide-bbox="true"><inkscape:grid
       type="xygrid"
       id="grid5473"
       empspacing="5"
       visible="true"
       enabled="true"
       snapvisiblegridlinesonly="true"
       originx="-11.282406px"
       originy="-24.306988px" /><sodipodi:guide
       orientation="0,1"
       position="349.53258,-48.775381"
       id="guide8334" /></sodipodi:namedview><g
     id="g10"
     inkscape:groupmode="layer"
     inkscape:label="attr"
     transform="matrix(1.25,0,0,-1.25,-41.011545,628.38646)"><g
       transform="translate(-63.253264,-150.94822)"
       id="g3546">






<g
   id="g4262"><text
     transform="scale(1,-1)"
     sodipodi:linespacing="125%"
     id="text5481"
     y="-540.9577"
     x="142.7834"
     style="font-size:6.4000001px;font-style:normal;font-weight:normal;line-height:125%;letter-spacing:0px;word-spacing:0px;fill:#000000;fill-opacity:1;stroke:none;font-family:Sans"
     xml:space="preserve"><tspan
       y="-540.9577"
       x="142.7834"
       id="tspan5483"
       sodipodi:role="line">(a)</tspan></text>
<path
     inkscape:connector-curvature="0"
     id="path3147"
     d="m 96.057759,652.66525 90.978821,0"
     style="fill:none;stroke:#000000;stroke-width:0.80000001px;stroke-linecap:butt;stroke-linejoin:miter;stroke-opacity:1" /><path
     inkscape:connector-curvature="0"
     id="path3149"
     d="m 119.03658,652.66525 48.87951,-70.00807"
     style="fill:none;stroke:#000000;stroke-width:0.80000001;stroke-linecap:butt;stroke-linejoin:miter;stroke-miterlimit:4;stroke-opacity:1;stroke-dasharray:none;marker-end:url(#Arrow2Mend)" /><path
     inkscape:connector-curvature="0"
     id="path5095"
     d="m 128.03613,573.48586 0,34.37333"
     style="fill:none;stroke:#000000;stroke-width:0.80000001px;stroke-linecap:butt;stroke-linejoin:miter;stroke-opacity:1;marker-end:url(#Arrow2Mend)" /><text
     transform="scale(1,-1)"
     sodipodi:linespacing="125%"
     id="text5465"
     y="-578.99146"
     x="129.09857"
     style="font-size:6.4000001px;font-style:normal;font-weight:normal;line-height:125%;letter-spacing:0px;word-spacing:0px;fill:#000000;fill-opacity:1;stroke:none;font-family:Sans"
     xml:space="preserve"><tspan
       id="tspan5469"
       y="-578.99146"
       x="129.09857"
       sodipodi:role="line">$\vec{\Omega}$</tspan></text>
<path
     sodipodi:end="0.95910432"
     sodipodi:start="0"
     transform="matrix(1.0065773,0,0,-1.0065772,78.573483,688.30285)"
     d="m 62.084856,35.206039 c 0,7.199056 -3.508845,13.946293 -9.40255,18.080376 L 40,35.206039 z"
     sodipodi:ry="22.084856"
     sodipodi:rx="22.084856"
     sodipodi:cy="35.206039"
     sodipodi:cx="40"
     id="path5475"
     style="fill:none;stroke:#002020;stroke-width:0.39738628;stroke-linecap:round;stroke-linejoin:bevel;stroke-miterlimit:4;stroke-opacity:1;stroke-dasharray:none;stroke-dashoffset:0"
     sodipodi:type="arc" /><text
     transform="scale(1,-1)"
     sodipodi:linespacing="125%"
     id="text5477"
     y="-640.66522"
     x="129.2937"
     style="font-size:6.4000001px;font-style:normal;font-weight:normal;line-height:125%;letter-spacing:0px;word-spacing:0px;fill:#000000;fill-opacity:1;stroke:none;font-family:Sans"
     xml:space="preserve"><tspan
       y="-640.66522"
       x="129.2937"
       id="tspan5479"
       sodipodi:role="line">$\theta$</tspan></text>
<text
     transform="scale(1,-1)"
     sodipodi:linespacing="125%"
     id="text5541"
     y="-596.66522"
     x="159.03658"
     style="font-size:6.4000001px;font-style:normal;font-weight:normal;line-height:125%;letter-spacing:0px;word-spacing:0px;fill:#000000;fill-opacity:1;stroke:none;font-family:Sans"
     xml:space="preserve"><tspan
       y="-596.66522"
       x="159.03658"
       id="tspan5543"
       sodipodi:role="line">$\vec{c}_g$</tspan></text>
<path
     sodipodi:nodetypes="ccc"
     inkscape:connector-curvature="0"
     id="path5809"
     d="m 304.00532,623.39327 -60.11883,-70.72802 64.78215,0"
     style="fill:none;stroke:#000000;stroke-width:0.93266237px;stroke-linecap:butt;stroke-linejoin:miter;stroke-opacity:1" /><path
     sodipodi:nodetypes="ccc"
     inkscape:connector-curvature="0"
     id="path5848"
     d="m 250.32557,632.09401 20,-48 24.40697,58.57672"
     style="fill:none;stroke:#000000;stroke-width:0.80000001px;stroke-linecap:butt;stroke-linejoin:miter;stroke-opacity:1;marker-end:url(#Arrow2Mend)" /><path
     sodipodi:nodetypes="ccc"
     inkscape:connector-curvature="0"
     id="path5848-5"
     d="m 254.56234,636.63771 20,-48 26.62365,63.89675"
     style="fill:none;stroke:#000000;stroke-width:0.80000001;stroke-linecap:butt;stroke-linejoin:miter;stroke-miterlimit:4;stroke-opacity:1;stroke-dasharray:0.8, 0.8;stroke-dashoffset:0;marker-end:url(#Arrow2Mend)" /><path
     inkscape:connector-curvature="0"
     id="path5870"
     d="m 243.88649,552.66525 0,36"
     style="fill:none;stroke:#000000;stroke-width:0.80000001;stroke-linecap:butt;stroke-linejoin:miter;stroke-miterlimit:4;stroke-opacity:1;stroke-dasharray:0.8, 0.8;stroke-dashoffset:0" /><path
     sodipodi:open="true"
     sodipodi:end="5.4227886"
     sodipodi:start="4.7207994"
     transform="matrix(0.8,0,0,-0.8,87.88649,680.83008)"
     d="m 195.30497,123.94586 c 8.57295,0.0721 16.84307,3.17938 23.34246,8.77032"
     sodipodi:ry="36.261463"
     sodipodi:rx="36.261463"
     sodipodi:cy="160.20604"
     sodipodi:cx="195"
     id="path5872"
     style="fill:none;stroke:#002020;stroke-width:1;stroke-linecap:round;stroke-linejoin:bevel;stroke-miterlimit:4;stroke-opacity:1;stroke-dasharray:1, 2;stroke-dashoffset:0"
     sodipodi:type="arc" /><text
     transform="scale(1,-1)"
     sodipodi:linespacing="125%"
     id="text5874"
     y="-567.02191"
     x="246.56233"
     style="font-size:6.4000001px;font-style:normal;font-weight:normal;line-height:125%;letter-spacing:0px;word-spacing:0px;fill:#000000;fill-opacity:1;stroke:none;font-family:Sans"
     xml:space="preserve"><tspan
       y="-567.02191"
       x="246.56233"
       id="tspan5876"
       sodipodi:role="line">$\alpha$</tspan></text>
<path
     inkscape:connector-curvature="0"
     id="path5878"
     d="m 270.15975,583.26255 0,42.88783"
     style="fill:none;stroke:#000000;stroke-width:0.40000001;stroke-linecap:butt;stroke-linejoin:miter;stroke-miterlimit:4;stroke-opacity:1;stroke-dasharray:none;marker-start:none" /><text
     transform="scale(1,-1)"
     sodipodi:linespacing="125%"
     id="text6066"
     y="-608.52222"
     x="272.18552"
     style="font-size:6.4000001px;font-style:normal;font-weight:normal;line-height:125%;letter-spacing:0px;word-spacing:0px;fill:#000000;fill-opacity:1;stroke:none;font-family:Sans"
     xml:space="preserve"><tspan
       y="-608.52222"
       x="272.18552"
       id="tspan6068"
       sodipodi:role="line">$\beta$</tspan></text>
<path
     inkscape:connector-curvature="0"
     id="path6092"
     d="m 270.40159,618.77966 c 0,0 6.46663,1.56091 12.71028,-3.23332"
     style="fill:none;stroke:#000000;stroke-width:0.40000001;stroke-linecap:butt;stroke-linejoin:miter;stroke-miterlimit:4;stroke-opacity:1;stroke-dasharray:none" /><text
     transform="scale(1,-1)"
     sodipodi:linespacing="125%"
     id="text5481-8"
     y="-540.95459"
     x="272.96475"
     style="font-size:6.4000001px;font-style:normal;font-weight:normal;line-height:125%;letter-spacing:0px;word-spacing:0px;fill:#000000;fill-opacity:1;stroke:none;font-family:Sans"
     xml:space="preserve"><tspan
       y="-540.95459"
       x="272.96475"
       id="tspan5483-8"
       sodipodi:role="line">(b)</tspan></text>
<path
     sodipodi:nodetypes="ccc"
     inkscape:connector-curvature="0"
     id="path5809-2"
     d="m 438.54188,622.6592 -60.11883,-70.72801 64.78215,0"
     style="fill:none;stroke:#000000;stroke-width:0.93266237px;stroke-linecap:butt;stroke-linejoin:miter;stroke-opacity:1" /><path
     sodipodi:nodetypes="ccc"
     inkscape:connector-curvature="0"
     id="path5848-56"
     d="m 378.52154,588.69983 48,20 -58.57672,24.40697"
     style="fill:none;stroke:#000000;stroke-width:0.80000001px;stroke-linecap:butt;stroke-linejoin:miter;stroke-opacity:1;marker-start:url(#Arrow2Mstart);marker-end:none" /><path
     inkscape:connector-curvature="0"
     id="path5870-5"
     d="m 378.42304,551.93118 0,36"
     style="fill:none;stroke:#000000;stroke-width:0.80000001;stroke-linecap:butt;stroke-linejoin:miter;stroke-miterlimit:4;stroke-opacity:1;stroke-dasharray:0.8, 0.8;stroke-dashoffset:0" /><path
     sodipodi:open="true"
     sodipodi:end="5.4227886"
     sodipodi:start="4.7207994"
     transform="matrix(0.8,0,0,-0.8,222.42304,680.09601)"
     d="m 195.30497,123.94586 c 8.57295,0.0721 16.84307,3.17938 23.34246,8.77032"
     sodipodi:ry="36.261463"
     sodipodi:rx="36.261463"
     sodipodi:cy="160.20604"
     sodipodi:cx="195"
     id="path5872-1"
     style="fill:none;stroke:#002020;stroke-width:1;stroke-linecap:round;stroke-linejoin:bevel;stroke-miterlimit:4;stroke-opacity:1;stroke-dasharray:1, 2;stroke-dashoffset:0"
     sodipodi:type="arc" /><text
     transform="scale(1,-1)"
     sodipodi:linespacing="125%"
     id="text5874-9"
     y="-566.28784"
     x="383.15332"
     style="font-size:6.4000001px;font-style:normal;font-weight:normal;line-height:125%;letter-spacing:0px;word-spacing:0px;fill:#000000;fill-opacity:1;stroke:none;font-family:Sans"
     xml:space="preserve"><tspan
       y="-566.28784"
       x="383.15332"
       id="tspan5876-3"
       sodipodi:role="line">$\alpha$</tspan></text>
<text
     transform="scale(1,-1)"
     sodipodi:linespacing="125%"
     id="text6066-9"
     y="-616.1825"
     x="416.79034"
     style="font-size:6.4000001px;font-style:normal;font-weight:normal;line-height:125%;letter-spacing:0px;word-spacing:0px;fill:#000000;fill-opacity:1;stroke:none;font-family:Sans"
     xml:space="preserve"><tspan
       y="-616.1825"
       x="416.79034"
       id="tspan6068-6"
       sodipodi:role="line">$\beta$</tspan></text>
<path
     sodipodi:nodetypes="ccc"
     inkscape:connector-curvature="0"
     id="path5848-56-3"
     d="m 375.79279,584.86812 48,20 -58.57672,24.40697"
     style="fill:none;stroke:#000000;stroke-width:0.80000001;stroke-linecap:butt;stroke-linejoin:miter;stroke-miterlimit:4;stroke-opacity:1;stroke-dasharray:0.8, 0.8;stroke-dashoffset:0;marker-start:url(#Arrow2Mstart);marker-end:none" /><text
     transform="scale(1,-1)"
     sodipodi:linespacing="125%"
     id="text5481-6"
     y="-540.9577"
     x="406.35318"
     style="font-size:6.4000001px;font-style:normal;font-weight:normal;line-height:125%;letter-spacing:0px;word-spacing:0px;fill:#000000;fill-opacity:1;stroke:none;font-family:Sans"
     xml:space="preserve"><tspan
       y="-540.9577"
       x="406.35318"
       id="tspan5483-4"
       sodipodi:role="line">(c)</tspan></text>
<path
     sodipodi:nodetypes="cc"
     inkscape:connector-curvature="0"
     id="path8273"
     d="m 426.64622,636.08794 c 0.44598,-1.11493 0,-27.11785 0,-27.11785"
     style="fill:none;stroke:#000000;stroke-width:0.40000001;stroke-linecap:butt;stroke-linejoin:miter;stroke-miterlimit:4;stroke-opacity:1;stroke-dasharray:none" /><path
     sodipodi:nodetypes="cc"
     inkscape:connector-curvature="0"
     id="path8275"
     d="m 426.42027,629.22738 c 0,0 -11.82569,-2.83817 -16.24062,-12.92942"
     style="fill:none;stroke:#000000;stroke-width:0.40000001;stroke-linecap:butt;stroke-linejoin:miter;stroke-miterlimit:4;stroke-opacity:1;stroke-dasharray:none" /></g></g></g></svg>