<?xml version="1.0" encoding="UTF-8" standalone="no"?>
<!-- Created with Inkscape (http://www.inkscape.org/) -->

<svg
   xmlns:dc="http://purl.org/dc/elements/1.1/"
   xmlns:cc="http://creativecommons.org/ns#"
   xmlns:rdf="http://www.w3.org/1999/02/22-rdf-syntax-ns#"
   xmlns:svg="http://www.w3.org/2000/svg"
   xmlns="http://www.w3.org/2000/svg"
   xmlns:sodipodi="http://sodipodi.sourceforge.net/DTD/sodipodi-0.dtd"
   xmlns:inkscape="http://www.inkscape.org/namespaces/inkscape"
   id="svg2"
   version="1.1"
   inkscape:version="0.48.3.1 r9886"
   width="408.33249"
   height="189.54124"
   xml:space="preserve"
   sodipodi:docname="paper.svg"><metadata
     id="metadata8"><rdf:RDF><cc:Work
         rdf:about=""><dc:format>image/svg+xml</dc:format><dc:type
           rdf:resource="http://purl.org/dc/dcmitype/StillImage" /><dc:title></dc:title></cc:Work></rdf:RDF></metadata><defs
     id="defs6"><clipPath
       clipPathUnits="userSpaceOnUse"
       id="clipPath18"><path
         d="m 0,360 5950,0 0,7700 L 0,8060 0,360 z"
         id="path20"
         inkscape:connector-curvature="0" /></clipPath><clipPath
       clipPathUnits="userSpaceOnUse"
       id="clipPath56"><path
         d="m 1331.14,5653.12 3266.66,0 0,1516.33 -3266.66,0 0,-1516.33 z"
         id="path58"
         inkscape:connector-curvature="0" /></clipPath><clipPath
       clipPathUnits="userSpaceOnUse"
       id="clipPath66"><path
         d="m 1331.14,5707.17 3266.66,0 0,1462.11 -3266.66,0 0,-1462.11 z"
         id="path68"
         inkscape:connector-curvature="0" /></clipPath><clipPath
       clipPathUnits="userSpaceOnUse"
       id="clipPath76"><path
         d="m 0,360 5950,0 0,7700 L 0,8060 0,360 z"
         id="path78"
         inkscape:connector-curvature="0" /></clipPath><clipPath
       clipPathUnits="userSpaceOnUse"
       id="clipPath178"><path
         d="m 1743.36,5867.5 2731.36,0 0,1192.39 -2731.36,0 0,-1192.39 z"
         id="path180"
         inkscape:connector-curvature="0" /></clipPath><clipPath
       clipPathUnits="userSpaceOnUse"
       id="clipPath188"><path
         d="m 0,360 5950,0 0,7700 L 0,8060 0,360 z"
         id="path190"
         inkscape:connector-curvature="0" /></clipPath><clipPath
       clipPathUnits="userSpaceOnUse"
       id="clipPath1150"><path
         d="m 0,360 5950,0 0,5950 L 0,6310 0,360 z"
         id="path1152"
         inkscape:connector-curvature="0" /></clipPath><clipPath
       clipPathUnits="userSpaceOnUse"
       id="clipPath1166"><path
         d="m 0,360 5950,0 0,7700 L 0,8060 0,360 z"
         id="path1168"
         inkscape:connector-curvature="0" /></clipPath></defs><sodipodi:namedview
     pagecolor="#ffffff"
     bordercolor="#666666"
     borderopacity="1"
     objecttolerance="10"
     gridtolerance="10"
     guidetolerance="10"
     inkscape:pageopacity="0"
     inkscape:pageshadow="2"
     inkscape:window-width="1280"
     inkscape:window-height="1004"
     id="namedview4"
     showgrid="false"
     fit-margin-top="0"
     fit-margin-left="0"
     fit-margin-right="0"
     fit-margin-bottom="0"
     inkscape:zoom="1.2684253"
     inkscape:cx="173.14798"
     inkscape:cy="137.37149"
     inkscape:window-x="1917"
     inkscape:window-y="-3"
     inkscape:window-maximized="1"
     inkscape:current-layer="g5799" /><g
     id="g10"
     inkscape:groupmode="layer"
     inkscape:label="1.3680874"
     transform="matrix(1.25,0,0,-1.25,-166.3925,896.18125)"><g
       id="g5799"><g
         id="g3220"><g
           id="g4707"><g
             transform="scale(0.1,0.1)"
             id="g52"><g
               id="g54"
               clip-path="url(#clipPath56)"><path
                 d="m 1362.09,5653.12 3235.71,0 0,1516.33 -3235.71,0 0,-1516.33 z"
                 style="fill:#ffffff;fill-opacity:1;fill-rule:nonzero;stroke:none"
                 id="path60"
                 inkscape:connector-curvature="0" /></g></g><g
             transform="scale(0.1,0.1)"
             id="g62"><g
               id="g64"
               clip-path="url(#clipPath66)"><path
                 d="m 1331.14,5707.17 3266.67,0 0,1462.11 -3266.67,0 0,-1462.11 z"
                 style="fill:#ffffff;fill-opacity:1;fill-rule:nonzero;stroke:none"
                 id="path70"
                 inkscape:connector-curvature="0" /></g></g><g
             transform="scale(0.1,0.1)"
             id="g72"><g
               id="g74"
               clip-path="url(#clipPath76)"><path
                 d="m 1743.36,5867.87 2730.98,0 0,1192.39 -2730.98,0 0,-1192.39 z"
                 style="fill:#ffffff;fill-opacity:1;fill-rule:nonzero;stroke:none"
                 id="path80"
                 inkscape:connector-curvature="0" /><path
                 d="m 1743.36,5867.87 2730.98,0 0,1192.39 -2730.98,0 0,-1192.39 z"
                 style="fill:none;stroke:#ffffff;stroke-width:3.11110997;stroke-linecap:butt;stroke-linejoin:round;stroke-miterlimit:10;stroke-opacity:1;stroke-dasharray:none"
                 id="path82"
                 inkscape:connector-curvature="0" /><path
                 d="m 1743.36,5867.87 2730.98,0 m -2730.98,1192.39 2730.98,0 m -2730.98,-1192.39 0,1192.39 m 2730.98,-1192.39 0,1192.39 m -2730.98,-1192.39 2730.98,0 m -2730.98,0 0,1192.39 m 0,-1192.39 0,27.4 m 0,1164.62 0,-27.03"
                 style="fill:none;stroke:#231f20;stroke-width:3.11110997;stroke-linecap:butt;stroke-linejoin:round;stroke-miterlimit:10;stroke-opacity:1;stroke-dasharray:none"
                 id="path84"
                 inkscape:connector-curvature="0" /><path
                 d="m 1742.89,5794.73 c 3.21,0 5.75,1.41 7.65,4.25 1.9,2.83 2.84,8.09 2.84,15.83 0,5.55 -0.69,10.15 -2.05,13.71 -1.38,3.61 -4.03,5.4 -8,5.4 -3.63,0 -6.29,-1.7 -7.97,-5.11 -1.67,-3.42 -2.52,-8.43 -2.52,-15.06 0,-5.01 0.54,-9.04 1.61,-12.08 1.66,-4.63 4.46,-6.94 8.44,-6.94 z m 0.08,44.74 c 6.35,0 10.93,-2.59 13.77,-7.85 2.19,-4.04 3.28,-9.56 3.28,-16.6 0,-6.65 -0.98,-12.16 -2.97,-16.54 -2.87,-6.24 -7.59,-9.38 -14.12,-9.38 -5.88,0 -10.25,2.57 -13.14,7.68 -2.38,4.27 -3.59,10 -3.59,17.18 0,5.58 0.72,10.36 2.15,14.36 2.7,7.44 7.56,11.15 14.62,11.15"
                 style="fill:#231f20;fill-opacity:1;fill-rule:nonzero;stroke:none"
                 id="path86"
                 inkscape:connector-curvature="0" /><path
                 d="m 2016.16,5867.87 0,27.4 m 0,1164.62 0,-27.03"
                 style="fill:none;stroke:#231f20;stroke-width:3.11110997;stroke-linecap:butt;stroke-linejoin:round;stroke-miterlimit:10;stroke-opacity:1;stroke-dasharray:none"
                 id="path88"
                 inkscape:connector-curvature="0" /><path
                 d="m 2012.58,5797.92 7.15,0 0,-7.48 -7.15,0 0,7.48 z m -26.1,-3.19 c 3.2,0 5.75,1.41 7.64,4.25 1.91,2.83 2.85,8.09 2.85,15.83 0,5.55 -0.68,10.15 -2.06,13.71 -1.37,3.61 -4.03,5.4 -7.98,5.4 -3.64,0 -6.3,-1.7 -7.97,-5.11 -1.68,-3.42 -2.53,-8.43 -2.53,-15.06 0,-5.01 0.53,-9.04 1.61,-12.08 1.65,-4.63 4.47,-6.94 8.44,-6.94 z m 0.09,44.74 c 6.34,0 10.94,-2.59 13.77,-7.85 2.18,-4.04 3.27,-9.56 3.27,-16.6 0,-6.65 -0.99,-12.16 -2.97,-16.54 -2.88,-6.24 -7.57,-9.38 -14.11,-9.38 -5.88,0 -10.26,2.57 -13.14,7.68 -2.41,4.27 -3.6,10 -3.6,17.18 0,5.58 0.72,10.36 2.17,14.36 2.67,7.44 7.55,11.15 14.61,11.15 z m 41.7,-49.03 c 0.22,4.23 1.11,7.91 2.62,11.03 1.52,3.12 4.49,5.97 8.89,8.53 l 6.57,3.8 c 2.94,1.72 5.01,3.18 6.2,4.39 1.87,1.89 2.81,4.06 2.81,6.51 0,2.87 -0.86,5.13 -2.57,6.81 -1.71,1.69 -4.01,2.53 -6.86,2.53 -4.23,0 -7.14,-1.61 -8.75,-4.81 -0.88,-1.71 -1.36,-4.1 -1.45,-7.15 l -6.27,0 c 0.07,4.27 0.86,7.75 2.38,10.45 2.67,4.74 7.37,7.13 14.12,7.13 5.63,0 9.74,-1.54 12.32,-4.56 2.59,-3.05 3.88,-6.42 3.88,-10.14 0,-3.93 -1.38,-7.28 -4.14,-10.07 -1.59,-1.62 -4.47,-3.58 -8.59,-5.89 l -4.69,-2.6 c -2.24,-1.24 -4,-2.4 -5.28,-3.53 -2.28,-1.98 -3.71,-4.19 -4.3,-6.59 l 26.77,0 0,-5.84 -33.66,0"
                 style="fill:#231f20;fill-opacity:1;fill-rule:nonzero;stroke:none"
                 id="path90"
                 inkscape:connector-curvature="0" /><path
                 d="m 2289.34,5867.87 0,27.4 m 0,1164.62 0,-27.03"
                 style="fill:none;stroke:#231f20;stroke-width:3.11110997;stroke-linecap:butt;stroke-linejoin:round;stroke-miterlimit:10;stroke-opacity:1;stroke-dasharray:none"
                 id="path92"
                 inkscape:connector-curvature="0" /><path
                 d="m 2285.74,5797.92 7.15,0 0,-7.48 -7.15,0 0,7.48 z m 36.69,9.89 0,22.27 -15.72,-22.27 15.72,0 z m -62.78,-13.08 c 3.21,0 5.75,1.41 7.65,4.25 1.88,2.83 2.84,8.09 2.84,15.83 0,5.55 -0.68,10.15 -2.06,13.71 -1.37,3.61 -4.03,5.4 -7.99,5.4 -3.63,0 -6.29,-1.7 -7.97,-5.11 -1.68,-3.42 -2.51,-8.43 -2.51,-15.06 0,-5.01 0.52,-9.04 1.6,-12.08 1.65,-4.63 4.46,-6.94 8.44,-6.94 z m 0.08,44.74 c 6.36,0 10.94,-2.59 13.77,-7.85 2.18,-4.04 3.29,-9.56 3.29,-16.6 0,-6.65 -0.99,-12.16 -2.99,-16.54 -2.86,-6.24 -7.57,-9.38 -14.09,-9.38 -5.89,0 -10.28,2.57 -13.16,7.68 -2.4,4.27 -3.6,10 -3.6,17.18 0,5.58 0.73,10.36 2.16,14.36 2.69,7.44 7.58,11.15 14.62,11.15 z m 62.8,-49.03 0,11.98 -21.5,0 0,6.04 22.46,31.15 5.2,0 0,-31.8 7.23,0 0,-5.39 -7.23,0 0,-11.98 -6.16,0"
                 style="fill:#231f20;fill-opacity:1;fill-rule:nonzero;stroke:none"
                 id="path94"
                 inkscape:connector-curvature="0" /><path
                 d="m 2562.52,5867.87 0,27.4 m 0,1164.62 0,-27.03"
                 style="fill:none;stroke:#231f20;stroke-width:3.11110997;stroke-linecap:butt;stroke-linejoin:round;stroke-miterlimit:10;stroke-opacity:1;stroke-dasharray:none"
                 id="path96"
                 inkscape:connector-curvature="0" /><path
                 d="m 2558.93,5797.92 7.14,0 0,-7.48 -7.14,0 0,7.48 z m 33.56,-3.26 c 3.24,0 5.66,1.09 7.27,3.27 1.6,2.18 2.41,4.74 2.41,7.73 0,2.5 -0.72,4.9 -2.15,7.16 -1.45,2.26 -4.05,3.41 -7.84,3.41 -2.65,0 -4.98,-0.88 -6.97,-2.63 -2,-1.77 -2.99,-4.42 -2.99,-7.94 0,-3.13 0.9,-5.72 2.71,-7.84 1.81,-2.11 4.34,-3.16 7.56,-3.16 z m -59.66,0.07 c 3.2,0 5.74,1.41 7.64,4.25 1.9,2.83 2.84,8.09 2.84,15.83 0,5.55 -0.68,10.15 -2.05,13.71 -1.37,3.61 -4.03,5.4 -7.99,5.4 -3.63,0 -6.3,-1.7 -7.97,-5.11 -1.68,-3.42 -2.52,-8.43 -2.52,-15.06 0,-5.01 0.54,-9.04 1.61,-12.08 1.65,-4.63 4.46,-6.94 8.44,-6.94 z m 0.08,44.74 c 6.35,0 10.93,-2.59 13.77,-7.85 2.18,-4.04 3.28,-9.56 3.28,-16.6 0,-6.65 -1,-12.16 -2.97,-16.54 -2.88,-6.24 -7.58,-9.38 -14.11,-9.38 -5.89,0 -10.27,2.57 -13.15,7.68 -2.41,4.27 -3.6,10 -3.6,17.18 0,5.58 0.72,10.36 2.16,14.36 2.69,7.44 7.57,11.15 14.62,11.15 z m 60.02,0.21 c 5.48,0 9.3,-1.42 11.45,-4.26 2.17,-2.85 3.24,-5.78 3.24,-8.78 l -6.1,0 c -0.36,1.93 -0.94,3.45 -1.74,4.57 -1.48,2.03 -3.74,3.05 -6.75,3.05 -3.44,0 -6.18,-1.57 -8.21,-4.76 -2.03,-3.18 -3.16,-7.75 -3.39,-13.68 1.41,2.07 3.19,3.63 5.33,4.66 1.97,0.91 4.16,1.37 6.58,1.37 4.11,0 7.7,-1.31 10.76,-3.94 3.05,-2.62 4.58,-6.55 4.58,-11.75 0,-4.45 -1.45,-8.39 -4.35,-11.82 -2.9,-3.45 -7.03,-5.16 -12.38,-5.16 -4.61,0 -8.56,1.75 -11.9,5.21 -3.32,3.49 -5,9.34 -5,17.58 0,6.11 0.75,11.28 2.23,15.53 2.85,8.12 8.07,12.18 15.65,12.18"
                 style="fill:#231f20;fill-opacity:1;fill-rule:nonzero;stroke:none"
                 id="path98"
                 inkscape:connector-curvature="0" /><path
                 d="m 2835.68,5867.87 0,27.4 m 0,1164.62 0,-27.03"
                 style="fill:none;stroke:#231f20;stroke-width:3.11110997;stroke-linecap:butt;stroke-linejoin:round;stroke-miterlimit:10;stroke-opacity:1;stroke-dasharray:none"
                 id="path100"
                 inkscape:connector-curvature="0" /><path
                 d="m 2832.08,5797.92 7.16,0 0,-7.48 -7.16,0 0,7.48 z m 32.96,-3.26 c 2.84,0 5.22,0.76 7.1,2.31 1.88,1.54 2.83,3.84 2.83,6.9 0,3.17 -0.97,5.57 -2.91,7.21 -1.94,1.66 -4.43,2.48 -7.47,2.48 -2.94,0 -5.34,-0.83 -7.21,-2.52 -1.86,-1.69 -2.79,-4 -2.79,-6.96 0,-2.56 0.86,-4.78 2.57,-6.63 1.69,-1.87 4.31,-2.79 7.88,-2.79 z m -59.04,0.07 c 3.2,0 5.74,1.41 7.64,4.25 1.9,2.83 2.85,8.09 2.85,15.83 0,5.55 -0.69,10.15 -2.06,13.71 -1.38,3.61 -4.04,5.4 -7.98,5.4 -3.64,0 -6.31,-1.7 -7.98,-5.11 -1.69,-3.42 -2.54,-8.43 -2.54,-15.06 0,-5.01 0.55,-9.04 1.63,-12.08 1.64,-4.63 4.46,-6.94 8.44,-6.94 z m 58.64,24.2 c 2.72,0 4.83,0.76 6.36,2.27 1.53,1.53 2.29,3.36 2.29,5.45 0,1.84 -0.74,3.52 -2.19,5.03 -1.46,1.56 -3.68,2.32 -6.66,2.32 -2.97,0 -5.1,-0.76 -6.42,-2.32 -1.32,-1.51 -1.98,-3.31 -1.98,-5.36 0,-2.32 0.84,-4.12 2.57,-5.44 1.69,-1.29 3.72,-1.95 6.03,-1.95 z m -58.57,20.54 c 6.36,0 10.93,-2.59 13.76,-7.85 2.2,-4.04 3.3,-9.56 3.3,-16.6 0,-6.65 -0.99,-12.16 -2.98,-16.54 -2.87,-6.24 -7.58,-9.38 -14.1,-9.38 -5.89,0 -10.28,2.57 -13.15,7.68 -2.4,4.27 -3.6,10 -3.6,17.18 0,5.58 0.72,10.36 2.15,14.36 2.7,7.44 7.58,11.15 14.62,11.15 z m 50.2,-22.88 c -1.71,0.71 -3.04,1.56 -4,2.55 -1.81,1.83 -2.71,4.19 -2.71,7.12 0,3.65 1.33,6.79 3.97,9.41 2.65,2.62 6.4,3.94 11.26,3.94 4.68,0 8.37,-1.23 11.04,-3.72 2.67,-2.48 4,-5.37 4,-8.67 0,-3.05 -0.78,-5.55 -2.33,-7.43 -0.86,-1.08 -2.21,-2.11 -4.04,-3.15 2.04,-0.94 3.66,-2.02 4.81,-3.22 2.17,-2.29 3.27,-5.26 3.27,-8.9 0,-4.32 -1.45,-7.97 -4.36,-10.98 -2.88,-3 -6.98,-4.5 -12.27,-4.5 -4.78,0 -8.81,1.31 -12.11,3.89 -3.3,2.58 -4.95,6.34 -4.95,11.27 0,2.9 0.7,5.42 2.12,7.55 1.41,2.07 3.51,3.71 6.3,4.84"
                 style="fill:#231f20;fill-opacity:1;fill-rule:nonzero;stroke:none"
                 id="path102"
                 inkscape:connector-curvature="0" /><path
                 d="m 3108.86,5867.87 0,27.4 m 0,1164.62 0,-27.03"
                 style="fill:none;stroke:#231f20;stroke-width:3.11110997;stroke-linecap:butt;stroke-linejoin:round;stroke-miterlimit:10;stroke-opacity:1;stroke-dasharray:none"
                 id="path104"
                 inkscape:connector-curvature="0" /><path
                 d="m 3096.21,5825.17 0,4.72 c 4.45,0.43 7.55,1.15 9.31,2.16 1.76,1.04 3.07,3.43 3.95,7.22 l 4.85,0 0,-48.83 -6.57,0 0,34.73 -11.54,0"
                 style="fill:#231f20;fill-opacity:1;fill-rule:nonzero;stroke:none"
                 id="path106"
                 inkscape:connector-curvature="0" /><path
                 d="m 3381.65,5867.87 0,27.4 m 0,1164.62 0,-27.03"
                 style="fill:none;stroke:#231f20;stroke-width:3.11110997;stroke-linecap:butt;stroke-linejoin:round;stroke-miterlimit:10;stroke-opacity:1;stroke-dasharray:none"
                 id="path108"
                 inkscape:connector-curvature="0" /><path
                 d="m 3378.07,5797.92 7.16,0 0,-7.48 -7.16,0 0,7.48 z m -38.28,27.25 0,4.72 c 4.46,0.43 7.56,1.15 9.33,2.16 1.75,1.04 3.07,3.43 3.95,7.22 l 4.84,0 0,-48.83 -6.57,0 0,34.73 -11.55,0 z m 53.96,-34.73 c 0.25,4.23 1.12,7.91 2.63,11.03 1.53,3.12 4.48,5.97 8.88,8.53 l 6.57,3.8 c 2.96,1.72 5.01,3.18 6.21,4.39 1.87,1.89 2.81,4.06 2.81,6.51 0,2.87 -0.87,5.13 -2.56,6.81 -1.74,1.69 -4.01,2.53 -6.86,2.53 -4.22,0 -7.14,-1.61 -8.77,-4.81 -0.87,-1.71 -1.34,-4.1 -1.43,-7.15 l -6.27,0 c 0.06,4.27 0.86,7.75 2.36,10.45 2.67,4.74 7.38,7.13 14.15,7.13 5.61,0 9.72,-1.54 12.31,-4.56 2.58,-3.05 3.88,-6.42 3.88,-10.14 0,-3.93 -1.38,-7.28 -4.14,-10.07 -1.6,-1.62 -4.46,-3.58 -8.6,-5.89 l -4.7,-2.6 c -2.23,-1.24 -3.99,-2.4 -5.26,-3.53 -2.29,-1.98 -3.73,-4.19 -4.31,-6.59 l 26.76,0 0,-5.84 -33.66,0"
                 style="fill:#231f20;fill-opacity:1;fill-rule:nonzero;stroke:none"
                 id="path110"
                 inkscape:connector-curvature="0" /><path
                 d="m 3654.82,5867.87 0,27.4 m 0,1164.62 0,-27.03"
                 style="fill:none;stroke:#231f20;stroke-width:3.11110997;stroke-linecap:butt;stroke-linejoin:round;stroke-miterlimit:10;stroke-opacity:1;stroke-dasharray:none"
                 id="path112"
                 inkscape:connector-curvature="0" /><path
                 d="m 3651.23,5797.92 7.16,0 0,-7.48 -7.16,0 0,7.48 z m 36.68,9.89 0,22.27 -15.7,-22.27 15.7,0 z m -74.94,17.36 0,4.72 c 4.46,0.43 7.55,1.15 9.32,2.16 1.76,1.04 3.07,3.43 3.92,7.22 l 4.87,0 0,-48.83 -6.57,0 0,34.73 -11.54,0 z m 75.05,-34.73 0,11.98 -21.52,0 0,6.04 22.48,31.15 5.21,0 0,-31.8 7.22,0 0,-5.39 -7.22,0 0,-11.98 -6.17,0"
                 style="fill:#231f20;fill-opacity:1;fill-rule:nonzero;stroke:none"
                 id="path114"
                 inkscape:connector-curvature="0" /><path
                 d="m 3928,5867.87 0,27.4 m 0,1164.62 0,-27.03"
                 style="fill:none;stroke:#231f20;stroke-width:3.11110997;stroke-linecap:butt;stroke-linejoin:round;stroke-miterlimit:10;stroke-opacity:1;stroke-dasharray:none"
                 id="path116"
                 inkscape:connector-curvature="0" /><path
                 d="m 3924.4,5797.92 7.17,0 0,-7.48 -7.17,0 0,7.48 z m 33.57,-3.26 c 3.25,0 5.67,1.09 7.29,3.27 1.61,2.18 2.42,4.74 2.42,7.73 0,2.5 -0.73,4.9 -2.17,7.16 -1.43,2.26 -4.06,3.41 -7.85,3.41 -2.64,0 -4.96,-0.88 -6.97,-2.63 -2,-1.77 -2.99,-4.42 -2.99,-7.94 0,-3.13 0.92,-5.72 2.73,-7.84 1.82,-2.11 4.32,-3.16 7.54,-3.16 z m -71.83,30.51 0,4.72 c 4.46,0.43 7.56,1.15 9.32,2.16 1.75,1.04 3.06,3.43 3.93,7.22 l 4.87,0 0,-48.83 -6.57,0 0,34.73 -11.55,0 z m 72.27,14.51 c 5.5,0 9.3,-1.42 11.47,-4.26 2.15,-2.85 3.21,-5.78 3.21,-8.78 l -6.07,0 c -0.38,1.93 -0.95,3.45 -1.75,4.57 -1.48,2.03 -3.74,3.05 -6.75,3.05 -3.44,0 -6.18,-1.57 -8.22,-4.76 -2.02,-3.18 -3.16,-7.75 -3.39,-13.68 1.42,2.07 3.21,3.63 5.36,4.66 1.95,0.91 4.13,1.37 6.56,1.37 4.12,0 7.69,-1.31 10.75,-3.94 3.08,-2.62 4.58,-6.55 4.58,-11.75 0,-4.45 -1.44,-8.39 -4.34,-11.82 -2.9,-3.45 -7.02,-5.16 -12.39,-5.16 -4.58,0 -8.55,1.75 -11.88,5.21 -3.34,3.49 -5,9.34 -5,17.58 0,6.11 0.74,11.28 2.22,15.53 2.85,8.12 8.07,12.18 15.64,12.18"
                 style="fill:#231f20;fill-opacity:1;fill-rule:nonzero;stroke:none"
                 id="path118"
                 inkscape:connector-curvature="0" /><path
                 d="m 4201.18,5867.87 0,27.4 m 0,1164.62 0,-27.03"
                 style="fill:none;stroke:#231f20;stroke-width:3.11110997;stroke-linecap:butt;stroke-linejoin:round;stroke-miterlimit:10;stroke-opacity:1;stroke-dasharray:none"
                 id="path120"
                 inkscape:connector-curvature="0" /><path
                 d="m 4197.58,5797.92 7.15,0 0,-7.48 -7.15,0 0,7.48 z m 32.95,-3.26 c 2.86,0 5.22,0.76 7.09,2.31 1.88,1.54 2.83,3.84 2.83,6.9 0,3.17 -0.95,5.57 -2.9,7.21 -1.95,1.66 -4.43,2.48 -7.47,2.48 -2.95,0 -5.35,-0.83 -7.19,-2.52 -1.87,-1.69 -2.8,-4 -2.8,-6.96 0,-2.56 0.84,-4.78 2.54,-6.63 1.71,-1.87 4.32,-2.79 7.9,-2.79 z m -0.39,24.27 c 2.71,0 4.81,0.76 6.37,2.27 1.49,1.53 2.26,3.36 2.26,5.45 0,1.84 -0.72,3.52 -2.18,5.03 -1.47,1.56 -3.67,2.32 -6.66,2.32 -2.98,0 -5.1,-0.76 -6.43,-2.32 -1.32,-1.51 -1.98,-3.31 -1.98,-5.36 0,-2.32 0.86,-4.12 2.57,-5.44 1.7,-1.29 3.72,-1.95 6.05,-1.95 z m -70.83,6.24 0,4.72 c 4.44,0.43 7.56,1.15 9.31,2.16 1.77,1.04 3.08,3.43 3.95,7.22 l 4.86,0 0,-48.83 -6.58,0 0,34.73 -11.54,0 z m 62.45,-8.58 c -1.71,0.71 -3.05,1.56 -4,2.55 -1.8,1.83 -2.7,4.19 -2.7,7.12 0,3.65 1.31,6.79 3.97,9.41 2.63,2.62 6.38,3.94 11.24,3.94 4.7,0 8.37,-1.23 11.05,-3.72 2.66,-2.48 3.99,-5.37 3.99,-8.67 0,-3.05 -0.76,-5.55 -2.32,-7.43 -0.87,-1.08 -2.22,-2.11 -4.05,-3.15 2.06,-0.94 3.65,-2.02 4.83,-3.22 2.18,-2.29 3.27,-5.26 3.27,-8.9 0,-4.32 -1.46,-7.97 -4.35,-10.98 -2.91,-3 -7.01,-4.5 -12.3,-4.5 -4.77,0 -8.8,1.31 -12.11,3.89 -3.29,2.58 -4.95,6.34 -4.95,11.27 0,2.9 0.72,5.42 2.13,7.55 1.41,2.07 3.53,3.71 6.3,4.84"
                 style="fill:#231f20;fill-opacity:1;fill-rule:nonzero;stroke:none"
                 id="path122"
                 inkscape:connector-curvature="0" /><path
                 d="m 4474.34,5867.87 0,27.4 m 0,1164.62 0,-27.03"
                 style="fill:none;stroke:#231f20;stroke-width:3.11110997;stroke-linecap:butt;stroke-linejoin:round;stroke-miterlimit:10;stroke-opacity:1;stroke-dasharray:none"
                 id="path124"
                 inkscape:connector-curvature="0" /><path
                 d="m 4457.18,5790.44 c 0.25,4.23 1.11,7.91 2.64,11.03 1.51,3.12 4.47,5.97 8.87,8.53 l 6.58,3.8 c 2.94,1.72 5.01,3.18 6.19,4.39 1.88,1.89 2.81,4.06 2.81,6.51 0,2.87 -0.85,5.13 -2.56,6.81 -1.73,1.69 -4.01,2.53 -6.85,2.53 -4.24,0 -7.15,-1.61 -8.76,-4.81 -0.89,-1.71 -1.37,-4.1 -1.46,-7.15 l -6.25,0 c 0.06,4.27 0.84,7.75 2.35,10.45 2.67,4.74 7.4,7.13 14.15,7.13 5.61,0 9.72,-1.54 12.31,-4.56 2.59,-3.05 3.87,-6.42 3.87,-10.14 0,-3.93 -1.38,-7.28 -4.13,-10.07 -1.59,-1.62 -4.45,-3.58 -8.58,-5.89 l -4.71,-2.6 c -2.24,-1.24 -3.99,-2.4 -5.27,-3.53 -2.28,-1.98 -3.71,-4.19 -4.31,-6.59 l 26.77,0 0,-5.84 -33.66,0"
                 style="fill:#231f20;fill-opacity:1;fill-rule:nonzero;stroke:none"
                 id="path126"
                 inkscape:connector-curvature="0" /><path
                 d="m 1743.36,5867.87 27.04,0 m 2703.94,0 -27.39,0"
                 style="fill:none;stroke:#231f20;stroke-width:3.11110997;stroke-linecap:butt;stroke-linejoin:round;stroke-miterlimit:10;stroke-opacity:1;stroke-dasharray:none"
                 id="path128"
                 inkscape:connector-curvature="0" /><path
                 d="m 1710.74,5846.22 c 3.22,0 5.76,1.42 7.65,4.26 1.91,2.82 2.86,8.08 2.86,15.82 0,5.55 -0.69,10.14 -2.07,13.72 -1.36,3.59 -4.02,5.4 -7.99,5.4 -3.63,0 -6.28,-1.7 -7.96,-5.12 -1.68,-3.41 -2.52,-8.44 -2.52,-15.07 0,-5.01 0.52,-9.03 1.6,-12.07 1.65,-4.64 4.46,-6.94 8.43,-6.94 z m 0.1,44.74 c 6.34,0 10.94,-2.6 13.77,-7.84 2.18,-4.04 3.28,-9.56 3.28,-16.61 0,-6.65 -1,-12.17 -2.98,-16.54 -2.88,-6.23 -7.58,-9.37 -14.11,-9.37 -5.88,0 -10.27,2.57 -13.16,7.66 -2.39,4.29 -3.58,10.01 -3.58,17.19 0,5.58 0.72,10.36 2.17,14.36 2.68,7.44 7.55,11.15 14.61,11.15"
                 style="fill:#231f20;fill-opacity:1;fill-rule:nonzero;stroke:none"
                 id="path130"
                 inkscape:connector-curvature="0" /><path
                 d="m 1743.36,6038.43 27.04,0 m 2703.94,0 -27.39,0"
                 style="fill:none;stroke:#231f20;stroke-width:3.11110997;stroke-linecap:butt;stroke-linejoin:round;stroke-miterlimit:10;stroke-opacity:1;stroke-dasharray:none"
                 id="path132"
                 inkscape:connector-curvature="0" /><path
                 d="m 1698.58,6047.21 0,4.73 c 4.45,0.43 7.55,1.15 9.31,2.17 1.76,1.02 3.07,3.41 3.94,7.19 l 4.85,0 0,-48.81 -6.56,0 0,34.72 -11.54,0"
                 style="fill:#231f20;fill-opacity:1;fill-rule:nonzero;stroke:none"
                 id="path134"
                 inkscape:connector-curvature="0" /><path
                 d="m 1743.36,6208.61 27.04,0 m 2703.94,0 -27.39,0"
                 style="fill:none;stroke:#231f20;stroke-width:3.11110997;stroke-linecap:butt;stroke-linejoin:round;stroke-miterlimit:10;stroke-opacity:1;stroke-dasharray:none"
                 id="path136"
                 inkscape:connector-curvature="0" /><path
                 d="m 1694.06,6182.68 c 0.22,4.21 1.1,7.89 2.62,11.03 1.52,3.12 4.48,5.96 8.89,8.52 l 6.56,3.79 c 2.95,1.72 5.02,3.18 6.21,4.4 1.87,1.9 2.8,4.07 2.8,6.52 0,2.84 -0.85,5.13 -2.56,6.8 -1.71,1.67 -4,2.53 -6.86,2.53 -4.22,0 -7.13,-1.62 -8.76,-4.81 -0.87,-1.72 -1.35,-4.1 -1.44,-7.14 l -6.27,0 c 0.07,4.25 0.86,7.75 2.37,10.43 2.67,4.74 7.38,7.12 14.14,7.12 5.62,0 9.71,-1.51 12.32,-4.55 2.58,-3.03 3.87,-6.41 3.87,-10.13 0,-3.94 -1.37,-7.28 -4.13,-10.06 -1.6,-1.61 -4.46,-3.6 -8.61,-5.9 l -4.68,-2.6 c -2.24,-1.22 -4,-2.42 -5.28,-3.53 -2.29,-1.98 -3.71,-4.17 -4.32,-6.6 l 26.78,0 0,-5.82 -33.65,0"
                 style="fill:#231f20;fill-opacity:1;fill-rule:nonzero;stroke:none"
                 id="path138"
                 inkscape:connector-curvature="0" /><path
                 d="m 1743.36,6378.79 27.04,0 m 2703.94,0 -27.39,0"
                 style="fill:none;stroke:#231f20;stroke-width:3.11110997;stroke-linecap:butt;stroke-linejoin:round;stroke-miterlimit:10;stroke-opacity:1;stroke-dasharray:none"
                 id="path140"
                 inkscape:connector-curvature="0" /><path
                 d="m 1710.08,6351.51 c -5.8,0 -9.99,1.6 -12.62,4.78 -2.6,3.19 -3.91,7.07 -3.91,11.63 l 6.44,0 c 0.27,-3.17 0.87,-5.48 1.78,-6.92 1.58,-2.59 4.47,-3.88 8.66,-3.88 3.24,0 5.84,0.89 7.8,2.62 1.97,1.74 2.94,3.96 2.94,6.7 0,3.39 -1.03,5.75 -3.1,7.09 -2.06,1.35 -4.93,2.02 -8.6,2.02 -0.41,0 -0.83,0 -1.26,-0.01 -0.41,-0.01 -0.84,-0.02 -1.28,-0.06 l 0,5.46 c 0.64,-0.06 1.18,-0.1 1.61,-0.14 0.43,-0.02 0.9,-0.04 1.41,-0.04 2.3,0 4.2,0.36 5.68,1.1 2.6,1.27 3.9,3.54 3.9,6.84 0,2.44 -0.87,4.33 -2.6,5.65 -1.73,1.32 -3.76,1.99 -6.06,1.99 -4.1,0 -6.95,-1.38 -8.53,-4.11 -0.86,-1.51 -1.36,-3.65 -1.48,-6.44 l -6.08,0 c 0,3.66 0.73,6.76 2.18,9.31 2.52,4.56 6.94,6.86 13.25,6.86 5,0 8.87,-1.12 11.61,-3.35 2.75,-2.23 4.12,-5.45 4.12,-9.67 0,-3.02 -0.82,-5.45 -2.43,-7.33 -1.01,-1.15 -2.31,-2.07 -3.9,-2.73 2.57,-0.71 4.58,-2.07 6.05,-4.08 1.45,-2.03 2.15,-4.5 2.15,-7.42 0,-4.68 -1.53,-8.5 -4.61,-11.45 -3.09,-2.94 -7.45,-4.42 -13.12,-4.42"
                 style="fill:#231f20;fill-opacity:1;fill-rule:nonzero;stroke:none"
                 id="path142"
                 inkscape:connector-curvature="0" /><path
                 d="m 1743.36,6549.34 27.04,0 m 2703.94,0 -27.39,0"
                 style="fill:none;stroke:#231f20;stroke-width:3.11110997;stroke-linecap:butt;stroke-linejoin:round;stroke-miterlimit:10;stroke-opacity:1;stroke-dasharray:none"
                 id="path144"
                 inkscape:connector-curvature="0" /><path
                 d="m 1715.05,6540.77 0,22.27 -15.71,-22.27 15.71,0 z m 0.11,-17.37 0,11.99 -21.51,0 0,6.02 22.46,31.17 5.2,0 0,-31.81 7.23,0 0,-5.38 -7.23,0 0,-11.99 -6.15,0"
                 style="fill:#231f20;fill-opacity:1;fill-rule:nonzero;stroke:none"
                 id="path146"
                 inkscape:connector-curvature="0" /><path
                 d="m 1743.36,6719.52 27.04,0 m 2703.94,0 -27.39,0"
                 style="fill:none;stroke:#231f20;stroke-width:3.11110997;stroke-linecap:butt;stroke-linejoin:round;stroke-miterlimit:10;stroke-opacity:1;stroke-dasharray:none"
                 id="path148"
                 inkscape:connector-curvature="0" /><path
                 d="m 1700.53,6706.09 c 0.4,-3.51 2.06,-5.95 4.89,-7.29 1.46,-0.69 3.15,-1.03 5.08,-1.03 3.65,0 6.35,1.18 8.11,3.5 1.76,2.32 2.64,4.9 2.64,7.74 0,3.42 -1.05,6.06 -3.14,7.94 -2.1,1.87 -4.6,2.8 -7.52,2.8 -2.11,0 -3.94,-0.41 -5.45,-1.23 -1.53,-0.82 -2.82,-1.96 -3.89,-3.43 l -5.34,0.32 3.73,26.39 25.48,0 0,-5.95 -20.86,0 -2.08,-13.62 c 1.13,0.86 2.22,1.51 3.24,1.95 1.83,0.74 3.95,1.11 6.34,1.11 4.49,0 8.31,-1.45 11.44,-4.34 3.12,-2.9 4.69,-6.57 4.69,-11.02 0,-4.64 -1.44,-8.73 -4.3,-12.26 -2.86,-3.55 -7.43,-5.31 -13.71,-5.31 -4,0 -7.53,1.12 -10.59,3.37 -3.08,2.25 -4.79,5.7 -5.17,10.36 l 6.41,0"
                 style="fill:#231f20;fill-opacity:1;fill-rule:nonzero;stroke:none"
                 id="path150"
                 inkscape:connector-curvature="0" /><path
                 d="m 1743.36,6889.71 27.04,0 m 2703.94,0 -27.39,0"
                 style="fill:none;stroke:#231f20;stroke-width:3.11110997;stroke-linecap:butt;stroke-linejoin:round;stroke-miterlimit:10;stroke-opacity:1;stroke-dasharray:none"
                 id="path152"
                 inkscape:connector-curvature="0" /><path
                 d="m 1711.94,6867.98 c 3.24,0 5.67,1.11 7.27,3.27 1.6,2.18 2.41,4.77 2.41,7.73 0,2.51 -0.73,4.89 -2.16,7.17 -1.44,2.27 -4.04,3.4 -7.84,3.4 -2.65,0 -4.97,-0.87 -6.96,-2.64 -2,-1.75 -3,-4.4 -3,-7.93 0,-3.11 0.91,-5.71 2.72,-7.84 1.82,-2.09 4.33,-3.16 7.56,-3.16 z m 0.44,45.04 c 5.47,0 9.3,-1.43 11.45,-4.27 2.15,-2.85 3.24,-5.77 3.24,-8.79 l -6.09,0 c -0.38,1.94 -0.95,3.46 -1.75,4.55 -1.49,2.06 -3.75,3.1 -6.75,3.1 -3.44,0 -6.19,-1.6 -8.22,-4.79 -2.04,-3.19 -3.16,-7.75 -3.4,-13.67 1.43,2.06 3.21,3.63 5.35,4.65 1.97,0.91 4.15,1.37 6.57,1.37 4.11,0 7.7,-1.31 10.77,-3.94 3.05,-2.62 4.58,-6.53 4.58,-11.74 0,-4.45 -1.45,-8.39 -4.35,-11.83 -2.91,-3.44 -7.03,-5.16 -12.4,-5.16 -4.59,0 -8.55,1.75 -11.88,5.23 -3.33,3.47 -5,9.34 -5,17.57 0,6.11 0.74,11.27 2.23,15.52 2.85,8.14 8.07,12.2 15.65,12.2"
                 style="fill:#231f20;fill-opacity:1;fill-rule:nonzero;stroke:none"
                 id="path154"
                 inkscape:connector-curvature="0" /><path
                 d="m 1743.36,7059.89 27.04,0 m 2703.94,0 -27.39,0"
                 style="fill:none;stroke:#231f20;stroke-width:3.11110997;stroke-linecap:butt;stroke-linejoin:round;stroke-miterlimit:10;stroke-opacity:1;stroke-dasharray:none"
                 id="path156"
                 inkscape:connector-curvature="0" /><path
                 d="m 1728.54,7082.17 0,-5.37 c -1.58,-1.53 -3.67,-4.19 -6.28,-7.98 -2.62,-3.79 -4.93,-7.89 -6.94,-12.26 -1.98,-4.27 -3.49,-8.17 -4.52,-11.68 -0.66,-2.26 -1.52,-5.9 -2.57,-10.92 l -6.81,0 c 1.54,9.36 4.97,18.67 10.28,27.93 3.12,5.44 6.4,10.14 9.85,14.08 l -27.11,0 0,6.2 34.1,0"
                 style="fill:#231f20;fill-opacity:1;fill-rule:nonzero;stroke:none"
                 id="path158"
                 inkscape:connector-curvature="0" /><path
                 d="m 1744.39,7116.27 7.98,0 8.41,-12.91 8.54,12.91 7.49,-0.16 -12.35,-17.71 12.9,-18.79 -7.88,0 -9.1,13.77 -8.83,-13.77 -7.8,0 12.9,18.79 -12.26,17.87 z m 111.4,-32.38 c 3.21,0 5.74,1.41 7.64,4.25 1.89,2.82 2.85,8.09 2.85,15.81 0,5.57 -0.69,10.16 -2.05,13.75 -1.39,3.59 -4.04,5.39 -8.01,5.39 -3.63,0 -6.29,-1.7 -7.98,-5.12 -1.66,-3.41 -2.51,-8.43 -2.51,-15.08 0,-5 0.55,-9.01 1.62,-12.05 1.65,-4.64 4.46,-6.95 8.44,-6.95 z m -51.16,30.44 0,4.71 c 4.45,0.44 7.55,1.17 9.31,2.18 1.76,1.02 3.08,3.42 3.94,7.21 l 4.86,0 0,-48.82 -6.58,0 0,34.72 -11.53,0 z m 51.25,14.31 c 6.33,0 10.92,-2.62 13.75,-7.85 2.19,-4.03 3.29,-9.56 3.29,-16.6 0,-6.66 -0.98,-12.17 -2.98,-16.54 -2.87,-6.25 -7.58,-9.37 -14.1,-9.37 -5.89,0 -10.27,2.54 -13.15,7.67 -2.39,4.26 -3.6,9.98 -3.6,17.18 0,5.57 0.71,10.35 2.16,14.34 2.7,7.44 7.57,11.17 14.63,11.17"
                 style="fill:#231f20;fill-opacity:1;fill-rule:nonzero;stroke:none"
                 id="path160"
                 inkscape:connector-curvature="0" /><path
                 d="m 1877.67,7133.07 23.8047,0 0,3.8359 -23.8047,0 0,-3.8359 z"
                 style="fill:#231f20;fill-opacity:1;fill-rule:nonzero;stroke:none"
                 id="path162"
                 inkscape:connector-curvature="0" /><path
                 d="m 1915,7122.19 c -3.86,0 -6.66,1.05 -8.41,3.17 -1.73,2.13 -2.6,4.72 -2.6,7.76 l 4.29,0 c 0.18,-2.12 0.57,-3.66 1.17,-4.62 1.07,-1.72 3,-2.57 5.79,-2.57 2.16,0 3.9,0.58 5.2,1.73 1.3,1.15 1.96,2.65 1.96,4.48 0,2.25 -0.69,3.82 -2.06,4.72 -1.38,0.9 -3.29,1.35 -5.74,1.35 -0.28,0 -0.56,0 -0.84,0 -0.28,-0.02 -0.56,-0.02 -0.85,-0.05 l 0,3.63 c 0.42,-0.04 0.78,-0.08 1.06,-0.09 0.3,-0.01 0.62,-0.02 0.95,-0.02 1.53,0 2.8,0.24 3.79,0.73 1.73,0.85 2.59,2.38 2.59,4.56 0,1.63 -0.57,2.88 -1.73,3.77 -1.16,0.89 -2.5,1.32 -4.04,1.32 -2.73,0 -4.63,-0.92 -5.69,-2.73 -0.57,-1.01 -0.89,-2.44 -0.97,-4.3 l -4.07,0 c 0,2.44 0.49,4.5 1.47,6.21 1.67,3.05 4.61,4.56 8.83,4.56 3.33,0 5.9,-0.74 7.74,-2.23 1.82,-1.47 2.74,-3.62 2.74,-6.44 0,-2 -0.54,-3.63 -1.62,-4.88 -0.68,-0.78 -1.55,-1.38 -2.6,-1.83 1.71,-0.47 3.06,-1.38 4.03,-2.73 0.96,-1.34 1.45,-2.98 1.45,-4.93 0,-3.13 -1.04,-5.68 -3.09,-7.63 -2.05,-1.97 -4.96,-2.94 -8.75,-2.94"
                 style="fill:#231f20;fill-opacity:1;fill-rule:nonzero;stroke:none"
                 id="path164"
                 inkscape:connector-curvature="0" /><path
                 d="m 1743.36,5867.87 2730.98,0 m -2730.98,1192.39 2730.98,0 m -2730.98,-1192.39 0,1192.39 m 2730.98,-1192.39 0,1192.39"
                 style="fill:none;stroke:#231f20;stroke-width:3.11110997;stroke-linecap:butt;stroke-linejoin:round;stroke-miterlimit:10;stroke-opacity:1;stroke-dasharray:none"
                 id="path166"
                 inkscape:connector-curvature="0" /><path
                 d="m 1756.88,6188.51 81.8,0 13.88,0.39 68.28,0 13.52,0.35 40.9,0 13.88,0.36 27.02,0 13.88,0.37 13.51,0 13.52,0.38 27.39,0 13.88,0.35 13.5,0 13.52,0.36 13.88,0 13.51,0.37 13.89,0 13.5,0.38 13.51,0 13.89,0.34 13.5,0.38 13.89,0 13.5,0.36 13.51,0.35 13.88,0 27.04,0.73 13.86,0 13.52,0.38 13.87,0.36 13.52,0.37 13.52,0.35 13.87,0.38 13.51,0 13.88,0.36 27.03,0.73 13.88,0.37 13.5,0.37 13.88,0.37 13.51,0.35 13.52,0.37 13.87,0.36 13.52,0.36 13.87,0.38 13.53,0.37 13.49,0.74 13.89,0.34 27.02,0.73 13.88,0.37 13.51,0.73 13.88,0.37 13.51,0.38 13.51,0.71 13.88,0.37 13.52,0.35 13.87,0.75 13.51,0.36 13.52,0.74 13.88,0.36 13.5,0.74 13.88,0.36 13.52,0.73 13.51,0.36 13.88,0.73 13.5,0.72 13.52,0.38 13.88,0.72 13.53,0.74 13.86,0.72 13.51,0.36 13.52,0.75 13.87,0.72 13.52,0.74 13.88,0.74 13.5,0.71 13.52,0.73 13.89,0.74 13.49,0.72 13.9,0.74 13.5,0.72 13.52,0.75 13.87,1.09 13.52,0.72 13.88,0.73 13.5,0.72 13.52,1.11 13.89,0.72 13.49,1.1 13.51,0.74 13.89,1.09 13.51,0.73 13.88,1.1 13.52,0.73 13.51,1.09 13.87,1.1 13.51,1.08 13.88,0.74 27.01,2.19 13.88,1.1 13.52,1.09 13.89,1.11 13.5,1.08 13.51,1.47 13.89,1.08 27.03,2.21 13.88,1.46 13.51,1.09 13.87,1.47 13.52,1.08 13.51,1.46 13.87,1.47 13.51,1.46 13.89,1.08 27.02,2.93 13.87,1.47 13.52,1.82 13.87,1.46 27.03,2.91 13.86,1.84 13.52,1.46 13.53,1.83 13.87,1.82 13.52,1.83 13.87,1.83 27.02,3.66 13.88,1.82 13.5,1.82 13.89,2.21 13.51,1.82 13.52,2.19 13.88,2.17 13.51,2.2 13.88,2.21 27.03,4.36 13.86,2.55 13.52,2.58 13.89,2.18 27,5.12 13.9,2.92 13.5,2.55 13.51,2.91 13.88,2.93 13.52,2.92 13.87,2.94 27.04,6.56 13.87,3.29 13.5,3.28 13.89,3.66 27.02,7.3 13.89,4.01 13.49,4.02 13.89,4.01 27.02,8.78 13.89,4.74 27,9.5 13.89,5.48 13.52,5.48 13.88,5.47 27.01,12.42 13.89,6.58 13.5,6.93 13.88,7.68 13.54,8.03 13.49,8.4 13.88,9.5 13.52,10.21 13.86,11.33 13.53,12.42 13.51,14.61 13.87,17.52 13.51,23.38"
                 style="fill:none;stroke:#3f4faa;stroke-width:10.95689964;stroke-linecap:butt;stroke-linejoin:round;stroke-miterlimit:10;stroke-opacity:1;stroke-dasharray:2.19119, 17.5301, 26.2947, 17.5301;stroke-dashoffset:0"
                 id="path168"
                 inkscape:connector-curvature="0" /><path
                 d="m 3474.77,5867.87 0,1192.02 m 600.05,-1192.02 0,1192.02 m 198.3,-1192.02 0,1192.02 m -1413.7,-1192.02 0,1192.02 M 3565,5867.87 l 0,1192.02 m 368.84,-1192.02 0,1192.02"
                 style="fill:none;stroke:#100f0d;stroke-width:6.57221985;stroke-linecap:butt;stroke-linejoin:round;stroke-miterlimit:10;stroke-opacity:1;stroke-dasharray:26.2947, 26.2947;stroke-dashoffset:0"
                 id="path170"
                 inkscape:connector-curvature="0" /><path
                 d="m 1879.59,6272.14 0,-98.96 m -25.93,98.96 51.86,0 m -51.86,-98.96 51.86,0 m -25.93,98.96 0,-98.96 m -25.93,98.96 51.86,0 m -51.86,-98.96 51.86,0 m 42.37,50.04 0,-63.18 m -25.94,63.18 51.87,0 m -51.87,-63.18 51.87,0 m 42.36,139.13 0,-104.08 m -25.93,104.08 51.86,0 m -51.86,-104.08 51.86,0 m 110.65,-2.55 0,-81.45 m -25.93,81.45 51.85,0 m -51.85,-81.45 51.85,0 m 110.67,161.79 0,-109.93 m -25.93,109.93 51.85,0 m -51.85,-109.93 51.85,0 m 110.66,109.56 0,-131.82 m -25.93,131.82 51.87,0 m -51.87,-131.82 51.87,0 m 42.36,118.69 0,-135.5 m -25.93,135.5 51.86,0 m -51.86,-135.5 51.86,0 m 42.36,237.73 0,-169.79 m -25.93,169.79 51.86,0 m -51.86,-169.79 51.86,0 m 110.65,93.11 0,-154.84 m -25.92,154.84 51.85,0 m -51.85,-154.84 51.85,0 m 54.06,194.29 0,-206.72 m -25.93,206.72 51.85,0 m -51.85,-206.72 51.85,0 m -3.64,156.32 0,-173.1 m -25.94,173.1 51.86,0 m -51.86,-173.1 51.86,0 m 8.4,519.31 0,-158.87 m -25.94,158.87 51.87,0 m -51.87,-158.87 51.87,0 m 8.02,374.34 0,-191.01 m -25.92,191.01 51.87,0 m -51.87,-191.01 51.87,0 m -5.48,-349.5 0,-131.82 m -25.93,131.82 51.86,0 m -51.86,-131.82 51.86,0 m -12.07,223.12 0,-120.15 m -25.92,120.15 51.86,0 m -51.86,-120.15 51.86,0 m 42.36,57.7 0,-102.25 m -25.93,102.25 51.86,0 m -51.86,-102.25 51.86,0 m 8.05,11.33 0,-103.72 m -25.94,103.72 51.83,0 m -51.83,-103.72 51.83,0 m -5.47,105.16 0,-106.28 m -25.91,106.28 51.84,0 m -51.84,-106.28 51.84,0 m -12.03,189.56 0,-116.51 m -25.95,116.51 51.86,0 m -51.86,-116.51 51.86,0 m 8.06,37.26 0,-120.51 m -25.94,120.51 51.86,0 m -51.86,-120.51 51.86,0 m -5.47,122.34 0,-129.29 m -25.93,129.29 51.84,0 m -51.84,-129.29 51.84,0 m -12.04,142.78 0,-158.48 m -26.29,158.48 52.22,0 m -52.22,-158.48 52.22,0 m 8.04,166.52 0,-173.09 m -25.94,173.09 51.86,0 m -51.86,-173.09 51.86,0 m 8.04,224.96 0,-184.8 m -25.95,184.8 51.87,0 m -51.87,-184.8 51.87,0 m 8.4,172.02 0,-192.46 m -25.93,192.46 51.85,0 m -51.85,-192.46 51.85,0 m -24.45,220.95 0,-159.97 m -25.93,159.97 51.86,0 m -51.86,-159.97 51.86,0 m 6.57,208.9 0,-118.31 m -25.94,118.31 51.86,0 m -51.86,-118.31 51.86,0 m 8.4,131.81 0,-132.19 m -25.92,132.19 51.86,0 m -51.86,-132.19 51.86,0 m 8.03,154.48 0,-149.73 m -25.94,149.73 51.87,0 m -51.87,-149.73 51.87,0 m 42.35,181.14 0,-129.65 m -25.92,129.65 51.86,0 m -51.86,-129.65 51.86,0 m 42.38,170.91 0,-284.13 m -25.93,284.13 51.85,0 m -51.85,-284.13 51.85,0 m -12.06,178.59 0,-140.96 m -25.92,140.96 51.85,0 m -51.85,-140.96 51.85,0 m -14.99,661.73 0,-262.94 m -25.92,262.94 51.87,0 m -51.87,-262.94 51.87,0 m -16.43,250.17 0,-373.96 m -25.94,373.96 51.88,0 m -51.88,-373.96 51.88,0 m -5.5,-155.58 0,-268.07 m -25.93,268.07 51.86,0 m -51.86,-268.07 51.86,0 m -12.4,302.77 0,-269.54 m -25.94,269.54 51.87,0 m -51.87,-269.54 51.87,0 m -12.05,294.36 0,-250.9 m -25.95,250.9 51.87,0 m -51.87,-250.9 51.87,0 m -5.48,392.24 0,-248.7 m -25.93,248.7 51.86,0 m -51.86,-248.7 51.86,0 m 8.04,166.9 0,-176.77 m -25.94,176.77 51.87,0 m -51.87,-176.77 51.87,0 m 8.4,148.65 0,-151.94 m -25.94,151.94 51.86,0 m -51.86,-151.94 51.86,0 m 8.04,78.52 0,-113.19 m -25.95,113.19 51.88,0 m -51.88,-113.19 51.88,0 m 42.35,82.51 0,-131.1 m -25.92,131.1 51.86,0 m -51.86,-131.1 51.85,0 m 42.36,147.56 0,-156.69 m -25.92,156.69 51.86,0 m -51.86,-156.69 51.86,0 m 42.36,210.72 0,-187.71 m -25.93,187.71 51.85,0 m -51.85,-187.71 51.85,0 m 42.37,297.64 0,-180.05 m -25.93,180.05 51.86,0 m -51.86,-180.05 51.86,0 m 1.47,-30.68 0,-182.58 m -25.94,182.58 51.87,0 m -51.87,-182.58 51.87,0 m 14.96,297.63 0,-230.43 m -25.92,230.43 51.87,0 m -51.87,-230.43 51.87,0 m 42.35,361.89 0,-265.48 m -25.93,265.48 51.85,0 m -51.85,-265.48 51.85,0 m -14.97,386.73 0,-235.54 m -25.92,235.54 51.84,0 m -51.84,-235.54 51.84,0 m -2.91,-15.35 0,-218.75 m -25.93,218.75 51.86,0 m -51.86,-218.75 51.86,0 m 8.41,248.34 0,-190.28 m -25.94,190.28 51.87,0 m -51.87,-190.28 51.87,0 m 42.36,105.55 0,-170.55 m -25.93,170.55 51.84,0 m -51.84,-170.55 51.84,0 m 8.03,195.38 0,-192.84 m -25.91,192.84 51.84,0 m -51.84,-192.84 51.84,0 m 12.07,334.91 0,-201.23 m -25.92,201.23 51.85,0 m -51.85,-201.23 51.85,0 m 4.4,59.52 0,-164.34 m -25.95,164.34 51.86,0 m -51.86,-164.34 51.86,0 m 8.39,186.62 0,-158.12 m -25.93,158.12 51.86,0 m -51.86,-158.12 51.86,0 m 42.36,169.43 0,-188.05 m -25.92,188.05 51.86,0 m -51.86,-188.05 51.86,0"
                 style="fill:none;stroke:#ee2922;stroke-width:6.57221985;stroke-linecap:butt;stroke-linejoin:round;stroke-miterlimit:10;stroke-opacity:1;stroke-dasharray:none"
                 id="path172"
                 inkscape:connector-curvature="0" /></g></g><g
             transform="scale(0.1,0.1)"
             id="g174"><g
               id="g176"
               clip-path="url(#clipPath178)"><path
                 d="m 4474.34,6370.01 0,-94.94 m -26.28,94.94 26.65,0 m -26.65,-94.94 26.65,0 m -2595.13,-52.22 68.3,-31.41 68.28,55.5 136.59,-95.31 136.59,66.46 136.58,-11.31 68.29,-15.34 68.31,85.45 136.57,-69.38 79.99,13.51 22.28,-33.59 34.32,353.14 33.96,199.77 20.47,-511.28 13.86,97.51 68.3,-53.69 33.96,-91.66 20.44,0.37 13.9,77.79 33.95,-81.09 20.46,-2.54 13.88,-1.11 33.95,0.74 33.96,46 34.33,-12.77 1.47,40.9 32.51,69.74 34.32,6.6 33.95,13.48 68.3,41.65 68.31,-36.16 13.87,-33.96 10.94,459.79 9.52,-68.29 20.44,-476.59 13.51,33.98 13.89,33.93 20.45,142.82 33.96,-46.02 34.34,-15.71 33.94,-54.06 68.29,-39.81 68.31,3.65 68.29,38.74 68.29,113.55 27.4,-211.79 40.89,90.92 68.3,113.95 10.95,136.21 23.01,-242.49 34.34,43.82 68.29,-74.85 33.94,13.87 38,137.68 30.33,-123.07 34.3,25.55 68.29,-3.64 68.3,-20.43"
                 style="fill:none;stroke:#ee2922;stroke-width:6.57221985;stroke-linecap:butt;stroke-linejoin:round;stroke-miterlimit:10;stroke-opacity:1;stroke-dasharray:none"
                 id="path182"
                 inkscape:connector-curvature="0" /></g></g></g><path
           inkscape:connector-curvature="0"
           id="path192"
           style="fill:#ee2922;fill-opacity:1;fill-rule:nonzero;stroke:none"
           d="m 186.57,620.898 2.77578,0 0,2.77422 -2.77578,0 0,-2.77422 z" /><path
           inkscape:connector-curvature="0"
           id="path194"
           style="fill:none;stroke:#ee2922;stroke-width:0.65722197;stroke-linecap:butt;stroke-linejoin:miter;stroke-miterlimit:10;stroke-opacity:1;stroke-dasharray:none"
           d="m 189.346,623.672 -2.776,0 0,-2.774 2.776,0 0,2.774 z m -2.776,0 z" /><path
           inkscape:connector-curvature="0"
           id="path196"
           style="fill:#ee2922;fill-opacity:1;fill-rule:nonzero;stroke:none"
           d="m 193.4,617.757 2.77461,0 0,2.77266 -2.77461,0 0,-2.77266 z" /><path
           inkscape:connector-curvature="0"
           id="path198"
           style="fill:none;stroke:#ee2922;stroke-width:0.65722197;stroke-linecap:butt;stroke-linejoin:miter;stroke-miterlimit:10;stroke-opacity:1;stroke-dasharray:none"
           d="m 196.175,620.53 -2.775,0 0,-2.773 2.775,0 0,2.773 z m -2.775,0 z" /><path
           inkscape:connector-curvature="0"
           id="path200"
           style="fill:#ee2922;fill-opacity:1;fill-rule:nonzero;stroke:none"
           d="m 200.228,623.308 2.77578,0 0,2.77617 -2.77578,0 0,-2.77617 z" /><path
           inkscape:connector-curvature="0"
           id="path202"
           style="fill:none;stroke:#ee2922;stroke-width:0.65722197;stroke-linecap:butt;stroke-linejoin:miter;stroke-miterlimit:10;stroke-opacity:1;stroke-dasharray:none"
           d="m 203.004,626.083 -2.776,0 0,-2.776 2.776,0 0,2.776 z m -2.776,0 z" /><path
           inkscape:connector-curvature="0"
           id="path204"
           style="fill:#ee2922;fill-opacity:1;fill-rule:nonzero;stroke:none"
           d="m 213.887,613.776 2.77617,0 0,2.77383 -2.77617,0 0,-2.77383 z" /><path
           inkscape:connector-curvature="0"
           id="path206"
           style="fill:none;stroke:#ee2922;stroke-width:0.65722197;stroke-linecap:butt;stroke-linejoin:miter;stroke-miterlimit:10;stroke-opacity:1;stroke-dasharray:none"
           d="m 216.664,616.55 -2.776,0 0,-2.774 2.776,0 0,2.774 z m -2.777,0 z" /><path
           inkscape:connector-curvature="0"
           id="path208"
           style="fill:#ee2922;fill-opacity:1;fill-rule:nonzero;stroke:none"
           d="m 227.546,620.422 2.77617,0 0,2.77617 -2.77617,0 0,-2.77617 z" /><path
           inkscape:connector-curvature="0"
           id="path210"
           style="fill:none;stroke:#ee2922;stroke-width:0.65722197;stroke-linecap:butt;stroke-linejoin:miter;stroke-miterlimit:10;stroke-opacity:1;stroke-dasharray:none"
           d="m 230.321,623.198 -2.776,0 0,-2.777 2.776,0 0,2.777 z m -2.775,0 z" /><path
           inkscape:connector-curvature="0"
           id="path212"
           style="fill:#ee2922;fill-opacity:1;fill-rule:nonzero;stroke:none"
           d="m 241.205,619.29 2.77344,0 0,2.77578 -2.77344,0 0,-2.77578 z" /><path
           inkscape:connector-curvature="0"
           id="path214"
           style="fill:none;stroke:#ee2922;stroke-width:0.65722197;stroke-linecap:butt;stroke-linejoin:miter;stroke-miterlimit:10;stroke-opacity:1;stroke-dasharray:none"
           d="m 243.979,622.066 -2.774,0 0,-2.776 2.774,0 0,2.776 z m -2.774,0 z" /><path
           inkscape:connector-curvature="0"
           id="path216"
           style="fill:#ee2922;fill-opacity:1;fill-rule:nonzero;stroke:none"
           d="m 248.034,617.757 2.77461,0 0,2.77266 -2.77461,0 0,-2.77266 z" /><path
           inkscape:connector-curvature="0"
           id="path218"
           style="fill:none;stroke:#ee2922;stroke-width:0.65722197;stroke-linecap:butt;stroke-linejoin:miter;stroke-miterlimit:10;stroke-opacity:1;stroke-dasharray:none"
           d="m 250.809,620.53 -2.775,0 0,-2.773 2.775,0 0,2.773 z m -2.775,0 z" /><path
           inkscape:connector-curvature="0"
           id="path220"
           style="fill:#ee2922;fill-opacity:1;fill-rule:nonzero;stroke:none"
           d="m 254.863,626.302 2.77539,0 0,2.77539 -2.77539,0 0,-2.77539 z" /><path
           inkscape:connector-curvature="0"
           id="path222"
           style="fill:none;stroke:#ee2922;stroke-width:0.65722197;stroke-linecap:butt;stroke-linejoin:miter;stroke-miterlimit:10;stroke-opacity:1;stroke-dasharray:none"
           d="m 257.639,629.077 -2.776,0 0,-2.775 2.776,0 0,2.775 z m -2.776,0 z" /><path
           inkscape:connector-curvature="0"
           id="path224"
           style="fill:#ee2922;fill-opacity:1;fill-rule:nonzero;stroke:none"
           d="m 268.521,619.363 2.77656,0 0,2.775 -2.77656,0 0,-2.775 z" /><path
           inkscape:connector-curvature="0"
           id="path226"
           style="fill:none;stroke:#ee2922;stroke-width:0.65722197;stroke-linecap:butt;stroke-linejoin:miter;stroke-miterlimit:10;stroke-opacity:1;stroke-dasharray:none"
           d="m 271.298,622.138 -2.777,0 0,-2.775 2.777,0 0,2.775 z m -2.777,0 z" /><path
           inkscape:connector-curvature="0"
           id="path228"
           style="fill:#ee2922;fill-opacity:1;fill-rule:nonzero;stroke:none"
           d="m 276.52,620.715 2.77461,0 0,2.77617 -2.77461,0 0,-2.77617 z" /><path
           inkscape:connector-curvature="0"
           id="path230"
           style="fill:none;stroke:#ee2922;stroke-width:0.65722197;stroke-linecap:butt;stroke-linejoin:miter;stroke-miterlimit:10;stroke-opacity:1;stroke-dasharray:none"
           d="m 279.295,623.49 -2.775,0 0,-2.776 2.775,0 0,2.776 z m -2.775,0 z" /><path
           inkscape:connector-curvature="0"
           id="path232"
           style="fill:#ee2922;fill-opacity:1;fill-rule:nonzero;stroke:none"
           d="m 278.748,617.355 2.77461,0 0,2.775 -2.77461,0 0,-2.775 z" /><path
           inkscape:connector-curvature="0"
           id="path234"
           style="fill:none;stroke:#ee2922;stroke-width:0.65722197;stroke-linecap:butt;stroke-linejoin:miter;stroke-miterlimit:10;stroke-opacity:1;stroke-dasharray:none"
           d="m 281.522,620.129 -2.774,0 0,-2.776 2.774,0 0,2.776 z m -2.774,0 z" /><path
           inkscape:connector-curvature="0"
           id="path236"
           style="fill:#ee2922;fill-opacity:1;fill-rule:nonzero;stroke:none"
           d="m 282.18,652.671 2.77383,0 0,2.775 -2.77383,0 0,-2.775 z" /><path
           inkscape:connector-curvature="0"
           id="path238"
           style="fill:none;stroke:#ee2922;stroke-width:0.65722197;stroke-linecap:butt;stroke-linejoin:miter;stroke-miterlimit:10;stroke-opacity:1;stroke-dasharray:none"
           d="m 284.954,655.445 -2.774,0 0,-2.775 2.774,0 0,2.775 z m -2.774,0 z" /><path
           inkscape:connector-curvature="0"
           id="path240"
           style="fill:#ee2922;fill-opacity:1;fill-rule:nonzero;stroke:none"
           d="m 285.577,672.646 2.77461,0 0,2.775 -2.77461,0 0,-2.775 z" /><path
           inkscape:connector-curvature="0"
           id="path242"
           style="fill:none;stroke:#ee2922;stroke-width:0.65722197;stroke-linecap:butt;stroke-linejoin:miter;stroke-miterlimit:10;stroke-opacity:1;stroke-dasharray:none"
           d="m 288.351,675.421 -2.774,0 0,-2.775 2.774,0 0,2.775 z m -2.774,0 z" /><path
           inkscape:connector-curvature="0"
           id="path244"
           style="fill:#ee2922;fill-opacity:1;fill-rule:nonzero;stroke:none"
           d="m 287.621,621.518 2.77578,0 0,2.77578 -2.77578,0 0,-2.77578 z" /><path
           inkscape:connector-curvature="0"
           id="path246"
           style="fill:none;stroke:#ee2922;stroke-width:0.65722197;stroke-linecap:butt;stroke-linejoin:miter;stroke-miterlimit:10;stroke-opacity:1;stroke-dasharray:none"
           d="m 290.397,624.293 -2.776,0 0,-2.776 2.776,0 0,2.776 z m -2.776,0 z" /><path
           inkscape:connector-curvature="0"
           id="path248"
           style="fill:#ee2922;fill-opacity:1;fill-rule:nonzero;stroke:none"
           d="m 289.011,631.268 2.77578,0 0,2.77578 -2.77578,0 0,-2.77578 z" /><path
           inkscape:connector-curvature="0"
           id="path250"
           style="fill:none;stroke:#ee2922;stroke-width:0.65722197;stroke-linecap:butt;stroke-linejoin:miter;stroke-miterlimit:10;stroke-opacity:1;stroke-dasharray:none"
           d="m 291.786,634.044 -2.775,0 0,-2.776 2.775,0 0,2.776 z m -2.775,0 z" /><path
           inkscape:connector-curvature="0"
           id="path252"
           style="fill:#ee2922;fill-opacity:1;fill-rule:nonzero;stroke:none"
           d="m 295.839,625.9 2.77461,0 0,2.77617 -2.77461,0 0,-2.77617 z" /><path
           inkscape:connector-curvature="0"
           id="path254"
           style="fill:none;stroke:#ee2922;stroke-width:0.65722197;stroke-linecap:butt;stroke-linejoin:miter;stroke-miterlimit:10;stroke-opacity:1;stroke-dasharray:none"
           d="m 298.614,628.675 -2.775,0 0,-2.776 2.775,0 0,2.776 z m -2.775,0 z" /><path
           inkscape:connector-curvature="0"
           id="path256"
           style="fill:#ee2922;fill-opacity:1;fill-rule:nonzero;stroke:none"
           d="m 299.236,616.734 2.77461,0 0,2.77539 -2.77461,0 0,-2.77539 z" /><path
           inkscape:connector-curvature="0"
           id="path258"
           style="fill:none;stroke:#ee2922;stroke-width:0.65722197;stroke-linecap:butt;stroke-linejoin:miter;stroke-miterlimit:10;stroke-opacity:1;stroke-dasharray:none"
           d="m 302.011,619.509 -2.775,0 0,-2.775 2.775,0 0,2.775 z m -2.775,0 z" /><path
           inkscape:connector-curvature="0"
           id="path260"
           style="fill:#ee2922;fill-opacity:1;fill-rule:nonzero;stroke:none"
           d="m 301.28,616.771 2.77656,0 0,2.77266 -2.77656,0 0,-2.77266 z" /><path
           inkscape:connector-curvature="0"
           id="path262"
           style="fill:none;stroke:#ee2922;stroke-width:0.65722197;stroke-linecap:butt;stroke-linejoin:miter;stroke-miterlimit:10;stroke-opacity:1;stroke-dasharray:none"
           d="m 304.057,619.544 -2.777,0 0,-2.773 2.777,0 0,2.773 z m -2.777,0 z" /><path
           inkscape:connector-curvature="0"
           id="path264"
           style="fill:#ee2922;fill-opacity:1;fill-rule:nonzero;stroke:none"
           d="m 302.667,624.55 2.77695,0 0,2.77422 -2.77695,0 0,-2.77422 z" /><path
           inkscape:connector-curvature="0"
           id="path266"
           style="fill:none;stroke:#ee2922;stroke-width:0.65722197;stroke-linecap:butt;stroke-linejoin:miter;stroke-miterlimit:10;stroke-opacity:1;stroke-dasharray:none"
           d="m 305.444,627.324 -2.777,0 0,-2.774 2.777,0 0,2.774 z m -2.777,0 z" /><path
           inkscape:connector-curvature="0"
           id="path268"
           style="fill:#ee2922;fill-opacity:1;fill-rule:nonzero;stroke:none"
           d="m 306.064,616.441 2.77695,0 0,2.77539 -2.77695,0 0,-2.77539 z" /><path
           inkscape:connector-curvature="0"
           id="path270"
           style="fill:none;stroke:#ee2922;stroke-width:0.65722197;stroke-linecap:butt;stroke-linejoin:miter;stroke-miterlimit:10;stroke-opacity:1;stroke-dasharray:none"
           d="m 308.841,619.216 -2.777,0 0,-2.775 2.777,0 0,2.775 z m -2.777,0 z" /><path
           inkscape:connector-curvature="0"
           id="path272"
           style="fill:#ee2922;fill-opacity:1;fill-rule:nonzero;stroke:none"
           d="m 308.11,616.186 2.77656,0 0,2.775 -2.77656,0 0,-2.775 z" /><path
           inkscape:connector-curvature="0"
           id="path274"
           style="fill:none;stroke:#ee2922;stroke-width:0.65722197;stroke-linecap:butt;stroke-linejoin:miter;stroke-miterlimit:10;stroke-opacity:1;stroke-dasharray:none"
           d="m 310.886,618.961 -2.776,0 0,-2.775 2.776,0 0,2.775 z m -2.776,0 z" /><path
           inkscape:connector-curvature="0"
           id="path276"
           style="fill:#ee2922;fill-opacity:1;fill-rule:nonzero;stroke:none"
           d="m 309.498,616.076 2.77383,0 0,2.775 -2.77383,0 0,-2.775 z" /><path
           inkscape:connector-curvature="0"
           id="path278"
           style="fill:none;stroke:#ee2922;stroke-width:0.65722197;stroke-linecap:butt;stroke-linejoin:miter;stroke-miterlimit:10;stroke-opacity:1;stroke-dasharray:none"
           d="m 312.272,618.851 -2.774,0 0,-2.775 2.774,0 0,2.775 z m -2.774,0 z" /><path
           inkscape:connector-curvature="0"
           id="path280"
           style="fill:#ee2922;fill-opacity:1;fill-rule:nonzero;stroke:none"
           d="m 312.895,616.148 2.77383,0 0,2.77695 -2.77383,0 0,-2.77695 z" /><path
           inkscape:connector-curvature="0"
           id="path282"
           style="fill:none;stroke:#ee2922;stroke-width:0.65722197;stroke-linecap:butt;stroke-linejoin:miter;stroke-miterlimit:10;stroke-opacity:1;stroke-dasharray:none"
           d="m 315.669,618.925 -2.774,0 0,-2.777 2.774,0 0,2.777 z m -2.774,0 z" /><path
           inkscape:connector-curvature="0"
           id="path284"
           style="fill:#ee2922;fill-opacity:1;fill-rule:nonzero;stroke:none"
           d="m 316.29,620.751 2.77539,0 0,2.775 -2.77539,0 0,-2.775 z" /><path
           inkscape:connector-curvature="0"
           id="path286"
           style="fill:none;stroke:#ee2922;stroke-width:0.65722197;stroke-linecap:butt;stroke-linejoin:miter;stroke-miterlimit:10;stroke-opacity:1;stroke-dasharray:none"
           d="m 319.066,623.525 -2.776,0 0,-2.775 2.776,0 0,2.775 z m -2.776,0 z" /><path
           inkscape:connector-curvature="0"
           id="path288"
           style="fill:#ee2922;fill-opacity:1;fill-rule:nonzero;stroke:none"
           d="m 319.722,619.472 2.77695,0 0,2.77539 -2.77695,0 0,-2.77539 z" /><path
           inkscape:connector-curvature="0"
           id="path290"
           style="fill:none;stroke:#ee2922;stroke-width:0.65722197;stroke-linecap:butt;stroke-linejoin:miter;stroke-miterlimit:10;stroke-opacity:1;stroke-dasharray:none"
           d="m 322.499,622.248 -2.777,0 0,-2.775 2.777,0 0,2.775 z m -2.777,0 z" /><path
           inkscape:connector-curvature="0"
           id="path292"
           style="fill:#ee2922;fill-opacity:1;fill-rule:nonzero;stroke:none"
           d="m 319.869,623.563 2.77578,0 0,2.77422 -2.77578,0 0,-2.77422 z" /><path
           inkscape:connector-curvature="0"
           id="path294"
           style="fill:none;stroke:#ee2922;stroke-width:0.65722197;stroke-linecap:butt;stroke-linejoin:miter;stroke-miterlimit:10;stroke-opacity:1;stroke-dasharray:none"
           d="m 322.645,626.338 -2.776,0 0,-2.774 2.776,0 0,2.774 z m -2.776,0 z" /><path
           inkscape:connector-curvature="0"
           id="path296"
           style="fill:#ee2922;fill-opacity:1;fill-rule:nonzero;stroke:none"
           d="m 323.12,630.538 2.77461,0 0,2.77617 -2.77461,0 0,-2.77617 z" /><path
           inkscape:connector-curvature="0"
           id="path298"
           style="fill:none;stroke:#ee2922;stroke-width:0.65722197;stroke-linecap:butt;stroke-linejoin:miter;stroke-miterlimit:10;stroke-opacity:1;stroke-dasharray:none"
           d="m 325.895,633.315 -2.775,0 0,-2.776 2.775,0 0,2.776 z m -2.775,0 z" /><path
           inkscape:connector-curvature="0"
           id="path300"
           style="fill:#ee2922;fill-opacity:1;fill-rule:nonzero;stroke:none"
           d="m 326.552,631.196 2.77461,0 0,2.77539 -2.77461,0 0,-2.77539 z" /><path
           inkscape:connector-curvature="0"
           id="path302"
           style="fill:none;stroke:#ee2922;stroke-width:0.65722197;stroke-linecap:butt;stroke-linejoin:miter;stroke-miterlimit:10;stroke-opacity:1;stroke-dasharray:none"
           d="m 329.327,633.971 -2.775,0 0,-2.775 2.775,0 0,2.775 z m -2.775,0 z" /><path
           inkscape:connector-curvature="0"
           id="path304"
           style="fill:#ee2922;fill-opacity:1;fill-rule:nonzero;stroke:none"
           d="m 329.95,632.548 2.77383,0 0,2.77422 -2.77383,0 0,-2.77422 z" /><path
           inkscape:connector-curvature="0"
           id="path306"
           style="fill:none;stroke:#ee2922;stroke-width:0.65722197;stroke-linecap:butt;stroke-linejoin:miter;stroke-miterlimit:10;stroke-opacity:1;stroke-dasharray:none"
           d="m 332.723,635.322 -2.773,0 0,-2.774 2.773,0 0,2.774 z m -2.773,0 z" /><path
           inkscape:connector-curvature="0"
           id="path308"
           style="fill:#ee2922;fill-opacity:1;fill-rule:nonzero;stroke:none"
           d="m 336.777,636.711 2.77773,0 0,2.77422 -2.77773,0 0,-2.77422 z" /><path
           inkscape:connector-curvature="0"
           id="path310"
           style="fill:none;stroke:#ee2922;stroke-width:0.65722197;stroke-linecap:butt;stroke-linejoin:miter;stroke-miterlimit:10;stroke-opacity:1;stroke-dasharray:none"
           d="m 339.554,639.486 -2.777,0 0,-2.776 2.777,0 0,2.776 z m -2.777,0 z" /><path
           inkscape:connector-curvature="0"
           id="path312"
           style="fill:#ee2922;fill-opacity:1;fill-rule:nonzero;stroke:none"
           d="m 343.607,633.095 2.77578,0 0,2.77344 -2.77578,0 0,-2.77344 z" /><path
           inkscape:connector-curvature="0"
           id="path314"
           style="fill:none;stroke:#ee2922;stroke-width:0.65722197;stroke-linecap:butt;stroke-linejoin:miter;stroke-miterlimit:10;stroke-opacity:1;stroke-dasharray:none"
           d="m 346.383,635.869 -2.776,0 0,-2.776 2.776,0 0,2.776 z m -2.776,0 z" /><path
           inkscape:connector-curvature="0"
           id="path316"
           style="fill:#ee2922;fill-opacity:1;fill-rule:nonzero;stroke:none"
           d="m 344.996,629.699 2.77383,0 0,2.77539 -2.77383,0 0,-2.77539 z" /><path
           inkscape:connector-curvature="0"
           id="path318"
           style="fill:none;stroke:#ee2922;stroke-width:0.65722197;stroke-linecap:butt;stroke-linejoin:miter;stroke-miterlimit:10;stroke-opacity:1;stroke-dasharray:none"
           d="m 347.77,632.474 -2.774,0 0,-2.776 2.774,0 0,2.776 z m -2.774,0 z" /><path
           inkscape:connector-curvature="0"
           id="path320"
           style="fill:#ee2922;fill-opacity:1;fill-rule:nonzero;stroke:none"
           d="m 346.091,675.679 2.77383,0 0,2.775 -2.77383,0 0,-2.775 z" /><path
           inkscape:connector-curvature="0"
           id="path322"
           style="fill:none;stroke:#ee2922;stroke-width:0.65722197;stroke-linecap:butt;stroke-linejoin:miter;stroke-miterlimit:10;stroke-opacity:1;stroke-dasharray:none"
           d="m 348.865,678.453 -2.774,0 0,-2.775 2.774,0 0,2.775 z m -2.774,0 z" /><path
           inkscape:connector-curvature="0"
           id="path324"
           style="fill:#ee2922;fill-opacity:1;fill-rule:nonzero;stroke:none"
           d="m 347.041,668.848 2.77461,0 0,2.77461 -2.77461,0 0,-2.77461 z" /><path
           inkscape:connector-curvature="0"
           id="path326"
           style="fill:none;stroke:#ee2922;stroke-width:0.65722197;stroke-linecap:butt;stroke-linejoin:miter;stroke-miterlimit:10;stroke-opacity:1;stroke-dasharray:none"
           d="m 349.815,671.623 -2.774,0 0,-2.775 2.774,0 0,2.775 z m -2.774,0 z" /><path
           inkscape:connector-curvature="0"
           id="path328"
           style="fill:#ee2922;fill-opacity:1;fill-rule:nonzero;stroke:none"
           d="m 349.086,621.189 2.77383,0 0,2.77539 -2.77383,0 0,-2.77539 z" /><path
           inkscape:connector-curvature="0"
           id="path330"
           style="fill:none;stroke:#ee2922;stroke-width:0.65722197;stroke-linecap:butt;stroke-linejoin:miter;stroke-miterlimit:10;stroke-opacity:1;stroke-dasharray:none"
           d="m 351.86,623.964 -2.774,0 0,-2.775 2.774,0 0,2.775 z m -2.774,0 z" /><path
           inkscape:connector-curvature="0"
           id="path332"
           style="fill:#ee2922;fill-opacity:1;fill-rule:nonzero;stroke:none"
           d="m 350.436,624.584 2.77656,0 0,2.77617 -2.77656,0 0,-2.77617 z" /><path
           inkscape:connector-curvature="0"
           id="path334"
           style="fill:none;stroke:#ee2922;stroke-width:0.65722197;stroke-linecap:butt;stroke-linejoin:miter;stroke-miterlimit:10;stroke-opacity:1;stroke-dasharray:none"
           d="m 353.212,627.36 -2.776,0 0,-2.776 2.776,0 0,2.776 z m -2.776,0 z" /><path
           inkscape:connector-curvature="0"
           id="path336"
           style="fill:#ee2922;fill-opacity:1;fill-rule:nonzero;stroke:none"
           d="m 351.824,627.982 2.77578,0 0,2.77422 -2.77578,0 0,-2.77422 z" /><path
           inkscape:connector-curvature="0"
           id="path338"
           style="fill:none;stroke:#ee2922;stroke-width:0.65722197;stroke-linecap:butt;stroke-linejoin:miter;stroke-miterlimit:10;stroke-opacity:1;stroke-dasharray:none"
           d="m 354.6,630.757 -2.776,0 0,-2.775 2.776,0 0,2.775 z m -2.776,0 z" /><path
           inkscape:connector-curvature="0"
           id="path340"
           style="fill:#ee2922;fill-opacity:1;fill-rule:nonzero;stroke:none"
           d="m 353.87,642.263 2.77539,0 0,2.77344 -2.77539,0 0,-2.77344 z" /><path
           inkscape:connector-curvature="0"
           id="path342"
           style="fill:none;stroke:#ee2922;stroke-width:0.65722197;stroke-linecap:butt;stroke-linejoin:miter;stroke-miterlimit:10;stroke-opacity:1;stroke-dasharray:none"
           d="m 356.645,645.036 -2.775,0 0,-2.774 2.775,0 0,2.774 z m -2.775,0 z" /><path
           inkscape:connector-curvature="0"
           id="path344"
           style="fill:#ee2922;fill-opacity:1;fill-rule:nonzero;stroke:none"
           d="m 357.267,637.659 2.77383,0 0,2.77539 -2.77383,0 0,-2.77539 z" /><path
           inkscape:connector-curvature="0"
           id="path346"
           style="fill:none;stroke:#ee2922;stroke-width:0.65722197;stroke-linecap:butt;stroke-linejoin:miter;stroke-miterlimit:10;stroke-opacity:1;stroke-dasharray:none"
           d="m 360.041,640.435 -2.774,0 0,-2.775 2.774,0 0,2.775 z m -2.774,0 z" /><path
           inkscape:connector-curvature="0"
           id="path348"
           style="fill:#ee2922;fill-opacity:1;fill-rule:nonzero;stroke:none"
           d="m 360.699,636.089 2.77383,0 0,2.775 -2.77383,0 0,-2.775 z" /><path
           inkscape:connector-curvature="0"
           id="path350"
           style="fill:none;stroke:#ee2922;stroke-width:0.65722197;stroke-linecap:butt;stroke-linejoin:miter;stroke-miterlimit:10;stroke-opacity:1;stroke-dasharray:none"
           d="m 363.473,638.864 -2.774,0 0,-2.775 2.774,0 0,2.775 z m -2.774,0 z" /><path
           inkscape:connector-curvature="0"
           id="path352"
           style="fill:#ee2922;fill-opacity:1;fill-rule:nonzero;stroke:none"
           d="m 364.095,630.683 2.77539,0 0,2.77734 -2.77539,0 0,-2.77734 z" /><path
           inkscape:connector-curvature="0"
           id="path354"
           style="fill:none;stroke:#ee2922;stroke-width:0.65722197;stroke-linecap:butt;stroke-linejoin:miter;stroke-miterlimit:10;stroke-opacity:1;stroke-dasharray:none"
           d="m 366.871,633.461 -2.776,0 0,-2.777 2.776,0 0,2.777 z m -2.776,0 z" /><path
           inkscape:connector-curvature="0"
           id="path356"
           style="fill:#ee2922;fill-opacity:1;fill-rule:nonzero;stroke:none"
           d="m 370.924,626.704 2.77539,0 0,2.775 -2.77539,0 0,-2.775 z" /><path
           inkscape:connector-curvature="0"
           id="path358"
           style="fill:none;stroke:#ee2922;stroke-width:0.65722197;stroke-linecap:butt;stroke-linejoin:miter;stroke-miterlimit:10;stroke-opacity:1;stroke-dasharray:none"
           d="m 373.7,629.479 -2.776,0 0,-2.776 2.776,0 0,2.776 z m -2.776,0 z" /><path
           inkscape:connector-curvature="0"
           id="path360"
           style="fill:#ee2922;fill-opacity:1;fill-rule:nonzero;stroke:none"
           d="m 377.753,627.068 2.77539,0 0,2.77578 -2.77539,0 0,-2.77578 z" /><path
           inkscape:connector-curvature="0"
           id="path362"
           style="fill:none;stroke:#ee2922;stroke-width:0.65722197;stroke-linecap:butt;stroke-linejoin:miter;stroke-miterlimit:10;stroke-opacity:1;stroke-dasharray:none"
           d="m 380.529,629.844 -2.776,0 0,-2.776 2.776,0 0,2.776 z m -2.776,0 z" /><path
           inkscape:connector-curvature="0"
           id="path364"
           style="fill:#ee2922;fill-opacity:1;fill-rule:nonzero;stroke:none"
           d="m 384.582,630.941 2.77656,0 0,2.775 -2.77656,0 0,-2.775 z" /><path
           inkscape:connector-curvature="0"
           id="path366"
           style="fill:none;stroke:#ee2922;stroke-width:0.65722197;stroke-linecap:butt;stroke-linejoin:miter;stroke-miterlimit:10;stroke-opacity:1;stroke-dasharray:none"
           d="m 387.359,633.716 -2.777,0 0,-2.775 2.777,0 0,2.775 z m -2.777,0 z" /><path
           inkscape:connector-curvature="0"
           id="path368"
           style="fill:#ee2922;fill-opacity:1;fill-rule:nonzero;stroke:none"
           d="m 391.412,642.299 2.775,0 0,2.775 -2.775,0 0,-2.775 z" /><path
           inkscape:connector-curvature="0"
           id="path370"
           style="fill:none;stroke:#ee2922;stroke-width:0.65722197;stroke-linecap:butt;stroke-linejoin:miter;stroke-miterlimit:10;stroke-opacity:1;stroke-dasharray:none"
           d="m 394.188,645.074 -2.776,0 0,-2.776 2.776,0 0,2.776 z m -2.776,0 z" /><path
           inkscape:connector-curvature="0"
           id="path372"
           style="fill:#ee2922;fill-opacity:1;fill-rule:nonzero;stroke:none"
           d="m 394.15,621.117 2.77578,0 0,2.77422 -2.77578,0 0,-2.77422 z" /><path
           inkscape:connector-curvature="0"
           id="path374"
           style="fill:none;stroke:#ee2922;stroke-width:0.65722197;stroke-linecap:butt;stroke-linejoin:miter;stroke-miterlimit:10;stroke-opacity:1;stroke-dasharray:none"
           d="m 396.926,623.891 -2.776,0 0,-2.774 2.776,0 0,2.774 z m -2.776,0 z" /><path
           inkscape:connector-curvature="0"
           id="path376"
           style="fill:#ee2922;fill-opacity:1;fill-rule:nonzero;stroke:none"
           d="m 398.241,630.209 2.77695,0 0,2.77539 -2.77695,0 0,-2.77539 z" /><path
           inkscape:connector-curvature="0"
           id="path378"
           style="fill:none;stroke:#ee2922;stroke-width:0.65722197;stroke-linecap:butt;stroke-linejoin:miter;stroke-miterlimit:10;stroke-opacity:1;stroke-dasharray:none"
           d="m 401.017,632.985 -2.776,0 0,-2.775 2.776,0 0,2.775 z m -2.776,0 z" /><path
           inkscape:connector-curvature="0"
           id="path380"
           style="fill:#ee2922;fill-opacity:1;fill-rule:nonzero;stroke:none"
           d="m 405.072,641.605 2.77383,0 0,2.775 -2.77383,0 0,-2.775 z" /><path
           inkscape:connector-curvature="0"
           id="path382"
           style="fill:none;stroke:#ee2922;stroke-width:0.65722197;stroke-linecap:butt;stroke-linejoin:miter;stroke-miterlimit:10;stroke-opacity:1;stroke-dasharray:none"
           d="m 407.846,644.38 -2.774,0 0,-2.775 2.774,0 0,2.775 z m -2.774,0 z" /><path
           inkscape:connector-curvature="0"
           id="path384"
           style="fill:#ee2922;fill-opacity:1;fill-rule:nonzero;stroke:none"
           d="m 406.166,655.226 2.77578,0 0,2.77617 -2.77578,0 0,-2.77617 z" /><path
           inkscape:connector-curvature="0"
           id="path386"
           style="fill:none;stroke:#ee2922;stroke-width:0.65722197;stroke-linecap:butt;stroke-linejoin:miter;stroke-miterlimit:10;stroke-opacity:1;stroke-dasharray:none"
           d="m 408.942,658.002 -2.776,0 0,-2.776 2.776,0 0,2.776 z m -2.776,0 z" /><path
           inkscape:connector-curvature="0"
           id="path388"
           style="fill:#ee2922;fill-opacity:1;fill-rule:nonzero;stroke:none"
           d="m 408.468,630.977 2.77539,0 0,2.775 -2.77539,0 0,-2.775 z" /><path
           inkscape:connector-curvature="0"
           id="path390"
           style="fill:none;stroke:#ee2922;stroke-width:0.65722197;stroke-linecap:butt;stroke-linejoin:miter;stroke-miterlimit:10;stroke-opacity:1;stroke-dasharray:none"
           d="m 411.243,633.752 -2.775,0 0,-2.775 2.775,0 0,2.775 z m -2.775,0 z" /><path
           inkscape:connector-curvature="0"
           id="path392"
           style="fill:#ee2922;fill-opacity:1;fill-rule:nonzero;stroke:none"
           d="m 411.9,635.359 2.77461,0 0,2.77422 -2.77461,0 0,-2.77422 z" /><path
           inkscape:connector-curvature="0"
           id="path394"
           style="fill:none;stroke:#ee2922;stroke-width:0.65722197;stroke-linecap:butt;stroke-linejoin:miter;stroke-miterlimit:10;stroke-opacity:1;stroke-dasharray:none"
           d="m 414.675,638.134 -2.775,0 0,-2.774 2.775,0 0,2.774 z m -2.775,0 z" /><path
           inkscape:connector-curvature="0"
           id="path396"
           style="fill:#ee2922;fill-opacity:1;fill-rule:nonzero;stroke:none"
           d="m 418.729,627.872 2.77656,0 0,2.77617 -2.77656,0 0,-2.77617 z" /><path
           inkscape:connector-curvature="0"
           id="path398"
           style="fill:none;stroke:#ee2922;stroke-width:0.65722197;stroke-linecap:butt;stroke-linejoin:miter;stroke-miterlimit:10;stroke-opacity:1;stroke-dasharray:none"
           d="m 421.506,630.648 -2.777,0 0,-2.776 2.777,0 0,2.776 z m -2.777,0 z" /><path
           inkscape:connector-curvature="0"
           id="path400"
           style="fill:#ee2922;fill-opacity:1;fill-rule:nonzero;stroke:none"
           d="m 422.126,629.261 2.77578,0 0,2.77539 -2.77578,0 0,-2.77539 z" /><path
           inkscape:connector-curvature="0"
           id="path402"
           style="fill:none;stroke:#ee2922;stroke-width:0.65722197;stroke-linecap:butt;stroke-linejoin:miter;stroke-miterlimit:10;stroke-opacity:1;stroke-dasharray:none"
           d="m 424.902,632.036 -2.776,0 0,-2.776 2.776,0 0,2.776 z m -2.776,0 z" /><path
           inkscape:connector-curvature="0"
           id="path404"
           style="fill:#ee2922;fill-opacity:1;fill-rule:nonzero;stroke:none"
           d="m 425.924,643.028 2.77539,0 0,2.77617 -2.77539,0 0,-2.77617 z" /><path
           inkscape:connector-curvature="0"
           id="path406"
           style="fill:none;stroke:#ee2922;stroke-width:0.65722197;stroke-linecap:butt;stroke-linejoin:miter;stroke-miterlimit:10;stroke-opacity:1;stroke-dasharray:none"
           d="m 428.699,645.805 -2.775,0 0,-2.776 2.775,0 0,2.776 z m -2.775,0 z" /><path
           inkscape:connector-curvature="0"
           id="path408"
           style="fill:#ee2922;fill-opacity:1;fill-rule:nonzero;stroke:none"
           d="m 428.955,630.721 2.77656,0 0,2.77734 -2.77656,0 0,-2.77734 z" /><path
           inkscape:connector-curvature="0"
           id="path410"
           style="fill:none;stroke:#ee2922;stroke-width:0.65722197;stroke-linecap:butt;stroke-linejoin:miter;stroke-miterlimit:10;stroke-opacity:1;stroke-dasharray:none"
           d="m 431.732,633.498 -2.777,0 0,-2.778 2.777,0 0,2.778 z m -2.777,0 z" /><path
           inkscape:connector-curvature="0"
           id="path412"
           style="fill:#ee2922;fill-opacity:1;fill-rule:nonzero;stroke:none"
           d="m 432.387,633.276 2.77539,0 0,2.77695 -2.77539,0 0,-2.77695 z" /><path
           inkscape:connector-curvature="0"
           id="path414"
           style="fill:none;stroke:#ee2922;stroke-width:0.65722197;stroke-linecap:butt;stroke-linejoin:miter;stroke-miterlimit:10;stroke-opacity:1;stroke-dasharray:none"
           d="m 435.162,636.054 -2.775,0 0,-2.777 2.775,0 0,2.777 z m -2.775,0 z" /><path
           inkscape:connector-curvature="0"
           id="path416"
           style="fill:#ee2922;fill-opacity:1;fill-rule:nonzero;stroke:none"
           d="m 439.218,632.912 2.77539,0 0,2.77422 -2.77539,0 0,-2.77422 z" /><path
           inkscape:connector-curvature="0"
           id="path418"
           style="fill:none;stroke:#ee2922;stroke-width:0.65722197;stroke-linecap:butt;stroke-linejoin:miter;stroke-miterlimit:10;stroke-opacity:1;stroke-dasharray:none"
           d="m 441.993,635.687 -2.775,0 0,-2.774 2.775,0 0,2.774 z m -2.775,0 z" /><path
           inkscape:connector-curvature="0"
           id="path420"
           style="fill:#ee2922;fill-opacity:1;fill-rule:nonzero;stroke:none"
           d="m 446.046,630.868 2.77656,0 0,2.77422 -2.77656,0 0,-2.77422 z" /><path
           inkscape:connector-curvature="0"
           id="path422"
           style="fill:none;stroke:#ee2922;stroke-width:0.65722197;stroke-linecap:butt;stroke-linejoin:miter;stroke-miterlimit:10;stroke-opacity:1;stroke-dasharray:none"
           d="m 448.822,633.641 -2.776,0 0,-2.774 2.776,0 0,2.774 z m -2.776,0 z" /><g
           id="g424"><text
   id="text426"
   transform="matrix(1,0,0,-1,319.513,565.914)"><tspan
     id="tspan428"
     y="0"
     x="0"
     style="font-size:10.47850037px;font-variant:normal;font-weight:normal;writing-mode:lr-tb;fill:#100f0d;fill-opacity:1;fill-rule:nonzero;stroke:none;font-family:CMMI10;-inkscape-font-specification:CMMI10"></tspan><tspan
     id="tspan430"
     y="-81.321899"
     x="-178.37801"
     style="font-size:10.47850037px;font-variant:normal;font-weight:normal;writing-mode:lr-tb;fill:#100f0d;fill-opacity:1;fill-rule:nonzero;stroke:none;font-family:CMMI10;-inkscape-font-specification:CMMI10">E</tspan></text>

<text
   id="text432"
   transform="matrix(1,0,0,-1,148.87133,645.66285)"><tspan
     id="tspan434"
     sodipodi:role="line"
     y="0"
     x="0 3.7589524"
     style="font-size:7.33492994px;font-variant:normal;font-weight:normal;writing-mode:lr-tb;fill:#100f0d;fill-opacity:1;fill-rule:nonzero;stroke:none;font-family:CMMI7;-inkscape-font-specification:CMMI7">c,</tspan></text>

<text
   id="text436"
   transform="matrix(1,0,0,-1,155.10453,645.66285)"><tspan
     id="tspan438"
     y="0"
     x="0"
     style="font-size:7.33492994px;font-variant:normal;font-weight:normal;writing-mode:lr-tb;fill:#100f0d;fill-opacity:1;fill-rule:nonzero;stroke:none;font-family:CMR7;-inkscape-font-specification:CMR7">2</tspan></text>

</g><path
           inkscape:connector-curvature="0"
           id="path440"
           style="fill:none;stroke:#100f0d;stroke-width:0.41902798;stroke-linecap:butt;stroke-linejoin:miter;stroke-miterlimit:10;stroke-opacity:1;stroke-dasharray:none"
           d="m 141.138,642.765 18.668,0" /><path
           inkscape:connector-curvature="0"
           id="path442"
           style="fill:#100f0d;fill-opacity:1;fill-rule:nonzero;stroke:none"
           d="m 147.387,635.326 c -0.03,-0.126 -0.115,-0.525 -0.115,-0.89 0,-0.923 0.525,-1.365 1.132,-1.365 0.388,0 0.776,0.179 1.1,0.39 0.095,0.063 0.115,0.063 0.137,0.063 0.094,0 0.105,-0.116 0.105,-0.148 0,-0.115 -0.682,-0.535 -1.364,-0.535 -1.11,0 -1.896,0.83 -1.896,1.981 0,1.604 1.405,2.653 2.768,2.653 l 0.365,0 c 0.179,0 0.315,0 0.315,-0.149 0,-0.178 -0.169,-0.178 -0.346,-0.178 l -0.325,0 c -0.954,0 -1.541,-0.607 -1.792,-1.497 l 1.697,0 c 0.179,0 0.304,0 0.304,-0.147 0,-0.178 -0.188,-0.178 -0.356,-0.178 l -1.729,0" /><g
           id="g444"><text
   id="text446"
   transform="matrix(1,0,0,-1,150.247,635.985)"><tspan
     id="tspan448"
     y="0"
     x="0"
     style="font-size:7.33492994px;font-variant:normal;font-weight:normal;writing-mode:lr-tb;fill:#100f0d;fill-opacity:1;fill-rule:nonzero;stroke:none;font-family:CMR7;-inkscape-font-specification:CMR7">2</tspan></text>

<text
   id="text450"
   transform="matrix(1,0,0,-1,277.264,708.8276)"><tspan
     id="tspan452"
     sodipodi:role="line"
     y="0"
     x="0 3.3977919 7.7638469 10.193327 14.559381"
     style="font-size:8.73211002px;font-variant:normal;font-weight:normal;writing-mode:lr-tb;fill:#100f0d;fill-opacity:1;fill-rule:nonzero;stroke:none;font-family:CMR10;-inkscape-font-specification:CMR10">(2,2)</tspan><tspan
     id="tspan454"
     sodipodi:role="line"
     y="-0.87656301"
     x="57.850399 61.247192 65.612366 68.040947 72.40612"
     style="font-size:8.73211002px;font-variant:normal;font-weight:normal;writing-mode:lr-tb;fill:#100f0d;fill-opacity:1;fill-rule:nonzero;stroke:none;font-family:CMR10;-inkscape-font-specification:CMR10">(1,2)</tspan><tspan
     id="tspan456"
     sodipodi:role="line"
     y="-0.43828201"
     x="121.3938 124.79245 129.15938 131.58972 135.95665 141.56375 144.96239 149.32933 151.75963 156.12657"
     style="font-size:8.73211002px;font-variant:normal;font-weight:normal;writing-mode:lr-tb;fill:#100f0d;fill-opacity:1;fill-rule:nonzero;stroke:none;font-family:CMR10;-inkscape-font-specification:CMR10">(1,4)(1,6)</tspan><tspan
     id="tspan458"
     sodipodi:role="line"
     y="-0.87656301"
     x="103.8649 107.26169 111.62687 114.05544 118.42062"
     style="font-size:8.73211002px;font-variant:normal;font-weight:normal;writing-mode:lr-tb;fill:#100f0d;fill-opacity:1;fill-rule:nonzero;stroke:none;font-family:CMR10;-inkscape-font-specification:CMR10">(2,6)</tspan><tspan
     id="tspan460"
     sodipodi:role="line"
     y="-1.314844"
     x="75.380096 78.776894 83.142067 85.570641 89.935822"
     style="font-size:8.73211002px;font-variant:normal;font-weight:normal;writing-mode:lr-tb;fill:#100f0d;fill-opacity:1;fill-rule:nonzero;stroke:none;font-family:CMR10;-inkscape-font-specification:CMR10">(2,4)</tspan></text>

</g></g></g><g
       id="g1146"
       transform="scale(0.1,0.1)"><g
         clip-path="url(#clipPath1150)"
         id="g1148"><g
           transform="scale(10,10)"
           id="g1154"><text
   id="text1156"
   transform="matrix(1,0,0,-1,10.017693,57.3891)"><tspan
     id="tspan1158"
     sodipodi:role="line"
     y="0"
     x="0 5.6155572 9.9400024 14.264448 18.153339 22.477785 24.640007 28.964453 31.126675 33.288898 38.476677 40.638901 45.826679 47.988903 53.176682 57.501129 61.825573 63.552242 65.278908 69.167801 73.492241 75.21891 79.543358 83.867805 86.030022 89.918915 94.243362 98.567802 100.73003 105.05447 109.37892 111.54115 113.70337 115.43003 119.31892 121.48115 125.37003 129.69449 134.01892 135.74559 140.07004 143.95892 146.12115 148.28337 150.4456 154.77005 156.93227 159.09448 163.41893 167.74338 169.90561 172.06783 176.39227 178.98227 185.46117 189.35005 191.51228 195.83672 197.99895 200.16116 202.32339 206.64784 208.81006 210.97229 215.29672 219.18562 221.34784 223.51007 225.67229 229.99673 234.32118 238.64563 240.37228 242.09895 245.98785 250.31229 252.03896 256.3634 260.68787 262.85007 267.17453 268.90118 273.22565 275.38785 279.71231 282.30231 286.62674 288.78897 293.1134 297.43787 299.6001 303.92453 308.24896 310.83899 314.72787 316.89008 319.4801 321.20676 325.53119 329.85565 332.01788 335.90677 338.49677 342.8212 347.14566 351.47009 354.06009 358.38455 362.70898 365.29898 371.77789 373.50455 377.39343 381.28232 383.009 387.33344 391.6579 395.54678 397.70901 399.87122 405.48679 409.81122 415.42679 419.75122 421.47791 425.80234 430.1268 434.45123 438.7757 443.10013 445.26236 447.42456 451.74902 456.07346 458.23569 463.42346 465.58569 469.91013 474.23459 478.55902 482.88348 485.04568 489.37015 493.69458 495.85681 500.18124 504.50571 506.66791 510.99237 515.31683 517.47906 523.53015 527.85461 530.01685 532.17902 538.65796 542.98236 547.30682 549.46906 551.63129 555.95569 560.28015 562.44238 568.92126 573.24573"
     style="font-size:7.77778006px;font-variant:normal;font-weight:normal;writing-mode:lr-tb;fill:#dcdcdc;fill-opacity:1;fill-rule:nonzero;stroke:none;font-family:Helvetica;-inkscape-font-specification:Helvetica">Reuse of AIP Publishing content is subject to the terms at: https://publishing.aip.org/authors/rights-and-permissions. Downloaded to IP: 134.76.40.27 On: Mon, 16 May</tspan><tspan
     id="tspan1160"
     sodipodi:role="line"
     y="11.6668"
     x="262.61276 266.93723 271.26166 275.58612 279.91055 282.07278 286.39722 290.72168 292.88391 297.20834 301.53278 303.69501 308.01947"
     style="font-size:7.77778006px;font-variant:normal;font-weight:normal;writing-mode:lr-tb;fill:#dcdcdc;fill-opacity:1;fill-rule:nonzero;stroke:none;font-family:Helvetica;-inkscape-font-specification:Helvetica">2016 15:26:46</tspan></text>

</g></g></g><g
       id="g1162"
       transform="scale(0.1,0.1)"><g
         clip-path="url(#clipPath1166)"
         id="g1164" /></g></g></svg>